<svg width="1440" height="325" viewBox="0 0 1440 325" fill="none" xmlns="http://www.w3.org/2000/svg">
<rect width="1440" height="325" fill="#28B431"/>
<path opacity="0.2" fill-rule="evenodd" clip-rule="evenodd" d="M352.784 313.431L319.628 313.431L319.628 247L352.784 247C371.129 247 386 261.871 386 280.215C386 298.56 371.129 313.431 352.784 313.431ZM242.721 313.431L309.093 313.431L309.093 247L242.721 247L242.721 313.431ZM165.814 280.215C165.814 298.56 180.685 313.431 199.029 313.431L232.185 313.431L232.185 247L199.029 247C180.685 247 165.814 261.871 165.814 280.215ZM88.9067 280.215C88.9067 298.543 103.765 313.431 122.093 313.431C140.421 313.431 155.278 298.543 155.278 280.215C155.278 261.887 140.421 247 122.093 247C103.764 247 88.9067 261.887 88.9067 280.215ZM78.3715 313.431L11.9998 313.431L11.9998 247C48.6559 247 78.3715 276.775 78.3715 313.431ZM78.3715 236.405L11.9998 236.405L11.9998 169.974L78.3715 169.974L78.3715 236.405ZM11.9998 92.7727C11.9998 129.429 41.7154 159.204 78.3715 159.204L78.3715 92.7727L11.9998 92.7727ZM45.1856 82.1783C26.8576 82.1783 11.9998 67.2908 11.9998 48.9627C11.9998 30.6347 26.8576 15.7472 45.1856 15.7472C63.5137 15.7472 78.3715 30.6347 78.3715 48.9627C78.3715 67.2908 63.5137 82.1783 45.1856 82.1783ZM155.278 236.405C118.622 236.405 88.9067 206.63 88.9067 169.974L155.278 169.974L155.278 236.405ZM88.9067 159.204L155.278 159.204C155.278 122.548 125.563 92.7727 88.9067 92.7727L88.9067 159.204ZM155.278 82.1783L88.9067 82.1783L88.9067 15.7472C125.563 15.7472 155.278 45.5221 155.278 82.1783ZM199 236.405C180.672 236.405 165.814 221.518 165.814 203.19C165.814 184.862 180.672 169.974 199 169.974C217.328 169.974 232.186 184.862 232.186 203.19C232.186 221.518 217.328 236.405 199 236.405ZM232.186 159.204L232.186 92.7728L165.814 92.7728L165.814 159.204L232.186 159.204ZM198.97 82.1783L165.814 82.1783L165.814 15.7472L198.97 15.7472C217.314 15.7472 232.185 30.6183 232.185 48.9628C232.185 67.3072 217.314 82.1783 198.97 82.1783ZM309.093 236.405L242.721 236.405C242.721 199.749 272.437 169.974 309.093 169.974L309.093 236.405ZM242.721 159.38L309.093 159.38C309.093 122.724 279.377 92.9486 242.721 92.9486L242.721 159.38ZM319.628 203.19C319.628 221.518 334.486 236.405 352.814 236.405C371.142 236.405 386 221.518 386 203.19C386 184.862 371.142 169.974 352.814 169.974C334.486 169.974 319.628 184.862 319.628 203.19ZM352.814 159.204C334.486 159.204 319.628 144.316 319.628 125.988C319.628 107.66 334.486 92.7728 352.814 92.7728C371.142 92.7728 386 107.66 386 125.988C386 144.316 371.142 159.204 352.814 159.204Z" fill="url(#paint0_linear_779_115)"/>
<g opacity="0.5">
<ellipse opacity="0.6" cx="361.345" cy="4.98576" rx="4.3848" ry="4.38851" transform="rotate(-180 361.345 4.98576)" fill="#E7FDE8"/>
<ellipse opacity="0.6" cx="112.519" cy="0.597328" rx="4.3848" ry="4.38851" transform="rotate(-180 112.519 0.597328)" fill="#E7FDE8"/>
<ellipse opacity="0.6" cx="228.163" cy="32.9626" rx="2.7405" ry="2.74282" transform="rotate(-180 228.163 32.9626)" fill="#E7FDE8"/>
<ellipse opacity="0.6" cx="336.134" cy="122.379" rx="4.3848" ry="4.38851" transform="rotate(-180 336.134 122.379)" fill="#E7FDE8"/>
<ellipse opacity="0.6" cx="46.2023" cy="114.15" rx="8.2215" ry="8.22846" transform="rotate(-180 46.2023 114.15)" fill="#E7FDE8"/>
<ellipse opacity="0.6" cx="249.537" cy="274.879" rx="7.6734" ry="7.67989" transform="rotate(-180 249.537 274.879)" fill="#E7FDE8"/>
</g>
<path d="M145.364 33.4101C139.094 33.4101 137.134 43.2159 137.134 47.1354C137.134 53.7866 144.187 81.2563 150.847 81.2563C157.506 81.2563 164.564 54.1762 164.564 51.0596C164.564 47.9431 156.334 33.4101 145.364 33.4101Z" fill="#9DECB3"/>
<path d="M268.511 35.2679L174.255 16.7591C167.733 15.4785 161.41 19.7316 160.13 26.2586L124.163 209.751C122.884 216.278 127.133 222.607 133.654 223.887L227.91 242.396C234.431 243.677 240.755 239.424 242.034 232.897L278.002 49.4048C279.281 42.8777 275.032 36.5485 268.511 35.2679Z" fill="white"/>
<path d="M176.488 132.664C177.31 128.884 181.039 126.486 184.816 127.309L216.199 134.146C219.976 134.969 222.372 138.701 221.55 142.482V142.482C220.727 146.263 216.999 148.661 213.221 147.838L181.839 141C178.061 140.177 175.665 136.445 176.488 132.664V132.664Z" fill="#3FC951"/>
<path d="M191.211 134.484L192.16 134.691C192.328 133.853 191.768 133.127 190.725 132.9C189.699 132.676 188.823 133.08 188.643 133.932C188.49 134.622 188.891 135.124 189.641 135.486L190.123 135.726C190.605 135.96 190.857 136.169 190.791 136.485C190.714 136.827 190.338 136.99 189.835 136.881C189.321 136.768 189.002 136.45 189.072 135.974L188.115 135.765C187.919 136.784 188.53 137.466 189.666 137.714C190.809 137.963 191.6 137.562 191.789 136.705C191.957 135.924 191.459 135.382 190.685 135.021L190.286 134.829C189.9 134.647 189.592 134.421 189.672 134.087C189.738 133.785 190.053 133.621 190.538 133.727C191.011 133.83 191.255 134.108 191.211 134.484Z" fill="white"/>
<path d="M192.827 134.28L194.26 134.593L193.419 138.462L194.397 138.675L195.239 134.806L196.672 135.118L196.85 134.301L193.005 133.463L192.827 134.28Z" fill="white"/>
<path d="M196.693 139.175L197.273 138.182L198.962 138.55L199.077 139.694L200.138 139.926L199.543 134.888L198.267 134.61L195.632 138.944L196.693 139.175ZM197.692 137.464L198.654 135.816L198.691 135.824L198.881 137.723L197.692 137.464Z" fill="white"/>
<path d="M200.701 140.048L201.691 140.264L202.053 138.603L202.775 138.76L203.301 140.615L204.394 140.853L203.795 138.815C204.378 138.702 204.774 138.302 204.913 137.661C205.115 136.73 204.631 135.996 203.568 135.765L201.721 135.362L200.701 140.048ZM202.226 137.807L202.534 136.388L203.202 136.533C203.773 136.658 203.995 136.972 203.893 137.439C203.792 137.903 203.465 138.077 202.898 137.953L202.226 137.807Z" fill="white"/>
<path d="M205.589 137.061L207.023 137.373L206.181 141.242L207.16 141.455L208.001 137.586L209.435 137.899L209.612 137.082L205.767 136.244L205.589 137.061Z" fill="white"/>
<path opacity="0.6" d="M246.914 31.0727L245.723 37.1491C245.428 38.6356 244.556 39.9447 243.299 40.7897C242.042 41.6347 240.502 41.9468 239.016 41.6577L198.375 33.6762C196.89 33.3799 195.583 32.5075 194.739 31.2497C193.895 29.9918 193.583 28.4508 193.87 26.9632L195.085 20.8868" fill="#9DECB3"/>
<path d="M116.808 200.19L245.271 225.422" stroke="#B9FFBC" stroke-width="3" stroke-miterlimit="10"/>
<path d="M185.424 222.942C185.424 225.297 183.516 227.207 181.163 227.207C178.81 227.207 176.902 225.297 176.902 222.942C176.902 220.586 178.81 218.676 181.163 218.676C183.516 218.676 185.424 220.586 185.424 222.942Z" fill="#9DECB3" stroke="#B9FFBC"/>
<path d="M137.921 86.3776C129.691 86.3776 124.204 92.6488 124.204 99.319C124.204 121.278 136.744 139.317 142.241 139.317C153.994 139.317 158.303 133.041 158.303 128.727C158.294 125.568 156.728 86.3776 137.921 86.3776Z" fill="#9DECB3"/>
<path d="M133.612 144.001C135.961 146.353 153.984 165.57 153.984 178.901C153.984 187.928 152.024 194.978 135.567 194.978C127.73 194.978 105.792 163.997 105.792 151.45C105.792 144.391 110.101 127.919 122.248 127.919C125.775 127.919 133.612 134.195 134.784 135.763C135.991 137.015 137.272 138.193 138.619 139.293C138.126 141.844 135.401 155.265 135.401 155.265" fill="#9DECB3"/>
<path d="M139.384 150.457C139.384 150.457 133.807 143.411 130.28 140.276" stroke="#5DCB7C" stroke-width="2" stroke-miterlimit="10" stroke-linecap="round"/>
<path d="M130.683 222.894C129.511 226.034 128.713 256.354 132.24 273.215C129.867 285.373 120.483 325 120.483 325H205.528L214.148 290.49C214.148 290.49 266.627 244.582 271.72 236.353C276.813 228.125 288.765 180.079 288.594 175.57C288.457 172.435 231.388 124.194 229.822 122.232C228.255 120.27 200.696 147.887 246.539 179.67C246.145 183.59 246.169 200.902 246.169 200.902C246.169 200.902 214.281 211.872 211.044 214.238C207.807 216.604 201.612 233.275 200.492 237.014C196.158 236.168 130.683 222.894 130.683 222.894Z" fill="#9DECB3"/>
<path d="M193.809 256.664C194.877 252.578 200.055 237.902 201.342 234.401" stroke="#5DCB7C" stroke-width="2" stroke-miterlimit="10" stroke-linecap="round"/>
<path d="M152.576 286.746C149.17 286.746 147.435 285.157 145.905 283.755C144.523 282.488 143.431 281.488 141.099 281.488C138.766 281.488 137.674 282.488 136.292 283.755C134.762 285.157 133.027 286.746 129.621 286.746C126.216 286.746 124.481 285.157 122.951 283.755C121.569 282.488 120.477 281.488 118.145 281.488C115.812 281.488 114.721 282.488 113.339 283.755C111.809 285.157 110.074 286.746 106.668 286.746C103.263 286.746 101.529 285.157 99.9985 283.755C98.6168 282.488 97.5254 281.488 95.1931 281.488C92.8606 281.488 91.7692 282.488 90.3873 283.755C88.857 285.157 87.1224 286.746 83.7168 286.746C80.3111 286.746 78.5764 285.157 77.0459 283.755C75.664 282.488 74.5726 281.488 72.2398 281.488C71.4775 281.488 70.8591 280.87 70.8591 280.106C70.8591 279.343 71.4775 278.724 72.2398 278.724C75.6454 278.724 77.38 280.314 78.9105 281.715C80.2924 282.982 81.3841 283.982 83.7168 283.982C86.0493 283.982 87.1408 282.982 88.5226 281.716C90.0529 280.314 91.7876 278.724 95.1931 278.724C98.5984 278.724 100.333 280.314 101.863 281.716C103.245 282.982 104.336 283.982 106.668 283.982C109.001 283.982 110.092 282.982 111.474 281.716C113.005 280.314 114.739 278.724 118.145 278.724C121.551 278.724 123.285 280.314 124.815 281.716C126.197 282.982 127.289 283.982 129.621 283.982C131.954 283.982 133.046 282.982 134.428 281.716C135.958 280.314 137.693 278.724 141.099 278.724C144.504 278.724 146.239 280.314 147.77 281.716C149.151 282.982 150.243 283.982 152.576 283.982C154.909 283.982 156.001 282.982 157.383 281.715C158.913 280.314 160.648 278.724 164.054 278.724C164.817 278.724 165.435 279.343 165.435 280.106C165.435 280.87 164.817 281.488 164.054 281.488C161.721 281.488 160.629 282.488 159.247 283.755C157.717 285.157 155.982 286.746 152.576 286.746Z" fill="#F9C270"/>
<path d="M175.085 97.1187C175.739 96.6358 176.399 96.4579 177.146 96.5914C178.606 96.8481 179.273 97.6743 179.115 99.1157C178.953 100.603 178.546 102.045 178.265 103.51C178.107 104.337 178.095 104.335 177.246 104.159C176.883 104.084 176.523 103.992 176.155 103.939C175.881 103.899 175.848 103.784 175.899 103.546C176.178 102.247 176.442 100.945 176.71 99.649C176.736 99.5278 176.766 99.406 176.786 99.2838C176.9 98.4336 176.226 97.8801 175.369 98.1225C175.065 98.2088 174.874 98.3736 174.81 98.714C174.526 100.182 174.205 101.637 173.918 103.102C173.858 103.391 173.757 103.456 173.467 103.384C172.956 103.255 172.437 103.153 171.917 103.062C171.676 103.019 171.58 102.957 171.637 102.687C172.1 100.511 172.55 98.3319 172.989 96.1501C173.038 95.9167 173.126 95.862 173.361 95.92C173.787 96.0363 174.221 96.1261 174.658 96.1888C175.052 96.2364 175.218 96.3811 175.112 96.7681C175.094 96.884 175.085 97.0012 175.085 97.1187V97.1187Z" fill="#2AAC3B"/>
<path d="M197.349 101.646C198.125 101.128 198.954 101.058 199.838 101.292C200.543 101.481 201.081 101.851 201.343 102.533C201.421 102.733 201.471 102.76 201.654 102.622C202.576 101.915 203.601 101.934 204.64 102.341C205.629 102.728 206.124 103.558 205.936 104.668C205.651 106.343 205.273 108.002 204.933 109.667C204.925 109.707 204.921 109.771 204.896 109.782C204.526 109.938 204.193 109.702 203.841 109.661C203.585 109.632 203.702 109.428 203.728 109.298C203.898 108.444 204.081 107.59 204.257 106.741C204.38 106.146 204.508 105.551 204.627 104.952C204.839 103.87 204.495 103.328 203.464 103.099C202.475 102.88 201.613 103.385 201.406 104.341C201.102 105.732 200.815 107.126 200.545 108.523C200.479 108.869 200.382 108.976 200.001 108.881C199.205 108.682 199.2 108.705 199.363 107.917C199.632 106.616 199.9 105.319 200.169 104.02C200.337 103.186 200.137 102.674 199.549 102.365C198.786 101.965 197.864 102.052 197.32 102.568C197.159 102.723 197.052 102.923 197.014 103.141C196.708 104.659 196.387 106.172 196.085 107.69C196.026 107.976 195.925 108.036 195.637 107.973C194.772 107.784 194.769 107.793 194.946 106.939C195.35 104.986 195.763 103.043 196.146 101.09C196.218 100.721 196.349 100.657 196.707 100.747C197.353 100.913 197.359 100.893 197.349 101.646Z" fill="#2AAC3B"/>
<path d="M221.545 109.931C220.909 110.223 220.452 110.599 220.408 111.34C220.379 111.818 220.212 112.286 220.131 112.763C220.092 112.98 220 113.016 219.784 112.978C218.84 112.812 218.84 112.819 219.026 111.917C219.631 108.995 220.24 106.073 220.832 103.147C220.905 102.796 220.997 102.662 221.401 102.764C222.154 102.954 222.16 102.929 222.006 103.676L220.926 108.898C221.025 108.969 221.076 108.902 221.124 108.862C222.053 108.117 223.079 107.5 224.042 106.799C224.335 106.586 224.613 106.493 224.979 106.61C225.266 106.688 225.558 106.751 225.852 106.798C225.846 106.991 225.682 107.023 225.579 107.096C224.685 107.725 223.794 108.36 222.883 108.967C222.609 109.15 222.562 109.293 222.71 109.593C223.359 110.909 223.981 112.238 224.611 113.562C224.673 113.685 224.718 113.811 224.803 114.01C224.323 113.91 223.912 113.825 223.501 113.74C223.325 113.704 223.303 113.552 223.245 113.433C222.744 112.402 222.246 111.37 221.751 110.337C221.684 110.202 221.613 110.067 221.545 109.931Z" fill="#2AAC3B"/>
<path d="M234.098 112.023C234.244 111.32 234.377 110.614 234.54 109.915C234.598 109.664 234.539 109.557 234.276 109.533C234.12 109.519 233.969 109.453 233.815 109.445C233.387 109.421 233.31 109.255 233.376 108.839C233.456 108.346 233.699 108.413 234.046 108.491C234.793 108.659 234.795 108.65 234.942 107.942L235.026 107.535C235.151 106.931 235.151 106.931 235.759 107.057C236.391 107.188 236.389 107.187 236.266 107.802C236.194 108.152 235.99 108.564 236.114 108.839C236.237 109.113 236.748 109.043 237.088 109.117C237.332 109.167 237.372 109.26 237.328 109.484C237.199 110.142 237.209 110.144 236.55 110.007C236.396 109.975 236.239 109.954 236.089 109.912C235.884 109.85 235.823 109.933 235.784 110.118C235.5 111.526 235.198 112.929 234.921 114.338C234.803 114.939 235.08 115.296 235.712 115.304C236.148 115.309 236.154 115.472 236.072 115.803C235.93 116.38 235.946 116.385 235.314 116.294C233.955 116.098 233.439 115.421 233.676 114.096C233.801 113.4 233.956 112.712 234.098 112.023Z" fill="#2AAC3B"/>
<path d="M216.771 105.714C217.402 105.171 218.053 105.015 218.798 105.217C219.087 105.296 219.22 105.399 219.119 105.708C219.042 105.946 219.083 106.268 218.931 106.412C218.759 106.575 218.464 106.351 218.219 106.315C217.237 106.169 216.571 106.608 216.377 107.545C216.089 108.937 215.793 110.327 215.52 111.723C215.461 112.008 215.367 112.069 215.075 112.004C214.196 111.811 214.194 111.821 214.367 110.984C214.775 109.011 215.19 107.038 215.584 105.062C215.647 104.759 215.757 104.65 216.057 104.767C216.085 104.776 216.113 104.781 216.141 104.785C216.867 104.934 216.867 104.934 216.771 105.714Z" fill="#2AAC3B"/>
<path d="M186.089 103.018C186.41 103.089 186.527 103.012 186.561 102.708C186.608 102.31 186.708 101.92 186.75 101.522C186.904 100.02 186.185 98.8017 184.817 98.228C183.329 97.6033 181.681 97.9126 180.761 99.0045C180.064 99.8348 179.772 100.824 179.729 101.878C179.647 103.812 181.135 105.443 183.65 105.529C184.382 105.563 185.102 105.364 185.701 104.963C185.872 104.848 185.919 104.754 185.802 104.56C185.621 104.276 185.458 103.982 185.315 103.679C185.194 103.418 185.071 103.395 184.847 103.564C184.661 103.692 184.443 103.77 184.214 103.79C183.107 103.928 181.963 103.434 182.03 102.167L182.486 102.262C183.688 102.513 184.891 102.75 186.089 103.018ZM182.356 100.573C182.611 99.8628 183.2 99.5607 183.93 99.7866C184.06 99.8262 184.18 99.8906 184.285 99.976C184.389 100.062 184.474 100.166 184.536 100.284C184.598 100.402 184.635 100.53 184.645 100.662C184.655 100.793 184.638 100.925 184.594 101.049C184.54 101.215 184.454 101.225 184.311 101.194C184.005 101.13 183.698 101.067 183.388 101.003L182.513 100.821C182.371 100.791 182.289 100.761 182.356 100.573Z" fill="#2AAC3B"/>
<path d="M194.18 101.82C193.733 100.376 192.36 99.4626 190.668 99.453C189.409 99.4466 188.463 99.964 187.816 101.005C187.329 101.793 187.137 102.662 187.123 103.571C187.102 105.019 187.876 106.158 189.229 106.711C190.704 107.314 192.224 107.068 193.214 106.055C193.776 105.478 194.057 104.764 194.231 103.89C194.398 103.21 194.38 102.497 194.18 101.82V101.82ZM191.495 104.752C191.201 105.171 190.822 105.305 190.316 105.202C189.81 105.098 189.489 104.799 189.425 104.311C189.303 103.412 189.495 102.502 189.971 101.729C190.222 101.313 190.631 101.157 191.143 101.268C191.654 101.379 191.931 101.686 192.032 102.166C192.126 102.625 192.053 103.073 191.95 103.519C191.873 103.958 191.756 104.383 191.495 104.753L191.495 104.752Z" fill="#2AAC3B"/>
<path d="M212.522 111.195C212.447 110.653 212.526 110.122 212.638 109.593C212.859 108.524 213.091 107.458 213.301 106.387C213.498 105.359 213.028 104.43 212.083 103.949C211.56 103.683 210.982 103.539 210.395 103.529C209.41 103.508 208.538 103.776 207.971 104.625C207.691 105.044 207.726 105.11 208.213 105.213C208.395 105.25 208.577 105.288 208.759 105.326C208.894 105.354 209.002 105.363 209.072 105.208C209.292 104.716 209.738 104.562 210.243 104.528C211.366 104.454 212.167 105.136 212.068 106.07C211.983 106.859 211.984 106.857 211.186 106.695C210.85 106.625 210.515 106.556 210.175 106.503C209.626 106.412 209.064 106.438 208.529 106.581C207.541 106.861 206.901 107.686 206.915 108.665C206.93 109.644 207.602 110.456 208.582 110.754C209.494 111.028 210.35 110.965 211.199 110.419C211.171 111.187 211.171 111.187 211.86 111.33C212 111.359 212.142 111.381 212.28 111.417C212.493 111.478 212.551 111.41 212.522 111.195ZM208.84 109.645C208.35 109.364 208.14 108.946 208.225 108.425C208.317 107.862 208.634 107.52 209.2 107.422C210.005 107.284 210.783 107.496 211.564 107.658C211.72 107.69 211.719 107.794 211.694 107.912C211.652 108.114 211.61 108.319 211.568 108.52C211.322 109.715 209.945 110.282 208.84 109.645V109.645Z" fill="#2AAC3B"/>
<path d="M227.595 111.223C228.288 111.39 228.99 111.519 229.69 111.664C230.403 111.812 231.118 111.951 231.826 112.112C232.059 112.165 232.145 112.115 232.194 111.883C232.332 111.244 232.418 110.602 232.326 109.951C232.192 109.003 231.747 108.246 230.828 107.808C229.368 107.113 227.747 107.502 226.828 108.791C226.083 109.814 225.781 111.083 225.984 112.331C226.161 113.484 226.849 114.331 227.984 114.743C229.166 115.172 230.334 115.188 231.366 114.357C231.451 114.289 231.596 114.15 231.583 114.126C231.43 113.892 231.251 113.674 231.05 113.478C230.909 113.349 230.802 113.548 230.698 113.614C229.882 114.132 229.028 114.163 228.2 113.681C227.372 113.199 227.136 112.419 227.18 111.53C227.193 111.246 227.281 111.148 227.595 111.223ZM228.387 108.819C228.684 108.604 229.044 108.488 229.416 108.486C229.788 108.483 230.153 108.596 230.458 108.807C231.005 109.194 231.319 110.141 231.122 110.754C231.082 110.873 231.035 110.905 230.914 110.88C229.774 110.644 228.634 110.408 227.475 110.168C227.669 109.615 227.931 109.152 228.386 108.822L228.387 108.819Z" fill="#2AAC3B"/>
<path opacity="0.2" fill-rule="evenodd" clip-rule="evenodd" d="M1356.42 309.479L1421.02 309.479L1421.02 244.879C1385.34 244.879 1356.42 273.801 1356.42 309.479ZM1356.42 234.577L1421.02 234.577L1421.02 169.976L1356.42 169.976L1356.42 234.577ZM1421.02 94.9027C1421.02 130.58 1392.1 159.503 1356.42 159.503L1356.42 94.9027L1421.02 94.9027ZM1388.72 84.6002C1406.56 84.6002 1421.02 70.139 1421.02 52.3001C1421.02 34.4613 1406.56 20.0001 1388.72 20.0001C1370.88 20.0001 1356.42 34.4613 1356.42 52.3001C1356.42 70.139 1370.88 84.6002 1388.72 84.6002ZM1346.16 277.179C1346.16 295.018 1331.7 309.479 1313.86 309.479C1296.02 309.479 1281.56 295.018 1281.56 277.179C1281.56 259.34 1296.02 244.879 1313.86 244.879C1331.7 244.879 1346.16 259.34 1346.16 277.179ZM1281.56 234.577C1317.24 234.577 1346.16 205.654 1346.16 169.976L1281.56 169.976L1281.56 234.577ZM1281.56 159.503C1281.56 123.825 1310.49 94.9027 1346.16 94.9027L1346.16 159.503L1281.56 159.503ZM1346.16 20.0001C1310.49 20.0001 1281.56 48.9225 1281.56 84.6002L1346.16 84.6002L1346.16 20.0001ZM1271.31 277.179C1271.31 295.018 1256.85 309.479 1239.01 309.479L1206.71 309.479L1206.71 244.879L1239.01 244.879C1256.85 244.879 1271.31 259.34 1271.31 277.179ZM1239.01 234.577C1256.85 234.577 1271.31 220.115 1271.31 202.276C1271.31 184.438 1256.85 169.976 1239.01 169.976C1221.17 169.976 1206.71 184.438 1206.71 202.276C1206.71 220.115 1221.17 234.577 1239.01 234.577ZM1206.71 159.503L1206.71 94.9027L1271.31 94.9027L1271.31 159.503L1206.71 159.503ZM1239.01 84.6002L1271.31 84.6002L1271.31 20L1239.01 20C1221.17 20 1206.71 34.4613 1206.71 52.3001C1206.71 70.139 1221.17 84.6002 1239.01 84.6002ZM1196.45 309.479L1131.85 309.479L1131.85 244.879L1196.45 244.879L1196.45 309.479ZM1131.85 234.577L1196.45 234.577C1196.45 198.899 1167.53 169.976 1131.85 169.976L1131.85 234.577ZM1196.45 159.674L1131.85 159.674C1131.85 123.996 1160.78 95.0737 1196.45 95.0737L1196.45 159.674ZM1089.3 309.479L1121.6 309.479L1121.6 244.879L1089.3 244.879C1071.46 244.879 1057 259.34 1057 277.179C1057 295.018 1071.46 309.479 1089.3 309.479ZM1121.6 202.276C1121.6 220.115 1107.14 234.577 1089.3 234.577C1071.46 234.577 1057 220.115 1057 202.276C1057 184.438 1071.46 169.976 1089.3 169.976C1107.14 169.976 1121.6 184.438 1121.6 202.276ZM1089.3 159.503C1107.14 159.503 1121.6 145.042 1121.6 127.203C1121.6 109.364 1107.14 94.9027 1089.3 94.9027C1071.46 94.9026 1057 109.364 1057 127.203C1057 145.042 1071.46 159.503 1089.3 159.503Z" fill="url(#paint1_linear_779_115)"/>
<path d="M577.478 186.267C580.005 183.448 582.851 182.013 586.384 181.917C593.29 181.708 597.114 184.844 597.753 191.566C598.415 198.5 597.92 205.457 598.02 212.403C598.08 216.325 598.02 216.325 593.984 216.325C592.256 216.325 590.524 216.247 588.795 216.352C587.51 216.429 587.25 215.934 587.258 214.805C587.306 208.617 587.282 202.429 587.282 196.269C587.282 195.692 587.306 195.108 587.282 194.532C586.999 190.549 583.402 188.661 579.722 190.576C578.417 191.256 577.698 192.188 577.726 193.801C577.818 200.762 577.726 207.701 577.798 214.65C577.798 216.023 577.399 216.418 576.005 216.36C573.551 216.255 571.088 216.282 568.629 216.36C567.491 216.391 566.992 216.197 567 214.913C567.056 204.554 567.056 194.193 567 183.831C567 182.721 567.351 182.388 568.477 182.431C570.533 182.559 572.596 182.559 574.652 182.431C576.492 182.276 577.387 182.779 577.271 184.643C577.296 185.189 577.365 185.732 577.478 186.267Z" fill="white"/>
<path d="M683.352 185.877C686.401 182.783 690.118 181.681 694.373 181.916C697.77 182.11 700.572 183.289 702.412 186.151C702.955 186.99 703.211 187.064 703.917 186.263C707.458 182.168 712.152 181.286 717.278 182.16C722.156 182.992 725.197 186.306 725.385 191.546C725.668 199.451 725.505 207.372 725.529 215.284C725.529 215.478 725.573 215.772 725.469 215.845C723.924 216.905 722.184 216.143 720.539 216.29C719.341 216.398 719.685 215.358 719.681 214.743C719.649 210.69 719.681 206.621 719.681 202.584C719.681 199.753 719.705 196.922 719.681 194.076C719.625 188.944 717.545 186.797 712.623 186.728C707.905 186.662 704.448 189.783 704.404 194.335C704.332 200.963 704.339 207.591 704.424 214.217C704.448 215.857 704.109 216.433 702.277 216.36C698.461 216.205 698.457 216.317 698.457 212.569C698.457 206.382 698.457 200.217 698.457 194.041C698.437 190.081 697.044 187.934 694.066 187.079C690.21 185.977 686.082 187.246 684.086 190.111C683.498 190.969 683.2 191.983 683.232 193.012C683.268 200.221 683.232 207.426 683.284 214.631C683.284 215.988 682.885 216.36 681.508 216.344C677.384 216.298 677.38 216.344 677.38 212.279C677.38 202.998 677.432 193.747 677.336 184.481C677.316 182.733 677.851 182.315 679.572 182.388C682.677 182.535 682.685 182.435 683.352 185.877Z" fill="white"/>
<path d="M801.587 200.797C798.961 202.731 797.232 204.877 797.727 208.296C798.047 210.504 797.727 212.794 797.807 215.045C797.835 216.069 797.448 216.321 796.426 216.352C791.963 216.487 791.967 216.522 791.967 212.233C791.967 198.337 791.991 184.438 791.931 170.539C791.931 168.872 792.227 168.172 794.167 168.257C797.783 168.412 797.787 168.292 797.787 171.842V196.671C798.306 196.903 798.474 196.547 798.658 196.323C802.194 192.045 806.294 188.263 810.026 184.16C811.16 182.91 812.341 182.226 814.122 182.412C815.508 182.497 816.898 182.508 818.285 182.442C818.441 183.332 817.722 183.63 817.319 184.059C813.834 187.776 810.369 191.512 806.785 195.139C805.703 196.23 805.627 196.93 806.585 198.156C810.788 203.543 814.88 209.015 819.004 214.457C819.403 214.96 819.726 215.489 820.301 216.317C818.018 216.317 816.062 216.317 814.106 216.317C813.271 216.317 813.028 215.648 812.649 215.157C809.391 210.931 806.145 206.698 802.909 202.456C802.478 201.899 802.027 201.354 801.587 200.797Z" fill="white"/>
<path d="M860.845 198.477C860.845 195.135 860.786 191.79 860.869 188.449C860.901 187.25 860.53 186.817 859.305 186.96C858.582 187.041 857.828 186.882 857.117 186.991C855.145 187.288 854.634 186.604 854.546 184.643C854.443 182.323 855.616 182.396 857.273 182.423C860.841 182.485 860.841 182.443 860.841 179.074V177.14C860.841 174.267 860.841 174.267 863.735 174.267C866.745 174.267 866.733 174.267 866.753 177.187C866.753 178.85 866.214 180.923 867.037 182.056C867.859 183.189 870.122 182.388 871.747 182.404C872.909 182.404 873.176 182.791 873.188 183.85C873.22 186.971 873.268 186.971 870.13 186.971C869.4 186.971 868.661 187.022 867.939 186.971C866.941 186.882 866.741 187.319 866.741 188.201C866.773 194.888 866.717 201.571 866.785 208.257C866.813 211.108 868.414 212.473 871.304 211.912C873.3 211.525 873.479 212.26 873.419 213.846C873.316 216.615 873.392 216.619 870.426 216.804C864.039 217.191 861.041 214.592 860.873 208.327C860.786 205.036 860.845 201.756 860.845 198.477Z" fill="white"/>
<path d="M775.821 186.078C778.188 183.007 781.01 181.685 784.603 181.901C785.992 181.986 786.698 182.33 786.531 183.835C786.403 184.995 786.894 186.422 786.335 187.223C785.704 188.128 784.148 187.385 782.994 187.451C778.376 187.714 775.749 190.344 775.749 194.799C775.749 201.42 775.709 208.037 775.781 214.658C775.781 216.015 775.41 216.379 774.017 216.36C769.825 216.309 769.825 216.36 769.825 212.38C769.825 202.998 769.857 193.612 769.789 184.229C769.789 182.787 770.188 182.187 771.669 182.439C771.802 182.45 771.936 182.45 772.069 182.439C775.521 182.435 775.521 182.435 775.821 186.078Z" fill="white"/>
<path d="M633.26 202.77C634.792 202.793 635.255 202.329 635.124 200.909C634.96 199.053 635.052 197.177 634.864 195.325C634.154 188.333 629.723 183.456 622.937 182.133C615.556 180.691 608.331 183.657 605.162 189.504C602.766 193.948 602.367 198.736 603.166 203.582C604.615 212.477 612.945 218.506 624.502 216.522C627.872 215.987 630.971 214.401 633.327 212.005C633.998 211.32 634.126 210.845 633.407 210.071C632.313 208.949 631.293 207.76 630.354 206.513C629.555 205.438 628.972 205.45 628.11 206.432C627.383 207.194 626.46 207.756 625.436 208.06C620.514 209.735 614.826 208.567 613.935 202.727H616.107C621.827 202.735 627.543 202.681 633.26 202.77ZM613.919 195.151C614.414 191.67 616.817 189.736 620.362 190.077C620.991 190.134 621.602 190.314 622.157 190.606C622.713 190.897 623.202 191.294 623.596 191.772C623.99 192.251 624.28 192.802 624.449 193.391C624.619 193.981 624.664 194.598 624.581 195.205C624.494 196.013 624.11 196.141 623.428 196.133C621.971 196.133 620.51 196.133 619.037 196.133H614.869C614.195 196.129 613.792 196.067 613.919 195.151Z" fill="white"/>
<path d="M669.054 189.667C665.649 183.506 658.523 180.636 650.791 182.191C645.039 183.351 641.211 186.604 639.243 191.96C637.762 196.013 637.706 200.155 638.505 204.317C639.774 210.938 644.381 215.401 651.075 216.642C658.376 217.999 665.078 215.443 668.639 209.886C670.662 206.726 671.269 203.207 671.237 199.057C671.357 195.797 670.605 192.562 669.054 189.667ZM659.569 205.57C658.619 207.759 657.019 208.725 654.611 208.733C652.204 208.741 650.456 207.677 649.706 205.515C648.301 201.529 648.32 197.2 649.758 193.225C650.512 191.094 652.232 189.996 654.671 190.019C657.11 190.042 658.663 191.179 659.577 193.271C660.439 195.275 660.527 197.39 660.479 199.517C660.543 201.59 660.408 203.64 659.569 205.573V205.57Z" fill="white"/>
<path d="M761.602 215.083C760.748 212.686 760.608 210.187 760.616 207.67C760.616 202.588 760.672 197.506 760.616 192.428C760.549 187.551 757.527 183.761 752.761 182.462C750.124 181.744 747.35 181.635 744.661 182.141C740.147 182.976 736.422 185.022 734.634 189.427C733.752 191.604 733.971 191.871 736.295 191.879C737.161 191.879 738.023 191.879 738.889 191.879C739.532 191.879 740.035 191.817 740.207 191.047C740.746 188.596 742.638 187.47 744.909 186.84C749.966 185.44 754.266 187.795 754.693 192.146C755.052 195.824 755.052 195.816 751.256 195.828C749.659 195.828 748.062 195.828 746.466 195.909C743.871 196.011 741.331 196.663 739.025 197.819C734.782 200.028 732.638 204.394 733.628 208.845C734.618 213.297 738.454 216.363 743.208 216.797C747.627 217.183 751.471 216.089 754.832 212.798C755.431 216.325 755.431 216.325 758.708 216.325C759.375 216.325 760.042 216.29 760.704 216.325C761.734 216.402 761.938 216.035 761.602 215.083ZM743.336 211.494C740.837 210.675 739.484 208.969 739.38 206.513C739.269 203.86 740.39 202 742.881 201.021C746.426 199.629 750.174 199.861 753.89 199.861C754.633 199.861 754.729 200.337 754.725 200.898C754.725 201.861 754.725 202.831 754.725 203.791C754.729 209.468 748.98 213.355 743.336 211.494Z" fill="white"/>
<path d="M830.412 200.975C833.734 201.079 837.059 201.006 840.392 201.006C843.781 201.006 847.178 200.967 850.559 201.029C851.672 201.052 852.016 200.743 852.024 199.641C852.048 196.597 851.836 193.588 850.802 190.703C849.297 186.511 846.551 183.479 841.945 182.35C834.624 180.559 827.598 183.866 824.62 190.61C822.186 195.977 822.002 202.051 824.109 207.546C826.001 212.635 829.941 215.849 835.51 216.654C841.31 217.493 846.655 216.464 850.579 211.699C850.902 211.313 851.433 210.539 851.349 210.442C850.432 209.518 849.412 208.696 848.307 207.991C847.545 207.538 847.242 208.544 846.83 208.946C843.597 212.078 839.725 213.026 835.494 211.61C831.263 210.195 829.446 206.861 828.812 202.766C828.6 201.458 828.911 200.929 830.412 200.975ZM831.758 189.265C832.91 188.006 834.444 187.134 836.14 186.772C837.836 186.411 839.607 186.58 841.198 187.254C844.06 188.503 846.387 192.525 846.064 195.503C845.996 196.083 845.813 196.276 845.238 196.276C839.813 196.276 834.384 196.276 828.872 196.276C829.235 193.573 829.993 191.214 831.758 189.28V189.265Z" fill="white"/>
<defs>
<linearGradient id="paint0_linear_779_115" x1="-226.679" y1="499.402" x2="206.99" y2="8.9338" gradientUnits="userSpaceOnUse">
<stop stop-color="white"/>
<stop offset="1" stop-color="white" stop-opacity="0"/>
</linearGradient>
<linearGradient id="paint1_linear_779_115" x1="1653.33" y1="490.325" x2="1231.66" y2="13.0002" gradientUnits="userSpaceOnUse">
<stop stop-color="white"/>
<stop offset="1" stop-color="white" stop-opacity="0"/>
</linearGradient>
</defs>
</svg>
