<svg width="592" height="360" viewBox="0 0 592 360" fill="none" xmlns="http://www.w3.org/2000/svg">
<rect width="592" height="359.003" rx="6" fill="#EDFAE5"/>
<rect opacity="0.1" x="112" y="360" width="72" height="360" transform="rotate(-180 112 360)" fill="url(#paint0_linear_607_128)"/>
<rect opacity="0.8" x="112" y="360" width="1" height="360" transform="rotate(-180 112 360)" fill="url(#paint1_linear_607_128)"/>
<rect opacity="0.8" x="41" y="360" width="1" height="360" transform="rotate(-180 41 360)" fill="url(#paint2_linear_607_128)"/>
<rect opacity="0.1" x="200" y="360" width="72" height="360" transform="rotate(-180 200 360)" fill="url(#paint3_linear_607_128)"/>
<rect opacity="0.8" x="200" y="360" width="1" height="360" transform="rotate(-180 200 360)" fill="url(#paint4_linear_607_128)"/>
<rect opacity="0.8" x="129" y="360" width="1" height="360" transform="rotate(-180 129 360)" fill="url(#paint5_linear_607_128)"/>
<rect opacity="0.1" x="288" y="360" width="72" height="360" transform="rotate(-180 288 360)" fill="url(#paint6_linear_607_128)"/>
<rect opacity="0.8" x="288" y="360" width="1" height="360" transform="rotate(-180 288 360)" fill="url(#paint7_linear_607_128)"/>
<rect opacity="0.8" x="217" y="360" width="1" height="360" transform="rotate(-180 217 360)" fill="url(#paint8_linear_607_128)"/>
<rect opacity="0.1" x="376" y="360" width="72" height="360" transform="rotate(-180 376 360)" fill="url(#paint9_linear_607_128)"/>
<rect opacity="0.8" x="376" y="360" width="1" height="360" transform="rotate(-180 376 360)" fill="url(#paint10_linear_607_128)"/>
<rect opacity="0.8" x="305" y="360" width="1" height="360" transform="rotate(-180 305 360)" fill="url(#paint11_linear_607_128)"/>
<rect opacity="0.1" x="464" y="360" width="72" height="360" transform="rotate(-180 464 360)" fill="url(#paint12_linear_607_128)"/>
<rect opacity="0.8" x="464" y="360" width="1" height="360" transform="rotate(-180 464 360)" fill="url(#paint13_linear_607_128)"/>
<rect opacity="0.8" x="393" y="360" width="1" height="360" transform="rotate(-180 393 360)" fill="url(#paint14_linear_607_128)"/>
<rect opacity="0.1" x="552" y="360" width="72" height="360" transform="rotate(-180 552 360)" fill="url(#paint15_linear_607_128)"/>
<rect opacity="0.8" x="552" y="360" width="1" height="360" transform="rotate(-180 552 360)" fill="url(#paint16_linear_607_128)"/>
<rect opacity="0.8" x="481" y="360" width="1" height="360" transform="rotate(-180 481 360)" fill="url(#paint17_linear_607_128)"/>
<path d="M178.598 174.299C180.671 171.993 183.006 170.818 185.905 170.739C191.571 170.568 194.709 173.135 195.233 178.635C195.777 184.309 195.37 190.001 195.452 195.685C195.501 198.894 195.452 198.894 192.141 198.894C190.723 198.894 189.301 198.83 187.883 198.916C186.828 198.979 186.616 198.574 186.622 197.65C186.661 192.587 186.642 187.524 186.642 182.483C186.642 182.011 186.661 181.533 186.642 181.062C186.409 177.802 183.458 176.258 180.438 177.825C179.367 178.382 178.778 179.144 178.801 180.464C178.876 186.16 178.801 191.837 178.86 197.523C178.86 198.647 178.532 198.97 177.389 198.922C175.375 198.837 173.354 198.859 171.336 198.922C170.403 198.947 169.994 198.789 170 197.739C170.046 189.262 170.046 180.784 170 172.306C170 171.398 170.288 171.125 171.212 171.16C172.899 171.265 174.592 171.265 176.279 171.16C177.789 171.034 178.522 171.445 178.427 172.97C178.448 173.417 178.505 173.861 178.598 174.299V174.299Z" fill="#2AAC3B"/>
<path d="M265.468 173.98C267.97 171.448 271.02 170.546 274.511 170.739C277.298 170.897 279.598 171.863 281.108 174.204C281.553 174.891 281.763 174.951 282.342 174.296C285.248 170.945 289.099 170.223 293.305 170.939C297.307 171.619 299.803 174.331 299.957 178.619C300.189 185.087 300.055 191.568 300.075 198.042C300.075 198.2 300.111 198.441 300.026 198.501C298.758 199.368 297.33 198.745 295.981 198.865C294.998 198.954 295.28 198.102 295.277 197.599C295.25 194.283 295.277 190.954 295.277 187.65C295.277 185.334 295.296 183.017 295.277 180.688C295.231 176.489 293.524 174.733 289.486 174.676C285.614 174.622 282.778 177.176 282.742 180.9C282.683 186.324 282.689 191.747 282.758 197.169C282.778 198.511 282.5 198.982 280.996 198.922C277.865 198.795 277.862 198.887 277.862 195.821C277.862 190.758 277.862 185.713 277.862 180.66C277.845 177.419 276.702 175.663 274.259 174.964C271.095 174.062 267.708 175.1 266.071 177.445C265.589 178.147 265.344 178.976 265.37 179.818C265.399 185.717 265.37 191.612 265.412 197.507C265.412 198.618 265.085 198.922 263.955 198.909C260.572 198.871 260.568 198.909 260.568 195.583C260.568 187.989 260.611 180.419 260.532 172.837C260.516 171.407 260.955 171.065 262.366 171.125C264.915 171.246 264.921 171.163 265.468 173.98Z" fill="#2AAC3B"/>
<path d="M362.482 186.188C360.327 187.77 358.909 189.527 359.315 192.324C359.577 194.131 359.315 196.004 359.38 197.846C359.403 198.685 359.086 198.89 358.247 198.916C354.585 199.026 354.589 199.055 354.589 195.545C354.589 184.176 354.608 172.803 354.559 161.429C354.559 160.066 354.802 159.493 356.393 159.562C359.361 159.689 359.364 159.591 359.364 162.496V182.812C359.79 183.002 359.927 182.71 360.078 182.527C362.98 179.027 366.344 175.932 369.406 172.575C370.336 171.553 371.306 170.992 372.767 171.144C373.904 171.215 375.044 171.223 376.183 171.17C376.31 171.897 375.721 172.141 375.39 172.492C372.531 175.533 369.688 178.59 366.747 181.559C365.859 182.451 365.797 183.024 366.583 184.027C370.032 188.435 373.389 192.913 376.772 197.365C377.1 197.776 377.365 198.21 377.837 198.887C375.963 198.887 374.358 198.887 372.754 198.887C372.069 198.887 371.869 198.34 371.558 197.938C368.885 194.48 366.221 191.016 363.566 187.546C363.213 187.09 362.842 186.644 362.482 186.188Z" fill="#2AAC3B"/>
<path d="M411.104 184.29C411.104 181.555 411.055 178.818 411.124 176.084C411.15 175.103 410.845 174.749 409.84 174.866C409.247 174.932 408.628 174.803 408.045 174.891C406.427 175.135 406.007 174.575 405.935 172.97C405.85 171.072 406.813 171.132 408.172 171.154C411.101 171.205 411.101 171.17 411.101 168.413V166.831C411.101 164.48 411.101 164.48 413.475 164.48C415.945 164.48 415.935 164.48 415.951 166.869C415.951 168.23 415.509 169.926 416.184 170.853C416.859 171.78 418.716 171.125 420.049 171.138C421.002 171.138 421.221 171.455 421.231 172.322C421.257 174.875 421.297 174.875 418.722 174.875C418.123 174.875 417.517 174.916 416.924 174.875C416.105 174.803 415.941 175.16 415.941 175.882C415.968 181.353 415.922 186.821 415.977 192.292C416 194.625 417.314 195.742 419.685 195.283C421.323 194.966 421.47 195.568 421.421 196.865C421.336 199.131 421.398 199.134 418.965 199.286C413.724 199.602 411.264 197.476 411.127 192.349C411.055 189.656 411.104 186.973 411.104 184.29Z" fill="#2AAC3B"/>
<path d="M341.34 174.144C343.282 171.632 345.598 170.549 348.546 170.727C349.686 170.796 350.265 171.078 350.128 172.309C350.023 173.258 350.426 174.426 349.967 175.081C349.45 175.821 348.172 175.214 347.226 175.268C343.436 175.483 341.281 177.635 341.281 181.28C341.281 186.698 341.249 192.112 341.307 197.53C341.307 198.64 341.003 198.938 339.86 198.922C336.421 198.881 336.421 198.922 336.421 195.666C336.421 187.989 336.447 180.309 336.391 172.632C336.391 171.451 336.719 170.961 337.934 171.167C338.043 171.176 338.152 171.176 338.261 171.167C341.095 171.163 341.095 171.163 341.34 174.144Z" fill="#2AAC3B"/>
<path d="M224.367 187.802C225.624 187.821 226.004 187.441 225.896 186.28C225.762 184.761 225.837 183.226 225.683 181.71C225.1 175.989 221.465 171.999 215.897 170.916C209.841 169.736 203.912 172.163 201.312 176.948C199.347 180.584 199.019 184.501 199.674 188.467C200.863 195.745 207.699 200.678 217.181 199.055C219.946 198.617 222.489 197.319 224.422 195.359C224.972 194.799 225.077 194.409 224.488 193.777C223.59 192.858 222.753 191.886 221.982 190.865C221.327 189.985 220.849 189.995 220.141 190.799C219.545 191.422 218.788 191.882 217.947 192.131C213.909 193.501 209.241 192.546 208.511 187.767H210.293C214.986 187.774 219.676 187.729 224.367 187.802ZM208.498 181.568C208.904 178.72 210.876 177.138 213.784 177.416C214.3 177.463 214.801 177.611 215.257 177.849C215.713 178.087 216.114 178.412 216.438 178.804C216.761 179.195 216.999 179.646 217.138 180.129C217.277 180.611 217.314 181.116 217.246 181.612C217.174 182.274 216.86 182.378 216.3 182.372C215.104 182.372 213.905 182.372 212.697 182.372H209.277C208.724 182.369 208.393 182.318 208.498 181.568Z" fill="#2AAC3B"/>
<path d="M253.736 177.081C250.942 172.04 245.096 169.692 238.752 170.964C234.032 171.913 230.891 174.575 229.276 178.957C228.061 182.274 228.015 185.663 228.67 189.068C229.712 194.485 233.492 198.137 238.984 199.153C244.975 200.264 250.474 198.172 253.395 193.625C255.056 191.039 255.554 188.16 255.528 184.764C255.626 182.097 255.009 179.45 253.736 177.081V177.081ZM245.954 190.093C245.175 191.884 243.861 192.675 241.886 192.682C239.911 192.688 238.477 191.818 237.861 190.049C236.709 186.787 236.724 183.245 237.903 179.992C238.522 178.249 239.934 177.35 241.935 177.369C243.936 177.388 245.211 178.318 245.961 180.03C246.668 181.669 246.74 183.4 246.701 185.141C246.753 186.837 246.642 188.514 245.954 190.096V190.093Z" fill="#2AAC3B"/>
<path d="M329.674 197.878C328.973 195.916 328.858 193.871 328.865 191.811C328.865 187.653 328.91 183.495 328.865 179.34C328.809 175.35 326.329 172.249 322.419 171.185C320.255 170.598 317.979 170.509 315.773 170.923C312.069 171.606 309.013 173.28 307.546 176.885C306.822 178.666 307.002 178.885 308.908 178.891C309.619 178.891 310.326 178.891 311.037 178.891C311.564 178.891 311.977 178.84 312.118 178.211C312.56 176.204 314.113 175.283 315.976 174.768C320.126 173.622 323.654 175.549 324.004 179.109C324.299 182.119 324.299 182.112 321.184 182.122C319.874 182.122 318.564 182.122 317.254 182.188C315.125 182.272 313.041 182.805 311.149 183.752C307.667 185.558 305.908 189.131 306.72 192.773C307.533 196.416 310.68 198.925 314.581 199.28C318.207 199.596 321.361 198.7 324.119 196.007C324.61 198.893 324.61 198.893 327.299 198.893C327.846 198.893 328.393 198.865 328.937 198.893C329.782 198.957 329.949 198.656 329.674 197.878ZM314.686 194.941C312.636 194.27 311.525 192.875 311.44 190.865C311.348 188.694 312.269 187.172 314.312 186.372C317.221 185.232 320.296 185.422 323.346 185.422C323.955 185.422 324.034 185.812 324.03 186.27C324.03 187.058 324.03 187.853 324.03 188.637C324.034 193.283 319.317 196.463 314.686 194.941V194.941Z" fill="#2AAC3B"/>
<path d="M386.133 186.334C388.858 186.419 391.586 186.359 394.321 186.359C397.102 186.359 399.889 186.327 402.663 186.378C403.577 186.397 403.859 186.144 403.865 185.242C403.885 182.752 403.711 180.29 402.863 177.929C401.628 174.499 399.375 172.018 395.595 171.094C389.588 169.629 383.824 172.334 381.381 177.853C379.383 182.244 379.233 187.214 380.961 191.71C382.514 195.875 385.747 198.504 390.316 199.162C395.075 199.849 399.46 199.007 402.68 195.109C402.945 194.792 403.381 194.159 403.312 194.08C402.56 193.324 401.723 192.651 400.816 192.074C400.191 191.704 399.942 192.527 399.604 192.856C396.951 195.419 393.774 196.194 390.302 195.036C386.831 193.878 385.34 191.15 384.82 187.799C384.646 186.729 384.902 186.296 386.133 186.334ZM387.237 176.752C388.182 175.722 389.441 175.008 390.833 174.713C392.225 174.417 393.677 174.555 394.983 175.106C397.331 176.128 399.241 179.419 398.975 181.856C398.92 182.331 398.769 182.489 398.297 182.489C393.846 182.489 389.392 182.489 384.869 182.489C385.167 180.277 385.789 178.347 387.237 176.764V176.752Z" fill="#2AAC3B"/>
<defs>
<linearGradient id="paint0_linear_607_128" x1="148" y1="360" x2="148" y2="720" gradientUnits="userSpaceOnUse">
<stop stop-color="#C4F9C9"/>
<stop offset="1" stop-color="#B7FBB6" stop-opacity="0"/>
</linearGradient>
<linearGradient id="paint1_linear_607_128" x1="112.5" y1="360" x2="112.5" y2="720" gradientUnits="userSpaceOnUse">
<stop stop-color="#C4F9C9"/>
<stop offset="1" stop-color="#B7FBB6" stop-opacity="0"/>
</linearGradient>
<linearGradient id="paint2_linear_607_128" x1="41.5" y1="360" x2="41.5" y2="720" gradientUnits="userSpaceOnUse">
<stop stop-color="#C4F9C9"/>
<stop offset="1" stop-color="#B7FBB6" stop-opacity="0"/>
</linearGradient>
<linearGradient id="paint3_linear_607_128" x1="236" y1="360" x2="236" y2="720" gradientUnits="userSpaceOnUse">
<stop stop-color="#C4F9C9"/>
<stop offset="1" stop-color="#B7FBB6" stop-opacity="0"/>
</linearGradient>
<linearGradient id="paint4_linear_607_128" x1="200.5" y1="360" x2="200.5" y2="720" gradientUnits="userSpaceOnUse">
<stop stop-color="#C4F9C9"/>
<stop offset="1" stop-color="#B7FBB6" stop-opacity="0"/>
</linearGradient>
<linearGradient id="paint5_linear_607_128" x1="129.5" y1="360" x2="129.5" y2="720" gradientUnits="userSpaceOnUse">
<stop stop-color="#C4F9C9"/>
<stop offset="1" stop-color="#B7FBB6" stop-opacity="0"/>
</linearGradient>
<linearGradient id="paint6_linear_607_128" x1="324" y1="360" x2="324" y2="720" gradientUnits="userSpaceOnUse">
<stop stop-color="#C4F9C9"/>
<stop offset="1" stop-color="#B7FBB6" stop-opacity="0"/>
</linearGradient>
<linearGradient id="paint7_linear_607_128" x1="288.5" y1="360" x2="288.5" y2="720" gradientUnits="userSpaceOnUse">
<stop stop-color="#C4F9C9"/>
<stop offset="1" stop-color="#B7FBB6" stop-opacity="0"/>
</linearGradient>
<linearGradient id="paint8_linear_607_128" x1="217.5" y1="360" x2="217.5" y2="720" gradientUnits="userSpaceOnUse">
<stop stop-color="#C4F9C9"/>
<stop offset="1" stop-color="#B7FBB6" stop-opacity="0"/>
</linearGradient>
<linearGradient id="paint9_linear_607_128" x1="412" y1="360" x2="412" y2="720" gradientUnits="userSpaceOnUse">
<stop stop-color="#C4F9C9"/>
<stop offset="1" stop-color="#B7FBB6" stop-opacity="0"/>
</linearGradient>
<linearGradient id="paint10_linear_607_128" x1="376.5" y1="360" x2="376.5" y2="720" gradientUnits="userSpaceOnUse">
<stop stop-color="#C4F9C9"/>
<stop offset="1" stop-color="#B7FBB6" stop-opacity="0"/>
</linearGradient>
<linearGradient id="paint11_linear_607_128" x1="305.5" y1="360" x2="305.5" y2="720" gradientUnits="userSpaceOnUse">
<stop stop-color="#C4F9C9"/>
<stop offset="1" stop-color="#B7FBB6" stop-opacity="0"/>
</linearGradient>
<linearGradient id="paint12_linear_607_128" x1="500" y1="360" x2="500" y2="720" gradientUnits="userSpaceOnUse">
<stop stop-color="#C4F9C9"/>
<stop offset="1" stop-color="#B7FBB6" stop-opacity="0"/>
</linearGradient>
<linearGradient id="paint13_linear_607_128" x1="464.5" y1="360" x2="464.5" y2="720" gradientUnits="userSpaceOnUse">
<stop stop-color="#C4F9C9"/>
<stop offset="1" stop-color="#B7FBB6" stop-opacity="0"/>
</linearGradient>
<linearGradient id="paint14_linear_607_128" x1="393.5" y1="360" x2="393.5" y2="720" gradientUnits="userSpaceOnUse">
<stop stop-color="#C4F9C9"/>
<stop offset="1" stop-color="#B7FBB6" stop-opacity="0"/>
</linearGradient>
<linearGradient id="paint15_linear_607_128" x1="588" y1="360" x2="588" y2="720" gradientUnits="userSpaceOnUse">
<stop stop-color="#C4F9C9"/>
<stop offset="1" stop-color="#B7FBB6" stop-opacity="0"/>
</linearGradient>
<linearGradient id="paint16_linear_607_128" x1="552.5" y1="360" x2="552.5" y2="720" gradientUnits="userSpaceOnUse">
<stop stop-color="#C4F9C9"/>
<stop offset="1" stop-color="#B7FBB6" stop-opacity="0"/>
</linearGradient>
<linearGradient id="paint17_linear_607_128" x1="481.5" y1="360" x2="481.5" y2="720" gradientUnits="userSpaceOnUse">
<stop stop-color="#C4F9C9"/>
<stop offset="1" stop-color="#B7FBB6" stop-opacity="0"/>
</linearGradient>
</defs>
</svg>
