<svg width="592" height="360" viewBox="0 0 592 360" fill="none" xmlns="http://www.w3.org/2000/svg">
<rect width="592" height="360" rx="6" fill="#E4E8FF"/>
<path d="M126.082 172.344L149.992 156L173.918 172.344L145.52 191.731L140.624 188.388L163.473 172.746L149.519 163.22L142.99 167.632L147.984 170.974L136.005 179.146L126.082 172.344ZM173.918 188.672L149.992 205L126.082 188.672L154.48 169.269L159.474 172.612L136.625 188.254L150.579 197.78L157.108 193.368L152.13 190.026L163.995 181.87L173.918 188.672ZM173.918 162.802L169.022 166.144L164.044 162.802L174 156L173.918 162.802ZM126.082 198.198L131.06 194.856L135.956 198.198L126 205L126.082 198.198Z" fill="#465EFF"/>
<path d="M196.821 197.17C199.922 197.17 207.608 196.798 207.608 188.416C207.608 183.878 206.251 180.712 201.149 179.95C202.849 179.75 204.411 178.875 205.516 177.506C206.621 176.136 207.184 174.376 207.091 172.585C207.091 165.524 202.505 164.017 196.934 164.017H184V197.17H196.821ZM429.185 197.17C433.512 197.17 437.888 196.561 437.888 189.551C437.888 181.457 426.714 182.253 426.714 177.123C426.684 176.719 426.741 176.314 426.879 175.937C427.018 175.56 427.235 175.22 427.516 174.942C427.796 174.665 428.132 174.456 428.499 174.333C428.866 174.209 429.255 174.173 429.637 174.227H435.628V170.062H427.215C420.304 170.062 418.592 173.347 418.592 177.58C418.592 185.639 430.977 185.453 430.977 189.974C431.025 190.383 430.984 190.799 430.859 191.189C430.733 191.58 430.525 191.936 430.251 192.232C429.977 192.528 429.643 192.755 429.274 192.898C428.905 193.04 428.51 193.094 428.119 193.056H419.254L412.682 170.079H404.802L397.535 194.732L392.966 184.132C396.308 183.472 397.648 181.254 397.648 177.173C397.746 176.224 397.641 175.264 397.341 174.362C397.04 173.461 396.553 172.641 395.913 171.961C395.273 171.282 394.496 170.761 393.64 170.435C392.784 170.11 391.87 169.988 390.963 170.079H378.659V197.17H385.392V174.159H387.621C388.12 174.159 388.613 174.269 389.069 174.48C389.525 174.692 389.933 175.002 390.268 175.39C390.603 175.778 390.856 176.235 391.012 176.731C391.168 177.228 391.223 177.754 391.173 178.274C391.173 180.526 390.091 182.388 388.364 182.27H386.491L392.61 197.035H403.381L404.996 191.041H411.971L413.586 197.035L429.185 197.17ZM410.938 187.011H405.965L408.338 175.937L410.938 187.011ZM335.949 197.966C345.992 197.966 345.992 190.956 345.992 183.76C345.992 176.564 345.992 169.537 335.949 169.537C325.905 169.537 325.889 176.479 325.889 183.76C325.889 191.041 325.889 197.881 335.949 197.881V197.966ZM335.949 193.852C333.01 193.852 332.622 190.804 332.622 183.692C332.622 176.581 333.01 173.533 335.949 173.533C338.887 173.533 339.259 176.581 339.259 183.692C339.259 190.804 338.887 193.784 335.949 193.784V193.852ZM304.025 197.238H313.826C324.129 197.238 323.515 187.671 323.515 183.506C323.515 175.04 322.029 170.062 314.133 170.062H304.089L304.025 197.238ZM310.484 174.295H313.181C316.781 174.295 316.781 178.697 316.781 183.692C316.781 190.465 316.152 193.107 313.003 193.107H310.516L310.484 174.295ZM362.673 182.761H364.288C367.436 182.761 368.421 184.556 368.421 187.485C368.421 192.125 365.45 192.158 364.126 192.158H360.654V182.829L362.673 182.761ZM360.671 177.681V169.215H364.514C365.019 169.229 365.516 169.352 365.974 169.574C366.433 169.797 366.843 170.115 367.18 170.51C367.517 170.905 367.774 171.367 367.935 171.87C368.095 172.372 368.157 172.903 368.115 173.431C368.115 176.648 366.209 177.647 364.885 177.647H362.754L360.671 177.681ZM365.692 197.17C368.793 197.17 376.479 196.798 376.479 188.416C376.479 183.878 375.123 180.712 370.02 179.95C371.721 179.746 373.284 178.868 374.388 177.495C375.493 176.123 376.056 174.361 375.962 172.568C375.962 165.507 371.376 164 365.805 164H352.887V197.17H365.692ZM465 197.17V193.073H457.33V170.079H450.758V197.17H465ZM446.899 170.079H440.343V197.17H446.899V170.079ZM286.828 197.949C296.888 197.949 296.888 190.905 296.888 183.675C296.888 176.445 296.888 169.401 286.828 169.401C276.768 169.401 276.784 176.361 276.784 183.675C276.784 190.99 276.784 197.881 286.828 197.881V197.949ZM286.828 193.818C283.889 193.818 283.501 190.753 283.501 183.658C283.501 176.564 283.889 173.499 286.828 173.499C289.767 173.499 290.154 176.564 290.154 183.658C290.154 190.753 289.767 193.784 286.828 193.784V193.818ZM221.834 187.045H216.844L219.218 175.971L221.834 187.045ZM214.277 197.204L215.891 191.193H222.851L224.369 197.17H231.264L223.513 170.079H215.698L207.785 197.17L214.277 197.204ZM265.82 198C271.52 198 274.846 195.613 274.846 188.23H268.387C268.387 190.414 268.274 193.869 265.852 193.869C263.091 193.869 262.623 192.175 262.623 183.709C262.623 175.023 263.252 173.55 265.658 173.55C267.386 173.55 268.161 174.938 268.161 178.629H274.62C274.862 172.703 271.714 169.452 265.497 169.452C256.244 169.452 255.97 175.632 255.97 183.726C255.97 191.82 255.76 197.881 265.82 197.881V198ZM238.369 197.204V179.019L245.603 197.17H253.435V170.079H247.783V187.57L240.791 170.079H232.846V197.17L238.369 197.204ZM193.446 182.609H194.464C198.323 182.609 199.534 184.302 199.534 187.316C199.534 191.955 195.885 191.989 194.254 191.989H191.864V182.659L193.446 182.609ZM191.832 177.529V169.063H194.69C195.246 169.014 195.807 169.086 196.336 169.274C196.865 169.462 197.352 169.763 197.765 170.156C198.179 170.55 198.511 171.029 198.74 171.564C198.969 172.098 199.091 172.676 199.098 173.262C199.131 173.823 199.05 174.385 198.86 174.911C198.671 175.437 198.377 175.915 197.999 176.313C197.621 176.712 197.166 177.022 196.665 177.222C196.164 177.423 195.629 177.51 195.093 177.478H192.445L191.832 177.529Z" fill="#465EFF"/>
</svg>
