<svg width="592" height="360" viewBox="0 0 592 360" fill="none" xmlns="http://www.w3.org/2000/svg">
<rect width="592" height="360" rx="6" fill="#F4F5F7"/>
<g clip-path="url(#clip0_607_126)">
<path d="M311.31 192.02C312.03 188.595 312.676 185.538 313.313 182.479C315.12 173.812 316.92 165.145 318.712 156.476C318.887 155.624 319.235 155.361 320.088 155.376C323.253 155.43 326.419 155.397 329.584 155.398C331.151 155.398 331.137 155.396 330.792 157.028C329.695 162.222 328.604 167.418 327.519 172.615C326.232 178.758 324.946 184.901 323.662 191.045C322.809 195.149 321.952 199.252 321.157 203.368C320.967 204.354 320.613 204.69 319.578 204.678C314.222 204.613 308.865 204.613 303.509 204.678C302.475 204.69 302.125 204.341 301.909 203.372C300.23 195.825 298.498 188.29 296.79 180.75C295.787 176.322 294.796 171.89 293.746 167.219C293.047 169.044 292.878 170.779 292.506 172.447C291.31 177.81 290.226 183.201 289.111 188.582C288.121 193.363 287.088 198.138 286.202 202.94C285.939 204.361 285.405 204.746 284.017 204.687C281.02 204.559 278.01 204.57 275.011 204.684C273.768 204.732 273.67 204.237 273.878 203.268C274.72 199.35 275.575 195.434 276.39 191.51C278.08 183.371 279.736 175.226 281.43 167.088C282.167 163.545 282.992 160.022 283.711 156.476C283.886 155.61 284.228 155.371 285.077 155.377C290.556 155.417 296.035 155.43 301.513 155.368C302.545 155.356 302.902 155.701 303.115 156.676C304.409 162.58 305.676 168.492 307.118 174.359C308.21 178.799 309.238 183.254 310.289 187.704C310.601 189.017 310.91 190.331 311.31 192.02Z" fill="#226CB4"/>
<path d="M220.868 169.848C218.921 169.848 216.973 169.828 215.026 169.86C214.387 169.87 214.229 169.73 214.322 169.029C214.645 166.59 213.574 164.949 211.23 164.299C208.254 163.473 205.496 163.926 203.2 166.139C200.959 168.3 201.345 171.079 204.071 172.544C206.57 173.887 209.351 174.364 212.056 175.058C214.255 175.622 216.465 176.142 218.561 177.054C224.145 179.483 226.221 183.586 225.08 189.687C223.935 195.809 220.31 199.929 214.96 202.473C207.197 206.166 199.054 206.639 190.861 204.355C183.027 202.171 181.557 196.217 182.61 189.647C182.688 189.165 182.891 188.949 183.407 188.951C187.383 188.969 191.359 188.962 195.335 188.959C195.726 188.959 195.973 188.97 196 189.539C196.238 194.429 198.237 196.311 202.998 196.095C205.009 196.004 206.913 195.464 208.59 194.257C210.212 193.089 211.061 191.522 210.812 189.481C210.593 187.687 209.268 186.855 207.796 186.237C204.825 184.989 201.638 184.5 198.578 183.557C196.716 182.983 194.88 182.353 193.105 181.537C188.993 179.645 186.967 176.35 187.363 171.762C187.964 164.792 191.572 159.822 197.771 157.076C205.123 153.82 212.801 153.512 220.494 155.75C224.228 156.837 227.114 159.087 227.977 163.252C228.385 165.224 228.17 167.191 227.742 169.152C227.594 169.834 227.229 169.856 226.712 169.853C224.763 169.841 222.815 169.848 220.868 169.848Z" fill="#226CB4"/>
<path d="M247.888 204.598C242.086 204.598 236.284 204.581 230.482 204.616C229.622 204.621 229.488 204.39 229.662 203.563C232.966 187.862 236.245 172.156 239.499 156.444C239.679 155.573 240.03 155.434 240.785 155.436C252.308 155.455 263.831 155.454 275.354 155.432C276.226 155.43 276.475 155.608 276.259 156.53C275.691 158.938 275.153 161.357 274.733 163.794C274.567 164.759 274.181 164.959 273.305 164.955C266.326 164.923 259.347 164.962 252.369 164.91C251.354 164.902 250.965 165.189 250.784 166.201C250.311 168.84 249.765 171.467 249.161 174.079C248.953 174.977 249.213 175.113 250.008 175.111C256.419 175.087 262.831 175.128 269.24 175.068C270.347 175.058 270.483 175.352 270.249 176.357C269.688 178.766 269.188 181.19 268.749 183.628C268.586 184.528 268.175 184.694 267.36 184.69C260.99 184.658 254.619 184.702 248.25 184.643C247.22 184.634 246.858 184.959 246.678 185.947C246.189 188.625 245.652 191.297 245.025 193.944C244.778 194.988 245.111 195.112 246.002 195.108C252.94 195.081 259.878 195.116 266.816 195.069C267.916 195.061 268.221 195.274 267.934 196.433C267.348 198.793 266.857 201.181 266.431 203.576C266.281 204.417 265.965 204.62 265.173 204.615C259.411 204.583 253.65 204.598 247.888 204.598Z" fill="#226CB4"/>
<path d="M391.926 204.598C390.019 204.598 388.107 204.523 386.205 204.626C385.086 204.687 385.302 204.12 385.44 203.46C386.84 196.756 388.239 190.051 389.636 183.345C391.482 174.499 393.345 165.657 395.155 156.804C395.359 155.807 395.647 155.39 396.753 155.416C400.445 155.503 404.14 155.472 407.833 155.432C408.665 155.423 408.799 155.6 408.62 156.452C405.322 172.16 402.052 187.874 398.81 203.594C398.644 204.394 398.327 204.648 397.526 204.619C395.662 204.553 393.792 204.598 391.926 204.598Z" fill="#226CB4"/>
<path d="M379.949 203.547C377.128 187.867 374.33 172.183 371.557 156.494C371.413 155.679 371.133 155.423 370.317 155.429C365.61 155.47 360.902 155.468 356.195 155.425C355.298 155.415 354.849 155.735 354.4 156.494C347.609 167.95 340.798 179.394 333.967 190.825C331.277 195.339 328.586 199.853 325.757 204.597C330.166 204.597 334.338 204.58 338.511 204.614C339.165 204.62 339.319 204.199 339.546 203.775C340.964 201.129 342.396 198.492 343.783 195.829C344.107 195.206 344.473 194.95 345.194 194.955C351.037 194.988 356.881 194.987 362.725 194.951C363.618 194.945 363.913 195.23 364.005 196.11C364.267 198.616 364.662 201.108 364.906 203.615C364.986 204.433 365.259 204.619 366.011 204.613C370.394 204.581 374.777 204.573 379.159 204.617C380.066 204.628 380.09 204.331 379.949 203.547ZM361.969 185.478C357.929 185.482 353.889 185.479 349.635 185.479C353.289 178.576 356.848 171.852 360.408 165.128L360.659 165.19C360.869 167.36 361.087 169.529 361.289 171.699C361.682 175.935 362.068 180.17 362.445 184.407C362.478 184.808 362.862 185.477 361.969 185.478Z" fill="#226CB4"/>
</g>
<defs>
<clipPath id="clip0_607_126">
<rect width="226.382" height="51.4359" fill="white" transform="translate(182.308 154.308)"/>
</clipPath>
</defs>
</svg>
