<svg width="592" height="360" viewBox="0 0 592 360" fill="none" xmlns="http://www.w3.org/2000/svg">
<rect width="592" height="360" rx="6" fill="#2A2A37"/>
<path d="M299.14 232.9C303.978 230.949 306.322 225.435 304.377 220.584C302.431 215.733 296.932 213.383 292.094 215.334C287.256 217.285 284.911 222.798 286.857 227.649C288.803 232.5 294.302 234.851 299.14 232.9Z" fill="#FF6900"/>
<path d="M279.656 191.056C276.29 188.587 273.557 185.354 271.679 181.621C269.801 177.889 268.833 173.765 268.854 169.585C268.856 165.024 270.026 160.54 272.251 156.561C274.476 152.582 277.682 149.241 281.563 146.857C285.443 144.473 289.87 143.125 294.418 142.942C298.967 142.76 303.487 143.748 307.546 145.814C311.605 147.879 315.067 150.953 317.603 154.741C320.138 158.529 321.662 162.905 322.029 167.451C322.396 171.997 321.593 176.561 319.698 180.708C317.803 184.854 314.878 188.445 311.203 191.137V191.137C309.329 192.676 308.116 194.879 307.818 197.288C307.519 199.698 308.156 202.13 309.598 204.082C311.039 206.034 313.175 207.356 315.563 207.774C317.95 208.193 320.407 207.675 322.424 206.329C330.133 200.66 335.864 192.701 338.801 183.583C341.738 174.465 341.733 164.652 338.786 155.538C335.839 146.423 330.101 138.47 322.386 132.809C314.67 127.148 305.371 124.066 295.807 124.001C286.244 123.936 276.904 126.892 269.113 132.448C261.322 138.005 255.477 145.879 252.407 154.953C249.338 164.027 249.2 173.839 252.014 182.996C254.828 192.152 260.451 200.188 268.083 205.961L268.204 206.053C269.187 206.808 270.309 207.36 271.505 207.68C272.702 208 273.949 208.081 275.177 207.918C276.405 207.755 277.588 207.351 278.66 206.73C279.732 206.109 280.671 205.282 281.424 204.297C282.177 203.312 282.729 202.188 283.048 200.989C283.367 199.791 283.448 198.541 283.285 197.311C283.122 196.081 282.719 194.895 282.099 193.822C281.479 192.748 280.654 191.807 279.671 191.053" fill="#FF6900"/>
</svg>
