<svg width="592" height="361" viewBox="0 0 592 361" fill="none" xmlns="http://www.w3.org/2000/svg">
<rect width="592" height="360" rx="6" fill="#2A2A37"/>
<path d="M299.14 232.9C303.978 230.949 306.322 225.435 304.377 220.584C302.431 215.733 296.932 213.383 292.094 215.334C287.256 217.285 284.911 222.798 286.857 227.649C288.803 232.5 294.302 234.851 299.14 232.9Z" fill="#FF6900"/>
<path d="M279.656 191.056C276.29 188.587 273.557 185.354 271.679 181.621C269.801 177.889 268.833 173.765 268.854 169.585C268.856 165.024 270.026 160.54 272.251 156.561C274.476 152.582 277.682 149.241 281.563 146.857C285.443 144.473 289.87 143.125 294.418 142.942C298.967 142.76 303.487 143.748 307.546 145.814C311.605 147.879 315.067 150.953 317.603 154.741C320.138 158.529 321.662 162.905 322.029 167.451C322.396 171.997 321.593 176.561 319.698 180.708C317.803 184.854 314.878 188.445 311.203 191.137C309.329 192.676 308.116 194.879 307.818 197.288C307.519 199.698 308.156 202.13 309.598 204.082C311.039 206.034 313.175 207.356 315.563 207.774C317.95 208.193 320.407 207.675 322.424 206.329C330.133 200.66 335.864 192.701 338.801 183.583C341.738 174.465 341.733 164.652 338.786 155.538C335.839 146.423 330.101 138.47 322.386 132.809C314.67 127.148 305.371 124.066 295.807 124.001C286.244 123.936 276.904 126.892 269.113 132.448C261.322 138.005 255.477 145.879 252.407 154.953C249.338 164.027 249.2 173.839 252.014 182.996C254.828 192.152 260.451 200.188 268.083 205.961L268.204 206.053C269.187 206.808 270.309 207.36 271.505 207.68C272.702 208 273.949 208.081 275.177 207.918C276.405 207.755 277.588 207.351 278.66 206.73C279.732 206.109 280.671 205.282 281.424 204.297C282.177 203.312 282.729 202.188 283.048 200.989C283.367 199.791 283.448 198.541 283.285 197.311C283.122 196.081 282.719 194.895 282.099 193.822C281.479 192.748 280.654 191.807 279.671 191.053" fill="#FF6900"/>
<rect width="592" height="361" rx="6" fill="#2A2A37"/>
<path d="M102.316 180.288C103.636 179.64 104.572 178.368 104.572 176.544C104.572 173.832 102.412 172.2 98.5482 172.2H91.0122V189H99.0282C103.276 189 105.46 187.344 105.46 184.464C105.46 182.232 104.212 180.816 102.316 180.288ZM98.3322 174.144C100.78 174.144 102.172 175.056 102.172 176.832C102.172 178.608 100.78 179.52 98.3322 179.52H93.4122V174.144H98.3322ZM98.9322 187.056H93.4122V181.464H98.9322C101.596 181.464 103.036 182.328 103.036 184.272C103.036 186.216 101.596 187.056 98.9322 187.056ZM111.048 178.416V176.28H108.84V189H111.144V182.664C111.144 179.88 112.68 178.368 115.152 178.368C115.32 178.368 115.488 178.368 115.68 178.392V176.16C113.448 176.16 111.864 176.928 111.048 178.416ZM123.129 176.16C121.089 176.16 119.193 176.736 117.873 177.792L118.833 179.52C119.817 178.68 121.353 178.152 122.865 178.152C125.145 178.152 126.273 179.28 126.273 181.224V181.68H122.625C118.833 181.68 117.513 183.36 117.513 185.4C117.513 187.608 119.337 189.144 122.217 189.144C124.209 189.144 125.625 188.472 126.393 187.32V189H128.577V181.32C128.577 177.84 126.609 176.16 123.129 176.16ZM122.601 187.368C120.849 187.368 119.793 186.576 119.793 185.304C119.793 184.224 120.441 183.336 122.721 183.336H126.273V185.112C125.697 186.576 124.329 187.368 122.601 187.368ZM139.632 176.16C137.616 176.16 135.984 176.904 135.048 178.2V176.28H132.84V189H135.144V182.448C135.144 179.688 136.728 178.224 139.176 178.224C141.36 178.224 142.608 179.448 142.608 181.944V189H144.912V181.68C144.912 177.936 142.728 176.16 139.632 176.16ZM158.943 171.192V178.2C157.887 176.832 156.303 176.16 154.503 176.16C150.783 176.16 148.071 178.752 148.071 182.64C148.071 186.528 150.783 189.144 154.503 189.144C156.375 189.144 158.007 188.424 159.039 186.984V189H161.247V171.192H158.943ZM154.695 187.128C152.247 187.128 150.399 185.352 150.399 182.64C150.399 179.928 152.247 178.176 154.695 178.176C157.119 178.176 158.967 179.928 158.967 182.64C158.967 185.352 157.119 187.128 154.695 187.128ZM166.758 173.832C167.67 173.832 168.318 173.16 168.318 172.296C168.318 171.48 167.646 170.832 166.758 170.832C165.87 170.832 165.198 171.504 165.198 172.344C165.198 173.184 165.87 173.832 166.758 173.832ZM165.606 189H167.91V176.28H165.606V189ZM179.101 176.16C177.085 176.16 175.453 176.904 174.517 178.2V176.28H172.309V189H174.613V182.448C174.613 179.688 176.197 178.224 178.645 178.224C180.829 178.224 182.077 179.448 182.077 181.944V189H184.381V181.68C184.381 177.936 182.197 176.16 179.101 176.16ZM198.699 176.28V178.248C197.619 176.856 195.891 176.16 193.995 176.16C190.323 176.16 187.539 178.632 187.539 182.304C187.539 185.976 190.323 188.472 193.995 188.472C195.819 188.472 197.475 187.824 198.579 186.504V187.512C198.579 190.392 197.211 191.784 194.211 191.784C192.339 191.784 190.491 191.136 189.315 190.128L188.211 191.904C189.603 193.152 191.955 193.8 194.283 193.8C198.603 193.8 200.883 191.76 200.883 187.272V176.28H198.699ZM194.259 186.456C191.691 186.456 189.867 184.752 189.867 182.304C189.867 179.832 191.691 178.176 194.259 178.176C196.803 178.176 198.627 179.832 198.627 182.304C198.627 184.752 196.803 186.456 194.259 186.456ZM205.862 185.856C204.95 185.856 204.254 186.528 204.254 187.488C204.254 188.208 204.662 188.76 205.262 188.976L204.374 192.552H205.886L207.014 189.216C207.326 188.328 207.422 187.968 207.422 187.488C207.422 186.552 206.774 185.856 205.862 185.856ZM231.352 189L227.368 183.36C229.72 182.52 231.064 180.648 231.064 178.056C231.064 174.408 228.424 172.2 224.056 172.2H217.504V189H219.904V183.888H224.056C224.416 183.888 224.776 183.864 225.112 183.84L228.736 189H231.352ZM223.984 181.848H219.904V174.288H223.984C227.056 174.288 228.664 175.656 228.664 178.056C228.664 180.456 227.056 181.848 223.984 181.848ZM246.102 182.712C246.102 178.8 243.486 176.16 239.814 176.16C236.142 176.16 233.43 178.872 233.43 182.64C233.43 186.432 236.166 189.144 240.27 189.144C242.382 189.144 244.134 188.424 245.286 187.08L244.014 185.592C243.078 186.624 241.83 187.128 240.342 187.128C237.822 187.128 236.022 185.64 235.734 183.408H246.054C246.078 183.192 246.102 182.904 246.102 182.712ZM239.814 178.104C242.046 178.104 243.654 179.616 243.894 181.752H235.734C235.974 179.592 237.606 178.104 239.814 178.104ZM252.949 189.144C256.333 189.144 258.445 187.68 258.445 185.376C258.445 180.432 250.381 182.88 250.381 179.88C250.381 178.872 251.365 178.128 253.381 178.128C254.629 178.128 255.901 178.392 257.053 179.136L258.037 177.312C256.933 176.592 255.061 176.16 253.405 176.16C250.141 176.16 248.101 177.696 248.101 179.976C248.101 185.04 256.141 182.568 256.141 185.424C256.141 186.504 255.253 187.152 253.117 187.152C251.461 187.152 249.733 186.6 248.653 185.832L247.693 187.656C248.749 188.496 250.837 189.144 252.949 189.144ZM272.821 182.712C272.821 178.8 270.205 176.16 266.533 176.16C262.861 176.16 260.149 178.872 260.149 182.64C260.149 186.432 262.885 189.144 266.989 189.144C269.101 189.144 270.853 188.424 272.005 187.08L270.733 185.592C269.797 186.624 268.549 187.128 267.061 187.128C264.541 187.128 262.741 185.64 262.453 183.408H272.773C272.797 183.192 272.821 182.904 272.821 182.712ZM266.533 178.104C268.765 178.104 270.373 179.616 270.613 181.752H262.453C262.693 179.592 264.325 178.104 266.533 178.104ZM280.3 176.16C278.26 176.16 276.364 176.736 275.044 177.792L276.004 179.52C276.988 178.68 278.524 178.152 280.036 178.152C282.316 178.152 283.444 179.28 283.444 181.224V181.68H279.796C276.004 181.68 274.684 183.36 274.684 185.4C274.684 187.608 276.508 189.144 279.388 189.144C281.38 189.144 282.796 188.472 283.564 187.32V189H285.748V181.32C285.748 177.84 283.78 176.16 280.3 176.16ZM279.772 187.368C278.02 187.368 276.964 186.576 276.964 185.304C276.964 184.224 277.612 183.336 279.892 183.336H283.444V185.112C282.868 186.576 281.5 187.368 279.772 187.368ZM292.22 178.416V176.28H290.012V189H292.316V182.664C292.316 179.88 293.852 178.368 296.324 178.368C296.492 178.368 296.66 178.368 296.852 178.392V176.16C294.62 176.16 293.036 176.928 292.22 178.416ZM305.119 189.144C307.399 189.144 309.295 188.184 310.303 186.408L308.551 185.304C307.735 186.552 306.487 187.128 305.095 187.128C302.599 187.128 300.727 185.4 300.727 182.64C300.727 179.928 302.599 178.176 305.095 178.176C306.487 178.176 307.735 178.752 308.551 180L310.303 178.872C309.295 177.096 307.399 176.16 305.119 176.16C301.207 176.16 298.399 178.848 298.399 182.64C298.399 186.432 301.207 189.144 305.119 189.144ZM319.914 176.16C317.97 176.16 316.386 176.856 315.426 178.08V171.192H313.122V189H315.426V182.448C315.426 179.688 317.01 178.224 319.458 178.224C321.642 178.224 322.89 179.448 322.89 181.944V189H325.194V181.68C325.194 177.936 323.01 176.16 319.914 176.16ZM330.033 185.856C329.121 185.856 328.425 186.528 328.425 187.488C328.425 188.208 328.833 188.76 329.433 188.976L328.545 192.552H330.057L331.185 189.216C331.497 188.328 331.593 187.968 331.593 187.488C331.593 186.552 330.945 185.856 330.033 185.856ZM348.636 189.192C353.076 189.192 355.74 186.624 355.74 181.752V172.2H353.412V181.656C353.412 185.376 351.684 187.056 348.66 187.056C345.636 187.056 343.932 185.376 343.932 181.656V172.2H341.532V181.752C341.532 186.624 344.22 189.192 348.636 189.192ZM360.661 189H363.061V172.2H360.661V189ZM364.898 191.4H366.986L374.906 168.792H372.818L364.898 191.4ZM383.488 189.192C387.928 189.192 390.592 186.624 390.592 181.752V172.2H388.264V181.656C388.264 185.376 386.536 187.056 383.512 187.056C380.488 187.056 378.784 185.376 378.784 181.656V172.2H376.384V181.752C376.384 186.624 379.072 189.192 383.488 189.192ZM408.598 189L402.238 180.312L408.166 172.2H405.55L400.894 178.656L396.19 172.2H393.454L399.382 180.384L393.07 189H395.83L400.798 182.064L405.838 189H408.598ZM417.872 189H424.952C430.352 189 434.024 185.592 434.024 180.6C434.024 175.608 430.352 172.2 424.952 172.2H417.872V189ZM420.272 186.912V174.288H424.808C428.96 174.288 431.624 176.832 431.624 180.6C431.624 184.368 428.96 186.912 424.808 186.912H420.272ZM448.86 182.712C448.86 178.8 446.244 176.16 442.572 176.16C438.9 176.16 436.188 178.872 436.188 182.64C436.188 186.432 438.924 189.144 443.028 189.144C445.14 189.144 446.892 188.424 448.044 187.08L446.772 185.592C445.836 186.624 444.588 187.128 443.1 187.128C440.58 187.128 438.78 185.64 438.492 183.408H448.812C448.836 183.192 448.86 182.904 448.86 182.712ZM442.572 178.104C444.804 178.104 446.412 179.616 446.652 181.752H438.492C438.732 179.592 440.364 178.104 442.572 178.104ZM455.707 189.144C459.091 189.144 461.203 187.68 461.203 185.376C461.203 180.432 453.139 182.88 453.139 179.88C453.139 178.872 454.123 178.128 456.139 178.128C457.387 178.128 458.659 178.392 459.811 179.136L460.795 177.312C459.691 176.592 457.819 176.16 456.163 176.16C452.899 176.16 450.859 177.696 450.859 179.976C450.859 185.04 458.899 182.568 458.899 185.424C458.899 186.504 458.011 187.152 455.875 187.152C454.219 187.152 452.491 186.6 451.411 185.832L450.451 187.656C451.507 188.496 453.595 189.144 455.707 189.144ZM465.234 173.832C466.146 173.832 466.794 173.16 466.794 172.296C466.794 171.48 466.122 170.832 465.234 170.832C464.346 170.832 463.674 171.504 463.674 172.344C463.674 173.184 464.346 173.832 465.234 173.832ZM464.082 189H466.386V176.28H464.082V189ZM480.77 176.28V178.248C479.69 176.856 477.962 176.16 476.066 176.16C472.394 176.16 469.61 178.632 469.61 182.304C469.61 185.976 472.394 188.472 476.066 188.472C477.89 188.472 479.546 187.824 480.65 186.504V187.512C480.65 190.392 479.282 191.784 476.282 191.784C474.41 191.784 472.562 191.136 471.386 190.128L470.282 191.904C471.674 193.152 474.026 193.8 476.354 193.8C480.674 193.8 482.954 191.76 482.954 187.272V176.28H480.77ZM476.33 186.456C473.762 186.456 471.938 184.752 471.938 182.304C471.938 179.832 473.762 178.176 476.33 178.176C478.874 178.176 480.698 179.832 480.698 182.304C480.698 184.752 478.874 186.456 476.33 186.456ZM494.148 176.16C492.132 176.16 490.5 176.904 489.564 178.2V176.28H487.356V189H489.66V182.448C489.66 179.688 491.244 178.224 493.692 178.224C495.876 178.224 497.124 179.448 497.124 181.944V189H499.428V181.68C499.428 177.936 497.244 176.16 494.148 176.16ZM82.5305 225.656H84.7145C82.7705 222.248 81.9305 218.624 81.9305 214.424C81.9305 210.224 82.7705 206.6 84.7145 203.192H82.5305C80.7065 206.048 79.6745 210.008 79.6745 214.424C79.6745 218.84 80.7065 222.752 82.5305 225.656ZM92.8965 221.192C97.3365 221.192 99.4005 218.984 99.4005 216.416C99.4005 210.248 89.2245 212.816 89.2245 208.712C89.2245 207.248 90.4485 206.048 93.3045 206.048C94.7925 206.048 96.4485 206.48 97.9125 207.416L98.7045 205.496C97.3125 204.536 95.2725 204.008 93.3045 204.008C88.8885 204.008 86.8725 206.216 86.8725 208.808C86.8725 215.048 97.0485 212.456 97.0485 216.56C97.0485 218.024 95.8005 219.152 92.8965 219.152C90.7365 219.152 88.6005 218.336 87.3525 217.208L86.4645 219.08C87.8085 220.328 90.3285 221.192 92.8965 221.192ZM103.723 205.832C104.635 205.832 105.283 205.16 105.283 204.296C105.283 203.48 104.611 202.832 103.723 202.832C102.835 202.832 102.163 203.504 102.163 204.344C102.163 205.184 102.835 205.832 103.723 205.832ZM102.571 221H104.875V208.28H102.571V221ZM115.706 218.6C115.226 218.984 114.578 219.2 113.906 219.2C112.634 219.2 111.914 218.432 111.914 217.064V210.176H115.562V208.28H111.914V205.496H109.61V208.28H107.45V210.176H109.61V217.16C109.61 219.728 111.074 221.144 113.642 221.144C114.674 221.144 115.73 220.856 116.426 220.256L115.706 218.6ZM130.285 214.712C130.285 210.8 127.669 208.16 123.997 208.16C120.325 208.16 117.613 210.872 117.613 214.64C117.613 218.432 120.349 221.144 124.453 221.144C126.565 221.144 128.317 220.424 129.469 219.08L128.197 217.592C127.261 218.624 126.013 219.128 124.525 219.128C122.005 219.128 120.205 217.64 119.917 215.408H130.237C130.261 215.192 130.285 214.904 130.285 214.712ZM123.997 210.104C126.229 210.104 127.837 211.616 128.077 213.752H119.917C120.157 211.592 121.789 210.104 123.997 210.104ZM134.061 217.856C133.149 217.856 132.453 218.528 132.453 219.488C132.453 220.208 132.861 220.76 133.461 220.976L132.573 224.552H134.085L135.213 221.216C135.525 220.328 135.621 219.968 135.621 219.488C135.621 218.552 134.973 217.856 134.061 217.856ZM157.896 204.2L151.8 218L145.752 204.2H143.16L150.552 221H152.928L160.296 204.2H157.896ZM163.277 205.832C164.189 205.832 164.837 205.16 164.837 204.296C164.837 203.48 164.165 202.832 163.277 202.832C162.389 202.832 161.717 203.504 161.717 204.344C161.717 205.184 162.389 205.832 163.277 205.832ZM162.125 221H164.429V208.28H162.125V221ZM171.037 210.416V208.28H168.829V221H171.133V214.664C171.133 211.88 172.669 210.368 175.141 210.368C175.309 210.368 175.477 210.368 175.669 210.392V208.16C173.437 208.16 171.853 208.928 171.037 210.416ZM185.456 218.6C184.976 218.984 184.328 219.2 183.656 219.2C182.384 219.2 181.664 218.432 181.664 217.064V210.176H185.312V208.28H181.664V205.496H179.36V208.28H177.2V210.176H179.36V217.16C179.36 219.728 180.824 221.144 183.392 221.144C184.424 221.144 185.48 220.856 186.176 220.256L185.456 218.6ZM198.513 208.28V214.856C198.513 217.592 196.977 219.08 194.577 219.08C192.393 219.08 191.145 217.832 191.145 215.336V208.28H188.841V215.6C188.841 219.344 191.025 221.144 194.313 221.144C196.113 221.144 197.697 220.4 198.633 219.08V221H200.817V208.28H198.513ZM209.836 208.16C207.796 208.16 205.9 208.736 204.58 209.792L205.54 211.52C206.524 210.68 208.06 210.152 209.572 210.152C211.852 210.152 212.98 211.28 212.98 213.224V213.68H209.332C205.54 213.68 204.22 215.36 204.22 217.4C204.22 219.608 206.044 221.144 208.924 221.144C210.916 221.144 212.332 220.472 213.1 219.32V221H215.284V213.32C215.284 209.84 213.316 208.16 209.836 208.16ZM209.308 219.368C207.556 219.368 206.5 218.576 206.5 217.304C206.5 216.224 207.148 215.336 209.428 215.336H212.98V217.112C212.404 218.576 211.036 219.368 209.308 219.368ZM219.547 221H221.851V203.192H219.547V221ZM237.928 221.192C242.368 221.192 244.432 218.984 244.432 216.416C244.432 210.248 234.256 212.816 234.256 208.712C234.256 207.248 235.48 206.048 238.336 206.048C239.824 206.048 241.48 206.48 242.944 207.416L243.736 205.496C242.344 204.536 240.304 204.008 238.336 204.008C233.92 204.008 231.904 206.216 231.904 208.808C231.904 215.048 242.08 212.456 242.08 216.56C242.08 218.024 240.832 219.152 237.928 219.152C235.768 219.152 233.632 218.336 232.384 217.208L231.496 219.08C232.84 220.328 235.36 221.192 237.928 221.192ZM254.034 218.6C253.554 218.984 252.906 219.2 252.234 219.2C250.962 219.2 250.242 218.432 250.242 217.064V210.176H253.89V208.28H250.242V205.496H247.938V208.28H245.778V210.176H247.938V217.16C247.938 219.728 249.402 221.144 251.97 221.144C253.002 221.144 254.058 220.856 254.754 220.256L254.034 218.6ZM262.566 221.144C266.382 221.144 269.166 218.432 269.166 214.64C269.166 210.848 266.382 208.16 262.566 208.16C258.75 208.16 255.942 210.848 255.942 214.64C255.942 218.432 258.75 221.144 262.566 221.144ZM262.566 219.128C260.118 219.128 258.27 217.352 258.27 214.64C258.27 211.928 260.118 210.176 262.566 210.176C265.014 210.176 266.838 211.928 266.838 214.64C266.838 217.352 265.014 219.128 262.566 219.128ZM274.56 210.416V208.28H272.352V221H274.656V214.664C274.656 211.88 276.192 210.368 278.664 210.368C278.832 210.368 279 210.368 279.192 210.392V208.16C276.96 208.16 275.376 208.928 274.56 210.416ZM293.41 214.712C293.41 210.8 290.794 208.16 287.122 208.16C283.45 208.16 280.738 210.872 280.738 214.64C280.738 218.432 283.474 221.144 287.578 221.144C289.69 221.144 291.442 220.424 292.594 219.08L291.322 217.592C290.386 218.624 289.138 219.128 287.65 219.128C285.13 219.128 283.33 217.64 283.042 215.408H293.362C293.386 215.192 293.41 214.904 293.41 214.712ZM287.122 210.104C289.354 210.104 290.962 211.616 291.202 213.752H283.042C283.282 211.592 284.914 210.104 287.122 210.104ZM297.186 217.856C296.274 217.856 295.578 218.528 295.578 219.488C295.578 220.208 295.986 220.76 296.586 220.976L295.698 224.552H297.21L298.338 221.216C298.65 220.328 298.746 219.968 298.746 219.488C298.746 218.552 298.098 217.856 297.186 217.856ZM320.133 212.288C321.453 211.64 322.389 210.368 322.389 208.544C322.389 205.832 320.229 204.2 316.365 204.2H308.829V221H316.845C321.093 221 323.277 219.344 323.277 216.464C323.277 214.232 322.029 212.816 320.133 212.288ZM316.149 206.144C318.597 206.144 319.989 207.056 319.989 208.832C319.989 210.608 318.597 211.52 316.149 211.52H311.229V206.144H316.149ZM316.749 219.056H311.229V213.464H316.749C319.413 213.464 320.853 214.328 320.853 216.272C320.853 218.216 319.413 219.056 316.749 219.056ZM326.657 221H328.961V203.192H326.657V221ZM338.808 221.144C342.624 221.144 345.408 218.432 345.408 214.64C345.408 210.848 342.624 208.16 338.808 208.16C334.992 208.16 332.184 210.848 332.184 214.64C332.184 218.432 334.992 221.144 338.808 221.144ZM338.808 219.128C336.36 219.128 334.512 217.352 334.512 214.64C334.512 211.928 336.36 210.176 338.808 210.176C341.256 210.176 343.08 211.928 343.08 214.64C343.08 217.352 341.256 219.128 338.808 219.128ZM358.578 208.28V210.248C357.498 208.856 355.77 208.16 353.874 208.16C350.202 208.16 347.418 210.632 347.418 214.304C347.418 217.976 350.202 220.472 353.874 220.472C355.698 220.472 357.354 219.824 358.458 218.504V219.512C358.458 222.392 357.09 223.784 354.09 223.784C352.218 223.784 350.37 223.136 349.194 222.128L348.09 223.904C349.482 225.152 351.834 225.8 354.162 225.8C358.482 225.8 360.762 223.76 360.762 219.272V208.28H358.578ZM354.138 218.456C351.57 218.456 349.746 216.752 349.746 214.304C349.746 211.832 351.57 210.176 354.138 210.176C356.682 210.176 358.506 211.832 358.506 214.304C358.506 216.752 356.682 218.456 354.138 218.456ZM376.242 208.16C374.202 208.16 372.306 208.736 370.986 209.792L371.946 211.52C372.93 210.68 374.466 210.152 375.978 210.152C378.258 210.152 379.386 211.28 379.386 213.224V213.68H375.738C371.946 213.68 370.626 215.36 370.626 217.4C370.626 219.608 372.45 221.144 375.33 221.144C377.322 221.144 378.738 220.472 379.506 219.32V221H381.69V213.32C381.69 209.84 379.722 208.16 376.242 208.16ZM375.714 219.368C373.962 219.368 372.906 218.576 372.906 217.304C372.906 216.224 373.554 215.336 375.834 215.336H379.386V217.112C378.81 218.576 377.442 219.368 375.714 219.368ZM392.746 208.16C390.73 208.16 389.098 208.904 388.162 210.2V208.28H385.954V221H388.258V214.448C388.258 211.688 389.842 210.224 392.29 210.224C394.474 210.224 395.722 211.448 395.722 213.944V221H398.026V213.68C398.026 209.936 395.842 208.16 392.746 208.16ZM412.056 203.192V210.2C411 208.832 409.416 208.16 407.616 208.16C403.896 208.16 401.184 210.752 401.184 214.64C401.184 218.528 403.896 221.144 407.616 221.144C409.488 221.144 411.12 220.424 412.152 218.984V221H414.36V203.192H412.056ZM407.808 219.128C405.36 219.128 403.512 217.352 403.512 214.64C403.512 211.928 405.36 210.176 407.808 210.176C410.232 210.176 412.08 211.928 412.08 214.64C412.08 217.352 410.232 219.128 407.808 219.128ZM437.356 206.288V204.2H425.5V221H427.9V214.208H436.324V212.144H427.9V206.288H437.356ZM445.448 221.144C449.264 221.144 452.048 218.432 452.048 214.64C452.048 210.848 449.264 208.16 445.448 208.16C441.632 208.16 438.824 210.848 438.824 214.64C438.824 218.432 441.632 221.144 445.448 221.144ZM445.448 219.128C443 219.128 441.152 217.352 441.152 214.64C441.152 211.928 443 210.176 445.448 210.176C447.896 210.176 449.72 211.928 449.72 214.64C449.72 217.352 447.896 219.128 445.448 219.128ZM457.443 210.416V208.28H455.235V221H457.539V214.664C457.539 211.88 459.075 210.368 461.547 210.368C461.715 210.368 461.883 210.368 462.075 210.392V208.16C459.843 208.16 458.259 208.928 457.443 210.416ZM474.631 208.28V214.856C474.631 217.592 473.095 219.08 470.695 219.08C468.511 219.08 467.263 217.832 467.263 215.336V208.28H464.959V215.6C464.959 219.344 467.143 221.144 470.431 221.144C472.231 221.144 473.815 220.4 474.751 219.08V221H476.935V208.28H474.631ZM497.233 208.16C495.073 208.16 493.297 209.072 492.337 210.512C491.497 208.928 489.865 208.16 487.921 208.16C486.001 208.16 484.441 208.88 483.529 210.176V208.28H481.321V221H483.625V214.448C483.625 211.688 485.137 210.224 487.441 210.224C489.529 210.224 490.729 211.448 490.729 213.944V221H493.033V214.448C493.033 211.688 494.545 210.224 496.849 210.224C498.937 210.224 500.137 211.448 500.137 213.944V221H502.441V213.68C502.441 209.936 500.329 208.16 497.233 208.16ZM507.448 225.656C509.296 222.752 510.328 218.84 510.328 214.424C510.328 210.008 509.296 206.048 507.448 203.192H505.264C507.208 206.6 508.072 210.224 508.072 214.424C508.072 218.624 507.208 222.248 505.264 225.656H507.448Z" fill="white"/>
<path d="M211.186 141L211.138 124.2H207.946L201.754 134.64L195.466 124.2H192.25V141H195.898V131.136L200.818 139.224H202.57L207.514 130.92L207.538 141H211.186ZM221.052 141.192C225.156 141.192 228.132 138.432 228.132 134.544C228.132 130.656 225.156 127.896 221.052 127.896C216.948 127.896 213.948 130.656 213.948 134.544C213.948 138.432 216.948 141.192 221.052 141.192ZM221.052 138.12C219.18 138.12 217.74 136.776 217.74 134.544C217.74 132.312 219.18 130.968 221.052 130.968C222.924 130.968 224.34 132.312 224.34 134.544C224.34 136.776 222.924 138.12 221.052 138.12ZM238.482 127.896C236.73 127.896 235.218 128.496 234.21 129.6V128.088H230.634V141H234.378V134.616C234.378 132.24 235.674 131.136 237.474 131.136C239.13 131.136 240.09 132.096 240.09 134.184V141H243.834V133.608C243.834 129.672 241.53 127.896 238.482 127.896ZM254.548 137.736C254.14 138.048 253.588 138.216 253.036 138.216C252.028 138.216 251.428 137.616 251.428 136.512V131.256H254.644V128.376H251.428V125.232H247.684V128.376H245.692V131.256H247.684V136.56C247.684 139.632 249.46 141.192 252.508 141.192C253.66 141.192 254.788 140.928 255.556 140.376L254.548 137.736ZM269.907 134.592C269.907 130.44 266.979 127.896 263.187 127.896C259.251 127.896 256.299 130.68 256.299 134.544C256.299 138.384 259.203 141.192 263.667 141.192C265.995 141.192 267.795 140.472 268.995 139.104L267.003 136.944C266.115 137.784 265.131 138.192 263.763 138.192C261.795 138.192 260.427 137.208 260.067 135.6H269.835C269.859 135.288 269.907 134.88 269.907 134.592ZM263.211 130.728C264.891 130.728 266.115 131.784 266.379 133.416H260.019C260.283 131.76 261.507 130.728 263.211 130.728ZM283.541 141.192C287.405 141.192 289.637 139.488 289.637 137.088C289.637 132 281.837 134.136 281.837 131.928C281.837 131.256 282.557 130.728 284.237 130.728C285.413 130.728 286.685 130.968 287.957 131.688L289.205 129.024C287.981 128.304 286.013 127.896 284.237 127.896C280.469 127.896 278.261 129.624 278.261 132.072C278.261 137.232 286.061 135.072 286.061 137.184C286.061 137.904 285.413 138.36 283.685 138.36C282.101 138.36 280.349 137.856 279.197 137.112L277.949 139.8C279.149 140.592 281.357 141.192 283.541 141.192ZM304.595 134.592C304.595 130.44 301.667 127.896 297.875 127.896C293.939 127.896 290.987 130.68 290.987 134.544C290.987 138.384 293.891 141.192 298.355 141.192C300.683 141.192 302.483 140.472 303.683 139.104L301.691 136.944C300.803 137.784 299.819 138.192 298.451 138.192C296.483 138.192 295.115 137.208 294.755 135.6H304.523C304.547 135.288 304.595 134.88 304.595 134.592ZM297.899 130.728C299.579 130.728 300.803 131.784 301.067 133.416H294.707C294.971 131.76 296.195 130.728 297.899 130.728ZM316.351 128.088V134.472C316.351 136.848 315.103 137.952 313.375 137.952C311.719 137.952 310.759 136.992 310.759 134.832V128.088H307.015V135.384C307.015 139.368 309.295 141.192 312.535 141.192C314.119 141.192 315.559 140.592 316.543 139.464V141H320.095V128.088H316.351ZM337.897 124.2H330.625V141H334.513V136.368H337.897C342.385 136.368 345.193 134.04 345.193 130.296C345.193 126.528 342.385 124.2 337.897 124.2ZM337.681 133.2H334.513V127.368H337.681C340.057 127.368 341.257 128.448 341.257 130.296C341.257 132.12 340.057 133.2 337.681 133.2ZM360.329 134.592C360.329 130.44 357.401 127.896 353.609 127.896C349.673 127.896 346.721 130.68 346.721 134.544C346.721 138.384 349.625 141.192 354.089 141.192C356.417 141.192 358.217 140.472 359.417 139.104L357.425 136.944C356.537 137.784 355.553 138.192 354.185 138.192C352.217 138.192 350.849 137.208 350.489 135.6H360.257C360.281 135.288 360.329 134.88 360.329 134.592ZM353.633 130.728C355.313 130.728 356.537 131.784 356.801 133.416H350.441C350.705 131.76 351.929 130.728 353.633 130.728ZM372.23 123.192V129.456C371.294 128.4 369.95 127.896 368.366 127.896C364.718 127.896 361.91 130.488 361.91 134.544C361.91 138.6 364.718 141.192 368.366 141.192C370.094 141.192 371.462 140.64 372.398 139.512V141H375.974V123.192H372.23ZM369.014 138.12C367.142 138.12 365.702 136.776 365.702 134.544C365.702 132.312 367.142 130.968 369.014 130.968C370.862 130.968 372.302 132.312 372.302 134.544C372.302 136.776 370.862 138.12 369.014 138.12ZM384.647 127.896C382.583 127.896 380.495 128.448 379.079 129.456L380.423 132.072C381.359 131.328 382.775 130.872 384.143 130.872C386.159 130.872 387.119 131.808 387.119 133.416H384.143C380.207 133.416 378.599 135 378.599 137.28C378.599 139.512 380.399 141.192 383.423 141.192C385.319 141.192 386.663 140.568 387.359 139.392V141H390.863V133.632C390.863 129.72 388.583 127.896 384.647 127.896ZM384.359 138.672C383.039 138.672 382.247 138.048 382.247 137.112C382.247 136.248 382.799 135.6 384.551 135.6H387.119V136.92C386.687 138.096 385.607 138.672 384.359 138.672ZM394.251 141H397.995V123.192H394.251V141Z" fill="white"/>
</svg>
