<svg width="592" height="361" viewBox="0 0 592 361" fill="none" xmlns="http://www.w3.org/2000/svg">
<rect width="592" height="361" rx="6" fill="#E4E8FF"/>
<path d="M126.082 172.344L149.992 156L173.918 172.344L145.52 191.731L140.624 188.388L163.473 172.746L149.519 163.22L142.99 167.632L147.984 170.974L136.005 179.146L126.082 172.344ZM173.918 188.672L149.992 205L126.082 188.672L154.48 169.269L159.474 172.612L136.625 188.254L150.579 197.78L157.108 193.368L152.13 190.026L163.995 181.87L173.918 188.672ZM173.918 162.802L169.022 166.144L164.044 162.802L174 156L173.918 162.802ZM126.082 198.198L131.06 194.856L135.956 198.198L126 205L126.082 198.198Z" fill="#7080E9"/>
<path d="M196.821 197.17C199.922 197.17 207.608 196.798 207.608 188.416C207.608 183.878 206.251 180.712 201.149 179.95C202.849 179.75 204.411 178.875 205.516 177.506C206.621 176.136 207.184 174.376 207.091 172.585C207.091 165.524 202.505 164.017 196.934 164.017H184V197.17H196.821ZM429.185 197.17C433.512 197.17 437.888 196.561 437.888 189.551C437.888 181.457 426.714 182.253 426.714 177.123C426.684 176.719 426.741 176.314 426.879 175.937C427.018 175.56 427.235 175.22 427.516 174.942C427.796 174.665 428.132 174.456 428.499 174.333C428.866 174.209 429.255 174.173 429.637 174.227H435.628V170.062H427.215C420.304 170.062 418.592 173.347 418.592 177.58C418.592 185.639 430.977 185.453 430.977 189.974C431.025 190.383 430.984 190.799 430.859 191.189C430.733 191.58 430.525 191.936 430.251 192.232C429.977 192.528 429.643 192.755 429.274 192.898C428.905 193.04 428.51 193.094 428.119 193.056H419.254L412.682 170.079H404.802L397.535 194.732L392.966 184.132C396.308 183.472 397.648 181.254 397.648 177.173C397.746 176.224 397.641 175.264 397.341 174.362C397.04 173.461 396.553 172.641 395.913 171.961C395.273 171.282 394.496 170.761 393.64 170.435C392.784 170.11 391.87 169.988 390.963 170.079H378.659V197.17H385.392V174.159H387.621C388.12 174.159 388.613 174.269 389.069 174.48C389.525 174.692 389.933 175.002 390.268 175.39C390.603 175.778 390.856 176.235 391.012 176.731C391.168 177.228 391.223 177.754 391.173 178.274C391.173 180.526 390.091 182.388 388.364 182.27H386.491L392.61 197.035H403.381L404.996 191.041H411.971L413.586 197.035L429.185 197.17ZM410.938 187.011H405.964L408.338 175.937L410.938 187.011ZM335.949 197.966C345.992 197.966 345.992 190.956 345.992 183.76C345.992 176.564 345.992 169.537 335.949 169.537C325.905 169.537 325.889 176.479 325.889 183.76C325.889 191.041 325.889 197.881 335.949 197.881V197.966ZM335.949 193.852C333.01 193.852 332.622 190.804 332.622 183.692C332.622 176.581 333.01 173.533 335.949 173.533C338.887 173.533 339.259 176.581 339.259 183.692C339.259 190.804 338.887 193.784 335.949 193.784V193.852ZM304.025 197.238H313.826C324.129 197.238 323.515 187.671 323.515 183.506C323.515 175.04 322.029 170.062 314.133 170.062H304.089L304.025 197.238ZM310.484 174.295H313.181C316.781 174.295 316.781 178.697 316.781 183.692C316.781 190.465 316.152 193.107 313.003 193.107H310.516L310.484 174.295ZM362.673 182.761H364.288C367.436 182.761 368.421 184.556 368.421 187.485C368.421 192.125 365.45 192.158 364.126 192.158H360.654V182.829L362.673 182.761ZM360.671 177.681V169.215H364.514C365.019 169.229 365.516 169.352 365.974 169.574C366.433 169.797 366.843 170.115 367.18 170.51C367.517 170.905 367.774 171.367 367.935 171.87C368.095 172.372 368.157 172.903 368.115 173.431C368.115 176.648 366.209 177.647 364.885 177.647H362.754L360.671 177.681ZM365.692 197.17C368.793 197.17 376.479 196.798 376.479 188.416C376.479 183.878 375.123 180.712 370.02 179.95C371.721 179.746 373.284 178.868 374.388 177.495C375.493 176.123 376.056 174.361 375.962 172.568C375.962 165.507 371.376 164 365.805 164H352.887V197.17H365.692ZM465 197.17V193.073H457.33V170.079H450.758V197.17H465ZM446.899 170.079H440.343V197.17H446.899V170.079ZM286.828 197.949C296.888 197.949 296.888 190.905 296.888 183.675C296.888 176.445 296.888 169.401 286.828 169.401C276.768 169.401 276.784 176.361 276.784 183.675C276.784 190.99 276.784 197.881 286.828 197.881V197.949ZM286.828 193.818C283.889 193.818 283.501 190.753 283.501 183.658C283.501 176.564 283.889 173.499 286.828 173.499C289.767 173.499 290.154 176.564 290.154 183.658C290.154 190.753 289.767 193.784 286.828 193.784V193.818ZM221.834 187.045H216.844L219.218 175.971L221.834 187.045ZM214.277 197.204L215.891 191.193H222.851L224.369 197.17H231.264L223.513 170.079H215.698L207.785 197.17L214.277 197.204ZM265.82 198C271.52 198 274.846 195.613 274.846 188.23H268.387C268.387 190.414 268.274 193.869 265.852 193.869C263.091 193.869 262.623 192.175 262.623 183.709C262.623 175.023 263.252 173.55 265.658 173.55C267.386 173.55 268.161 174.938 268.161 178.629H274.62C274.862 172.703 271.714 169.452 265.497 169.452C256.244 169.452 255.97 175.632 255.97 183.726C255.97 191.82 255.76 197.881 265.82 197.881V198ZM238.369 197.204V179.019L245.603 197.17H253.435V170.079H247.783V187.57L240.791 170.079H232.846V197.17L238.369 197.204ZM193.446 182.609H194.464C198.323 182.609 199.534 184.302 199.534 187.316C199.534 191.955 195.885 191.989 194.254 191.989H191.864V182.659L193.446 182.609ZM191.832 177.529V169.063H194.69C195.246 169.014 195.807 169.086 196.336 169.274C196.865 169.462 197.352 169.763 197.765 170.156C198.179 170.55 198.511 171.029 198.74 171.564C198.969 172.098 199.091 172.676 199.098 173.262C199.131 173.823 199.05 174.385 198.86 174.911C198.671 175.437 198.377 175.915 197.999 176.313C197.621 176.712 197.166 177.022 196.665 177.222C196.164 177.423 195.629 177.51 195.093 177.478H192.445L191.832 177.529Z" fill="#7080E9"/>
<rect width="592" height="361" rx="6" fill="#7080E9"/>
<path d="M106.688 189L102.704 183.36C105.056 182.52 106.4 180.648 106.4 178.056C106.4 174.408 103.76 172.2 99.3923 172.2H92.8403V189H95.2403V183.888H99.3923C99.7523 183.888 100.112 183.864 100.448 183.84L104.072 189H106.688ZM99.3203 181.848H95.2403V174.288H99.3203C102.392 174.288 104 175.656 104 178.056C104 180.456 102.392 181.848 99.3203 181.848ZM121.438 182.712C121.438 178.8 118.822 176.16 115.15 176.16C111.478 176.16 108.766 178.872 108.766 182.64C108.766 186.432 111.502 189.144 115.606 189.144C117.718 189.144 119.47 188.424 120.622 187.08L119.35 185.592C118.414 186.624 117.166 187.128 115.678 187.128C113.158 187.128 111.358 185.64 111.07 183.408H121.39C121.414 183.192 121.438 182.904 121.438 182.712ZM115.15 178.104C117.382 178.104 118.99 179.616 119.23 181.752H111.07C111.31 179.592 112.942 178.104 115.15 178.104ZM128.285 189.144C131.669 189.144 133.781 187.68 133.781 185.376C133.781 180.432 125.717 182.88 125.717 179.88C125.717 178.872 126.701 178.128 128.717 178.128C129.965 178.128 131.237 178.392 132.389 179.136L133.373 177.312C132.269 176.592 130.397 176.16 128.741 176.16C125.477 176.16 123.437 177.696 123.437 179.976C123.437 185.04 131.477 182.568 131.477 185.424C131.477 186.504 130.589 187.152 128.453 187.152C126.797 187.152 125.069 186.6 123.989 185.832L123.029 187.656C124.085 188.496 126.173 189.144 128.285 189.144ZM148.157 182.712C148.157 178.8 145.541 176.16 141.869 176.16C138.197 176.16 135.485 178.872 135.485 182.64C135.485 186.432 138.221 189.144 142.325 189.144C144.437 189.144 146.189 188.424 147.341 187.08L146.069 185.592C145.133 186.624 143.885 187.128 142.397 187.128C139.877 187.128 138.077 185.64 137.789 183.408H148.109C148.133 183.192 148.157 182.904 148.157 182.712ZM141.869 178.104C144.101 178.104 145.709 179.616 145.949 181.752H137.789C138.029 179.592 139.661 178.104 141.869 178.104ZM155.636 176.16C153.596 176.16 151.7 176.736 150.38 177.792L151.34 179.52C152.324 178.68 153.86 178.152 155.372 178.152C157.652 178.152 158.78 179.28 158.78 181.224V181.68H155.132C151.34 181.68 150.02 183.36 150.02 185.4C150.02 187.608 151.844 189.144 154.724 189.144C156.716 189.144 158.132 188.472 158.9 187.32V189H161.084V181.32C161.084 177.84 159.116 176.16 155.636 176.16ZM155.108 187.368C153.356 187.368 152.3 186.576 152.3 185.304C152.3 184.224 152.948 183.336 155.228 183.336H158.78V185.112C158.204 186.576 156.836 187.368 155.108 187.368ZM167.556 178.416V176.28H165.348V189H167.652V182.664C167.652 179.88 169.188 178.368 171.66 178.368C171.828 178.368 171.996 178.368 172.188 178.392V176.16C169.956 176.16 168.372 176.928 167.556 178.416ZM180.455 189.144C182.735 189.144 184.631 188.184 185.639 186.408L183.887 185.304C183.071 186.552 181.823 187.128 180.431 187.128C177.935 187.128 176.063 185.4 176.063 182.64C176.063 179.928 177.935 178.176 180.431 178.176C181.823 178.176 183.071 178.752 183.887 180L185.639 178.872C184.631 177.096 182.735 176.16 180.455 176.16C176.543 176.16 173.735 178.848 173.735 182.64C173.735 186.432 176.543 189.144 180.455 189.144ZM195.249 176.16C193.305 176.16 191.721 176.856 190.761 178.08V171.192H188.457V189H190.761V182.448C190.761 179.688 192.345 178.224 194.793 178.224C196.977 178.224 198.225 179.448 198.225 181.944V189H200.529V181.68C200.529 177.936 198.345 176.16 195.249 176.16ZM205.369 185.856C204.457 185.856 203.761 186.528 203.761 187.488C203.761 188.208 204.169 188.76 204.769 188.976L203.881 192.552H205.393L206.521 189.216C206.833 188.328 206.929 187.968 206.929 187.488C206.929 186.552 206.281 185.856 205.369 185.856ZM223.564 172.2H217.012V189H219.412V183.912H223.564C227.932 183.912 230.572 181.704 230.572 178.056C230.572 174.408 227.932 172.2 223.564 172.2ZM223.492 181.824H219.412V174.288H223.492C226.564 174.288 228.172 175.656 228.172 178.056C228.172 180.456 226.564 181.824 223.492 181.824ZM235.759 178.416V176.28H233.551V189H235.855V182.664C235.855 179.88 237.391 178.368 239.863 178.368C240.031 178.368 240.199 178.368 240.391 178.392V176.16C238.159 176.16 236.575 176.928 235.759 178.416ZM248.562 189.144C252.378 189.144 255.162 186.432 255.162 182.64C255.162 178.848 252.378 176.16 248.562 176.16C244.746 176.16 241.938 178.848 241.938 182.64C241.938 186.432 244.746 189.144 248.562 189.144ZM248.562 187.128C246.114 187.128 244.266 185.352 244.266 182.64C244.266 179.928 246.114 178.176 248.562 178.176C251.01 178.176 252.834 179.928 252.834 182.64C252.834 185.352 251.01 187.128 248.562 187.128ZM268.044 171.192V178.2C266.988 176.832 265.404 176.16 263.604 176.16C259.884 176.16 257.172 178.752 257.172 182.64C257.172 186.528 259.884 189.144 263.604 189.144C265.476 189.144 267.108 188.424 268.14 186.984V189H270.348V171.192H268.044ZM263.796 187.128C261.348 187.128 259.5 185.352 259.5 182.64C259.5 179.928 261.348 178.176 263.796 178.176C266.22 178.176 268.068 179.928 268.068 182.64C268.068 185.352 266.22 187.128 263.796 187.128ZM284.259 176.28V182.856C284.259 185.592 282.723 187.08 280.323 187.08C278.139 187.08 276.891 185.832 276.891 183.336V176.28H274.587V183.6C274.587 187.344 276.771 189.144 280.059 189.144C281.859 189.144 283.443 188.4 284.379 187.08V189H286.563V176.28H284.259ZM296.494 189.144C298.774 189.144 300.67 188.184 301.678 186.408L299.926 185.304C299.11 186.552 297.862 187.128 296.47 187.128C293.974 187.128 292.102 185.4 292.102 182.64C292.102 179.928 293.974 178.176 296.47 178.176C297.862 178.176 299.11 178.752 299.926 180L301.678 178.872C300.67 177.096 298.774 176.16 296.494 176.16C292.582 176.16 289.774 178.848 289.774 182.64C289.774 186.432 292.582 189.144 296.494 189.144ZM311.257 186.6C310.777 186.984 310.129 187.2 309.457 187.2C308.185 187.2 307.465 186.432 307.465 185.064V178.176H311.113V176.28H307.465V173.496H305.161V176.28H303.001V178.176H305.161V185.16C305.161 187.728 306.625 189.144 309.193 189.144C310.225 189.144 311.281 188.856 311.977 188.256L311.257 186.6ZM321.543 189H328.623C334.023 189 337.695 185.592 337.695 180.6C337.695 175.608 334.023 172.2 328.623 172.2H321.543V189ZM323.943 186.912V174.288H328.479C332.631 174.288 335.295 176.832 335.295 180.6C335.295 184.368 332.631 186.912 328.479 186.912H323.943ZM352.532 182.712C352.532 178.8 349.916 176.16 346.244 176.16C342.572 176.16 339.86 178.872 339.86 182.64C339.86 186.432 342.596 189.144 346.7 189.144C348.812 189.144 350.564 188.424 351.716 187.08L350.444 185.592C349.508 186.624 348.26 187.128 346.772 187.128C344.252 187.128 342.452 185.64 342.164 183.408H352.484C352.508 183.192 352.532 182.904 352.532 182.712ZM346.244 178.104C348.476 178.104 350.084 179.616 350.324 181.752H342.164C342.404 179.592 344.036 178.104 346.244 178.104ZM359.379 189.144C362.763 189.144 364.875 187.68 364.875 185.376C364.875 180.432 356.811 182.88 356.811 179.88C356.811 178.872 357.795 178.128 359.811 178.128C361.059 178.128 362.331 178.392 363.483 179.136L364.467 177.312C363.363 176.592 361.491 176.16 359.835 176.16C356.571 176.16 354.531 177.696 354.531 179.976C354.531 185.04 362.571 182.568 362.571 185.424C362.571 186.504 361.683 187.152 359.547 187.152C357.891 187.152 356.163 186.6 355.083 185.832L354.123 187.656C355.179 188.496 357.267 189.144 359.379 189.144ZM368.906 173.832C369.818 173.832 370.466 173.16 370.466 172.296C370.466 171.48 369.794 170.832 368.906 170.832C368.018 170.832 367.346 171.504 367.346 172.344C367.346 173.184 368.018 173.832 368.906 173.832ZM367.754 189H370.058V176.28H367.754V189ZM384.441 176.28V178.248C383.361 176.856 381.633 176.16 379.737 176.16C376.065 176.16 373.281 178.632 373.281 182.304C373.281 185.976 376.065 188.472 379.737 188.472C381.561 188.472 383.217 187.824 384.321 186.504V187.512C384.321 190.392 382.953 191.784 379.953 191.784C378.081 191.784 376.233 191.136 375.057 190.128L373.953 191.904C375.345 193.152 377.697 193.8 380.025 193.8C384.345 193.8 386.625 191.76 386.625 187.272V176.28H384.441ZM380.001 186.456C377.433 186.456 375.609 184.752 375.609 182.304C375.609 179.832 377.433 178.176 380.001 178.176C382.545 178.176 384.369 179.832 384.369 182.304C384.369 184.752 382.545 186.456 380.001 186.456ZM397.82 176.16C395.804 176.16 394.172 176.904 393.236 178.2V176.28H391.028V189H393.332V182.448C393.332 179.688 394.916 178.224 397.364 178.224C399.548 178.224 400.796 179.448 400.796 181.944V189H403.1V181.68C403.1 177.936 400.916 176.16 397.82 176.16ZM407.94 185.856C407.028 185.856 406.332 186.528 406.332 187.488C406.332 188.208 406.74 188.76 407.34 188.976L406.452 192.552H407.964L409.092 189.216C409.404 188.328 409.5 187.968 409.5 187.488C409.5 186.552 408.852 185.856 407.94 185.856ZM437.463 189L437.439 172.2H435.471L428.559 184.008L421.551 172.2H419.583V189H421.887V176.832L427.959 186.96H429.062L435.135 176.76L435.159 189H437.463ZM447.616 189.144C451.432 189.144 454.216 186.432 454.216 182.64C454.216 178.848 451.432 176.16 447.616 176.16C443.8 176.16 440.992 178.848 440.992 182.64C440.992 186.432 443.8 189.144 447.616 189.144ZM447.616 187.128C445.168 187.128 443.32 185.352 443.32 182.64C443.32 179.928 445.168 178.176 447.616 178.176C450.064 178.176 451.888 179.928 451.888 182.64C451.888 185.352 450.064 187.128 447.616 187.128ZM464.147 176.16C462.347 176.16 460.763 176.832 459.707 178.2V171.192H457.403V189H459.611V186.984C460.643 188.424 462.275 189.144 464.147 189.144C467.867 189.144 470.579 186.528 470.579 182.64C470.579 178.752 467.867 176.16 464.147 176.16ZM463.955 187.128C461.531 187.128 459.683 185.352 459.683 182.64C459.683 179.928 461.531 178.176 463.955 178.176C466.403 178.176 468.251 179.928 468.251 182.64C468.251 185.352 466.403 187.128 463.955 187.128ZM474.914 173.832C475.826 173.832 476.474 173.16 476.474 172.296C476.474 171.48 475.802 170.832 474.914 170.832C474.026 170.832 473.354 171.504 473.354 172.344C473.354 173.184 474.026 173.832 474.914 173.832ZM473.762 189H476.066V176.28H473.762V189ZM480.465 189H482.769V171.192H480.465V189ZM498.664 182.712C498.664 178.8 496.048 176.16 492.376 176.16C488.704 176.16 485.992 178.872 485.992 182.64C485.992 186.432 488.728 189.144 492.832 189.144C494.944 189.144 496.696 188.424 497.848 187.08L496.576 185.592C495.64 186.624 494.392 187.128 492.904 187.128C490.384 187.128 488.584 185.64 488.296 183.408H498.616C498.64 183.192 498.664 182.904 498.664 182.712ZM492.376 178.104C494.608 178.104 496.216 179.616 496.456 181.752H488.296C488.536 179.592 490.168 178.104 492.376 178.104Z" fill="white"/>
<path d="M211.777 132.264C213.145 131.544 214.009 130.248 214.009 128.568C214.009 125.952 211.849 124.2 207.649 124.2H199.441V141H208.129C212.545 141 214.849 139.32 214.849 136.416C214.849 134.304 213.649 132.864 211.777 132.264ZM207.169 127.128C209.065 127.128 210.097 127.776 210.097 129.096C210.097 130.416 209.065 131.088 207.169 131.088H203.305V127.128H207.169ZM207.841 138.072H203.305V133.92H207.841C209.857 133.92 210.937 134.592 210.937 136.008C210.937 137.448 209.857 138.072 207.841 138.072ZM222.737 127.896C220.673 127.896 218.585 128.448 217.169 129.456L218.513 132.072C219.449 131.328 220.865 130.872 222.233 130.872C224.249 130.872 225.209 131.808 225.209 133.416H222.233C218.297 133.416 216.689 135 216.689 137.28C216.689 139.512 218.489 141.192 221.513 141.192C223.409 141.192 224.753 140.568 225.449 139.392V141H228.953V133.632C228.953 129.72 226.673 127.896 222.737 127.896ZM222.449 138.672C221.129 138.672 220.337 138.048 220.337 137.112C220.337 136.248 220.889 135.6 222.641 135.6H225.209V136.92C224.777 138.096 223.697 138.672 222.449 138.672ZM240.189 127.896C238.437 127.896 236.925 128.496 235.917 129.6V128.088H232.341V141H236.085V134.616C236.085 132.24 237.381 131.136 239.181 131.136C240.837 131.136 241.797 132.096 241.797 134.184V141H245.541V133.608C245.541 129.672 243.237 127.896 240.189 127.896ZM255.316 141.192C258.028 141.192 260.164 139.992 261.1 137.928L258.196 136.344C257.5 137.592 256.468 138.12 255.292 138.12C253.396 138.12 251.908 136.8 251.908 134.544C251.908 132.288 253.396 130.968 255.292 130.968C256.468 130.968 257.5 131.52 258.196 132.744L261.1 131.184C260.164 129.072 258.028 127.896 255.316 127.896C251.116 127.896 248.116 130.656 248.116 134.544C248.116 138.432 251.116 141.192 255.316 141.192ZM269.235 141.192C273.339 141.192 276.315 138.432 276.315 134.544C276.315 130.656 273.339 127.896 269.235 127.896C265.131 127.896 262.131 130.656 262.131 134.544C262.131 138.432 265.131 141.192 269.235 141.192ZM269.235 138.12C267.363 138.12 265.923 136.776 265.923 134.544C265.923 132.312 267.363 130.968 269.235 130.968C271.107 130.968 272.523 132.312 272.523 134.544C272.523 136.776 271.107 138.12 269.235 138.12ZM295.023 123.192V129.456C294.087 128.4 292.743 127.896 291.159 127.896C287.511 127.896 284.703 130.488 284.703 134.544C284.703 138.6 287.511 141.192 291.159 141.192C292.887 141.192 294.255 140.64 295.191 139.512V141H298.767V123.192H295.023ZM291.807 138.12C289.935 138.12 288.495 136.776 288.495 134.544C288.495 132.312 289.935 130.968 291.807 130.968C293.655 130.968 295.095 132.312 295.095 134.544C295.095 136.776 293.655 138.12 291.807 138.12ZM308.376 141.192C312.48 141.192 315.456 138.432 315.456 134.544C315.456 130.656 312.48 127.896 308.376 127.896C304.272 127.896 301.272 130.656 301.272 134.544C301.272 138.432 304.272 141.192 308.376 141.192ZM308.376 138.12C306.504 138.12 305.064 136.776 305.064 134.544C305.064 132.312 306.504 130.968 308.376 130.968C310.248 130.968 311.664 132.312 311.664 134.544C311.664 136.776 310.248 138.12 308.376 138.12ZM337.355 132.264C338.723 131.544 339.587 130.248 339.587 128.568C339.587 125.952 337.427 124.2 333.227 124.2H325.019V141H333.707C338.123 141 340.427 139.32 340.427 136.416C340.427 134.304 339.227 132.864 337.355 132.264ZM332.747 127.128C334.643 127.128 335.675 127.776 335.675 129.096C335.675 130.416 334.643 131.088 332.747 131.088H328.883V127.128H332.747ZM333.419 138.072H328.883V133.92H333.419C335.435 133.92 336.515 134.592 336.515 136.008C336.515 137.448 335.435 138.072 333.419 138.072ZM346.683 129.792V128.088H343.107V141H346.851V134.904C346.851 132.432 348.219 131.304 350.283 131.304C350.571 131.304 350.811 131.328 351.123 131.352V127.896C349.131 127.896 347.595 128.544 346.683 129.792ZM358.487 127.896C356.423 127.896 354.335 128.448 352.919 129.456L354.263 132.072C355.199 131.328 356.615 130.872 357.983 130.872C359.999 130.872 360.959 131.808 360.959 133.416H357.983C354.047 133.416 352.439 135 352.439 137.28C352.439 139.512 354.239 141.192 357.263 141.192C359.159 141.192 360.503 140.568 361.199 139.392V141H364.703V133.632C364.703 129.72 362.423 127.896 358.487 127.896ZM358.199 138.672C356.879 138.672 356.087 138.048 356.087 137.112C356.087 136.248 356.639 135.6 358.391 135.6H360.959V136.92C360.527 138.096 359.447 138.672 358.199 138.672ZM372.435 141.192C376.299 141.192 378.531 139.488 378.531 137.088C378.531 132 370.731 134.136 370.731 131.928C370.731 131.256 371.451 130.728 373.131 130.728C374.307 130.728 375.579 130.968 376.851 131.688L378.099 129.024C376.875 128.304 374.907 127.896 373.131 127.896C369.363 127.896 367.155 129.624 367.155 132.072C367.155 137.232 374.955 135.072 374.955 137.184C374.955 137.904 374.307 138.36 372.579 138.36C370.995 138.36 369.243 137.856 368.091 137.112L366.843 139.8C368.043 140.592 370.251 141.192 372.435 141.192ZM382.713 126.288C384.105 126.288 385.041 125.376 385.041 124.128C385.041 122.976 384.105 122.112 382.713 122.112C381.321 122.112 380.385 123.024 380.385 124.2C380.385 125.376 381.321 126.288 382.713 126.288ZM380.841 141H384.585V128.088H380.841V141ZM388.06 141H391.804V123.192H388.06V141Z" fill="white"/>
</svg>
