<svg width="592" height="361" viewBox="0 0 592 361" fill="none" xmlns="http://www.w3.org/2000/svg">
<rect width="592" height="360" rx="6" fill="#EDFAE5"/>
<rect opacity="0.1" x="112" y="361" width="72" height="361" transform="rotate(-180 112 361)" fill="url(#paint0_linear_397_163)"/>
<rect opacity="0.8" x="112" y="361" width="1" height="361" transform="rotate(-180 112 361)" fill="url(#paint1_linear_397_163)"/>
<rect opacity="0.8" x="41" y="361" width="1" height="361" transform="rotate(-180 41 361)" fill="url(#paint2_linear_397_163)"/>
<rect opacity="0.1" x="200" y="361" width="72" height="361" transform="rotate(-180 200 361)" fill="url(#paint3_linear_397_163)"/>
<rect opacity="0.8" x="200" y="361" width="1" height="361" transform="rotate(-180 200 361)" fill="url(#paint4_linear_397_163)"/>
<rect opacity="0.8" x="129" y="361" width="1" height="361" transform="rotate(-180 129 361)" fill="url(#paint5_linear_397_163)"/>
<rect opacity="0.1" x="288" y="361" width="72" height="361" transform="rotate(-180 288 361)" fill="url(#paint6_linear_397_163)"/>
<rect opacity="0.8" x="288" y="361" width="1" height="361" transform="rotate(-180 288 361)" fill="url(#paint7_linear_397_163)"/>
<rect opacity="0.8" x="217" y="361" width="1" height="361" transform="rotate(-180 217 361)" fill="url(#paint8_linear_397_163)"/>
<rect opacity="0.1" x="376" y="361" width="72" height="361" transform="rotate(-180 376 361)" fill="url(#paint9_linear_397_163)"/>
<rect opacity="0.8" x="376" y="361" width="1" height="361" transform="rotate(-180 376 361)" fill="url(#paint10_linear_397_163)"/>
<rect opacity="0.8" x="305" y="361" width="1" height="361" transform="rotate(-180 305 361)" fill="url(#paint11_linear_397_163)"/>
<rect opacity="0.1" x="464" y="361" width="72" height="361" transform="rotate(-180 464 361)" fill="url(#paint12_linear_397_163)"/>
<rect opacity="0.8" x="464" y="361" width="1" height="361" transform="rotate(-180 464 361)" fill="url(#paint13_linear_397_163)"/>
<rect opacity="0.8" x="393" y="361" width="1" height="361" transform="rotate(-180 393 361)" fill="url(#paint14_linear_397_163)"/>
<rect opacity="0.1" x="552" y="361" width="72" height="361" transform="rotate(-180 552 361)" fill="url(#paint15_linear_397_163)"/>
<rect opacity="0.8" x="552" y="361" width="1" height="361" transform="rotate(-180 552 361)" fill="url(#paint16_linear_397_163)"/>
<rect opacity="0.8" x="481" y="361" width="1" height="361" transform="rotate(-180 481 361)" fill="url(#paint17_linear_397_163)"/>
<path d="M178.598 174.784C180.671 172.47 183.006 171.293 185.905 171.214C191.571 171.042 194.709 173.616 195.233 179.131C195.777 184.821 195.37 190.529 195.452 196.228C195.501 199.446 195.452 199.446 192.141 199.446C190.723 199.446 189.301 199.383 187.883 199.468C186.828 199.532 186.616 199.126 186.622 198.199C186.661 193.122 186.642 188.045 186.642 182.99C186.642 182.517 186.661 182.038 186.642 181.565C186.409 178.296 183.458 176.748 180.438 178.319C179.367 178.877 178.778 179.642 178.801 180.965C178.876 186.677 178.801 192.37 178.86 198.072C178.86 199.199 178.532 199.522 177.389 199.475C175.375 199.389 173.354 199.411 171.336 199.475C170.403 199.5 169.994 199.341 170 198.288C170.046 189.788 170.046 181.287 170 172.784C170 171.874 170.288 171.601 171.212 171.636C172.899 171.74 174.592 171.74 176.279 171.636C177.789 171.509 178.522 171.921 178.427 173.451C178.448 173.899 178.505 174.344 178.598 174.784Z" fill="#2AAC3B"/>
<path d="M265.468 174.463C267.97 171.924 271.02 171.02 274.511 171.214C277.298 171.372 279.598 172.34 281.108 174.688C281.553 175.377 281.763 175.437 282.342 174.78C285.247 171.42 289.099 170.696 293.305 171.413C297.307 172.096 299.803 174.815 299.957 179.115C300.189 185.601 300.055 192.1 300.075 198.592C300.075 198.751 300.111 198.992 300.026 199.052C298.758 199.922 297.33 199.297 295.981 199.417C294.998 199.506 295.28 198.653 295.276 198.148C295.25 194.823 295.276 191.484 295.276 188.171C295.276 185.849 295.296 183.526 295.276 181.19C295.231 176.979 293.524 175.218 289.486 175.161C285.614 175.107 282.778 177.668 282.742 181.403C282.683 186.842 282.688 192.28 282.758 197.717C282.778 199.062 282.5 199.535 280.996 199.474C277.865 199.348 277.862 199.44 277.862 196.365C277.862 191.287 277.862 186.229 277.862 181.162C277.845 177.912 276.702 176.151 274.259 175.45C271.095 174.545 267.708 175.586 266.071 177.938C265.588 178.642 265.343 179.473 265.37 180.318C265.399 186.233 265.37 192.144 265.412 198.056C265.412 199.17 265.085 199.474 263.955 199.462C260.571 199.424 260.568 199.462 260.568 196.127C260.568 188.511 260.611 180.921 260.532 173.317C260.516 171.883 260.955 171.54 262.366 171.601C264.915 171.721 264.921 171.639 265.468 174.463Z" fill="#2AAC3B"/>
<path d="M362.482 186.705C360.327 188.292 358.909 190.053 359.315 192.858C359.577 194.67 359.315 196.549 359.381 198.396C359.403 199.237 359.086 199.443 358.247 199.468C354.586 199.579 354.589 199.608 354.589 196.089C354.589 184.687 354.608 173.283 354.559 161.878C354.559 160.51 354.802 159.936 356.393 160.006C359.361 160.133 359.364 160.034 359.364 162.947V183.319C359.79 183.51 359.928 183.218 360.078 183.034C362.98 179.524 366.344 176.421 369.406 173.054C370.336 172.029 371.306 171.467 372.767 171.62C373.904 171.69 375.044 171.699 376.183 171.645C376.311 172.375 375.721 172.619 375.39 172.972C372.531 176.021 369.688 179.086 366.747 182.063C365.859 182.958 365.797 183.532 366.583 184.538C370.032 188.958 373.389 193.449 376.772 197.913C377.1 198.326 377.365 198.761 377.837 199.44C375.963 199.44 374.358 199.44 372.754 199.44C372.069 199.44 371.869 198.891 371.558 198.488C368.885 195.02 366.222 191.547 363.566 188.067C363.213 187.61 362.843 187.162 362.482 186.705Z" fill="#2AAC3B"/>
<path d="M411.104 184.801C411.104 182.06 411.055 179.315 411.124 176.573C411.15 175.59 410.845 175.234 409.84 175.352C409.247 175.418 408.628 175.288 408.045 175.377C406.427 175.621 406.007 175.06 405.935 173.451C405.85 171.547 406.813 171.607 408.172 171.629C411.101 171.68 411.101 171.645 411.101 168.881V167.295C411.101 164.937 411.101 164.937 413.475 164.937C415.945 164.937 415.935 164.937 415.951 167.333C415.951 168.697 415.509 170.398 416.184 171.328C416.859 172.258 418.716 171.601 420.049 171.613C421.002 171.613 421.221 171.931 421.231 172.8C421.257 175.361 421.297 175.361 418.722 175.361C418.123 175.361 417.517 175.402 416.924 175.361C416.105 175.288 415.941 175.647 415.941 176.37C415.968 181.857 415.922 187.34 415.977 192.827C416 195.165 417.314 196.285 419.685 195.825C421.323 195.508 421.47 196.111 421.421 197.412C421.336 199.684 421.398 199.687 418.965 199.84C413.724 200.157 411.264 198.024 411.127 192.884C411.055 190.183 411.104 187.492 411.104 184.801Z" fill="#2AAC3B"/>
<path d="M341.34 174.628C343.283 172.108 345.598 171.023 348.546 171.201C349.686 171.271 350.265 171.553 350.128 172.788C350.023 173.739 350.426 174.91 349.967 175.567C349.45 176.31 348.173 175.701 347.226 175.755C343.437 175.97 341.281 178.128 341.281 181.784C341.281 187.216 341.249 192.646 341.308 198.078C341.308 199.192 341.003 199.49 339.86 199.475C336.421 199.433 336.421 199.475 336.421 196.209C336.421 188.511 336.447 180.81 336.391 173.111C336.391 171.928 336.719 171.436 337.934 171.642C338.043 171.652 338.153 171.652 338.262 171.642C341.095 171.639 341.095 171.639 341.34 174.628Z" fill="#2AAC3B"/>
<path d="M224.366 188.324C225.624 188.343 226.004 187.962 225.896 186.797C225.762 185.274 225.837 183.735 225.683 182.215C225.1 176.478 221.465 172.477 215.897 171.391C209.841 170.208 203.912 172.642 201.312 177.439C199.346 181.086 199.019 185.014 199.674 188.99C200.863 196.289 207.698 201.236 217.18 199.608C219.946 199.169 222.489 197.867 224.422 195.901C224.972 195.34 225.077 194.949 224.488 194.315C223.59 193.394 222.753 192.419 221.982 191.395C221.327 190.513 220.849 190.523 220.141 191.329C219.545 191.954 218.787 192.415 217.947 192.665C213.908 194.039 209.241 193.08 208.511 188.289H210.293C214.986 188.295 219.676 188.251 224.366 188.324ZM208.498 182.072C208.904 179.216 210.876 177.63 213.784 177.909C214.3 177.956 214.801 178.104 215.257 178.343C215.713 178.582 216.114 178.908 216.437 179.301C216.761 179.693 216.999 180.145 217.138 180.629C217.277 181.113 217.313 181.619 217.246 182.117C217.174 182.78 216.859 182.885 216.299 182.878C215.104 182.878 213.905 182.878 212.697 182.878H209.277C208.724 182.875 208.393 182.824 208.498 182.072Z" fill="#2AAC3B"/>
<path d="M253.736 177.573C250.942 172.518 245.096 170.163 238.752 171.439C234.032 172.391 230.891 175.06 229.276 179.455C228.061 182.78 228.015 186.179 228.67 189.593C229.712 195.026 233.492 198.688 238.984 199.706C244.975 200.82 250.474 198.723 253.396 194.163C255.056 191.57 255.554 188.682 255.528 185.277C255.626 182.603 255.009 179.948 253.736 177.573ZM245.954 190.621C245.175 192.417 243.861 193.211 241.886 193.217C239.911 193.223 238.477 192.351 237.861 190.577C236.709 187.306 236.724 183.754 237.903 180.492C238.523 178.744 239.934 177.843 241.935 177.862C243.937 177.881 245.211 178.814 245.961 180.53C246.668 182.174 246.74 183.91 246.701 185.655C246.753 187.356 246.642 189.038 245.954 190.624V190.621Z" fill="#2AAC3B"/>
<path d="M329.674 198.427C328.973 196.46 328.858 194.41 328.865 192.344C328.865 188.175 328.91 184.005 328.865 179.838C328.809 175.837 326.329 172.727 322.419 171.661C320.255 171.072 317.979 170.982 315.773 171.398C312.069 172.083 309.013 173.762 307.546 177.376C306.822 179.163 307.002 179.381 308.908 179.388C309.619 179.388 310.326 179.388 311.037 179.388C311.564 179.388 311.977 179.337 312.118 178.706C312.56 176.694 314.113 175.77 315.976 175.253C320.126 174.104 323.654 176.037 324.004 179.607C324.299 182.625 324.299 182.618 321.184 182.628C319.874 182.628 318.564 182.628 317.254 182.694C315.125 182.778 313.041 183.313 311.149 184.262C307.667 186.074 305.908 189.656 306.72 193.309C307.533 196.961 310.68 199.478 314.581 199.833C318.207 200.15 321.361 199.252 324.119 196.552C324.61 199.446 324.61 199.446 327.299 199.446C327.846 199.446 328.393 199.417 328.937 199.446C329.782 199.509 329.949 199.208 329.674 198.427ZM314.686 195.483C312.636 194.81 311.525 193.41 311.44 191.395C311.348 189.219 312.269 187.692 314.312 186.889C317.221 185.747 320.296 185.937 323.346 185.937C323.955 185.937 324.034 186.328 324.03 186.788C324.03 187.578 324.03 188.374 324.03 189.161C324.034 193.82 319.317 197.009 314.686 195.483Z" fill="#2AAC3B"/>
<path d="M386.133 186.851C388.858 186.937 391.586 186.877 394.321 186.877C397.102 186.877 399.889 186.845 402.663 186.896C403.577 186.915 403.859 186.661 403.865 185.757C403.885 183.259 403.711 180.79 402.863 178.423C401.628 174.983 399.375 172.496 395.595 171.569C389.588 170.1 383.824 172.813 381.381 178.347C379.383 182.75 379.233 187.734 380.961 192.243C382.514 196.419 385.747 199.056 390.316 199.716C395.075 200.404 399.46 199.56 402.68 195.651C402.945 195.333 403.381 194.699 403.312 194.619C402.56 193.861 401.723 193.186 400.816 192.608C400.19 192.236 399.942 193.061 399.604 193.391C396.951 195.962 393.774 196.739 390.302 195.578C386.831 194.416 385.34 191.681 384.82 188.321C384.646 187.248 384.901 186.813 386.133 186.851ZM387.237 177.243C388.182 176.21 389.441 175.494 390.833 175.198C392.225 174.901 393.677 175.04 394.983 175.593C397.331 176.618 399.241 179.918 398.975 182.361C398.92 182.837 398.769 182.996 398.297 182.996C393.846 182.996 389.392 182.996 384.869 182.996C385.167 180.778 385.789 178.842 387.237 177.255V177.243Z" fill="#2AAC3B"/>
<rect width="592" height="361" rx="6" fill="#53A85E"/>
<path d="M66.1114 189L62.4874 183.84C62.0394 183.872 61.6874 183.888 61.4314 183.888H57.2794V189H54.8794V172.2H61.4314C63.6074 172.2 65.3194 172.72 66.5674 173.76C67.8154 174.8 68.4394 176.232 68.4394 178.056C68.4394 179.352 68.1194 180.456 67.4794 181.368C66.8394 182.28 65.9274 182.944 64.7434 183.36L68.7274 189H66.1114ZM61.3594 181.848C62.8794 181.848 64.0394 181.52 64.8394 180.864C65.6394 180.208 66.0394 179.272 66.0394 178.056C66.0394 176.84 65.6394 175.912 64.8394 175.272C64.0394 174.616 62.8794 174.288 61.3594 174.288H57.2794V181.848H61.3594ZM83.4769 182.712C83.4769 182.888 83.4609 183.12 83.4289 183.408H73.1089C73.2529 184.528 73.7409 185.432 74.5729 186.12C75.4209 186.792 76.4689 187.128 77.7169 187.128C79.2369 187.128 80.4609 186.616 81.3889 185.592L82.6609 187.08C82.0849 187.752 81.3649 188.264 80.5009 188.616C79.6529 188.968 78.7009 189.144 77.6449 189.144C76.3009 189.144 75.1089 188.872 74.0689 188.328C73.0289 187.768 72.2209 186.992 71.6449 186C71.0849 185.008 70.8049 183.888 70.8049 182.64C70.8049 181.408 71.0769 180.296 71.6209 179.304C72.1809 178.312 72.9409 177.544 73.9009 177C74.8769 176.44 75.9729 176.16 77.1889 176.16C78.4049 176.16 79.4849 176.44 80.4289 177C81.3889 177.544 82.1329 178.312 82.6609 179.304C83.2049 180.296 83.4769 181.432 83.4769 182.712ZM77.1889 178.104C76.0849 178.104 75.1569 178.44 74.4049 179.112C73.6689 179.784 73.2369 180.664 73.1089 181.752H81.2689C81.1409 180.68 80.7009 179.808 79.9489 179.136C79.2129 178.448 78.2929 178.104 77.1889 178.104ZM90.3242 189.144C89.2842 189.144 88.2842 189.008 87.3242 188.736C86.3642 188.448 85.6122 188.088 85.0682 187.656L86.0282 185.832C86.5882 186.232 87.2682 186.552 88.0682 186.792C88.8682 187.032 89.6762 187.152 90.4922 187.152C92.5082 187.152 93.5162 186.576 93.5162 185.424C93.5162 185.04 93.3802 184.736 93.1082 184.512C92.8362 184.288 92.4922 184.128 92.0762 184.032C91.6762 183.92 91.1002 183.8 90.3482 183.672C89.3242 183.512 88.4842 183.328 87.8282 183.12C87.1882 182.912 86.6362 182.56 86.1722 182.064C85.7082 181.568 85.4762 180.872 85.4762 179.976C85.4762 178.824 85.9562 177.904 86.9162 177.216C87.8762 176.512 89.1642 176.16 90.7802 176.16C91.6282 176.16 92.4762 176.264 93.3242 176.472C94.1722 176.68 94.8682 176.96 95.4122 177.312L94.4282 179.136C93.3882 178.464 92.1642 178.128 90.7562 178.128C89.7802 178.128 89.0362 178.288 88.5242 178.608C88.0122 178.928 87.7562 179.352 87.7562 179.88C87.7562 180.296 87.9002 180.624 88.1882 180.864C88.4762 181.104 88.8282 181.28 89.2442 181.392C89.6762 181.504 90.2762 181.632 91.0442 181.776C92.0682 181.952 92.8922 182.144 93.5162 182.352C94.1562 182.544 94.7002 182.88 95.1482 183.36C95.5962 183.84 95.8202 184.512 95.8202 185.376C95.8202 186.528 95.3242 187.448 94.3322 188.136C93.3562 188.808 92.0202 189.144 90.3242 189.144ZM110.196 182.712C110.196 182.888 110.18 183.12 110.148 183.408H99.8276C99.9716 184.528 100.46 185.432 101.292 186.12C102.14 186.792 103.188 187.128 104.436 187.128C105.956 187.128 107.18 186.616 108.108 185.592L109.38 187.08C108.804 187.752 108.084 188.264 107.22 188.616C106.372 188.968 105.42 189.144 104.364 189.144C103.02 189.144 101.828 188.872 100.788 188.328C99.7476 187.768 98.9396 186.992 98.3636 186C97.8036 185.008 97.5236 183.888 97.5236 182.64C97.5236 181.408 97.7956 180.296 98.3396 179.304C98.8996 178.312 99.6596 177.544 100.62 177C101.596 176.44 102.692 176.16 103.908 176.16C105.124 176.16 106.204 176.44 107.148 177C108.108 177.544 108.852 178.312 109.38 179.304C109.924 180.296 110.196 181.432 110.196 182.712ZM103.908 178.104C102.804 178.104 101.876 178.44 101.124 179.112C100.388 179.784 99.9556 180.664 99.8276 181.752H107.988C107.86 180.68 107.42 179.808 106.668 179.136C105.932 178.448 105.012 178.104 103.908 178.104ZM117.675 176.16C119.435 176.16 120.779 176.592 121.707 177.456C122.651 178.32 123.123 179.608 123.123 181.32V189H120.939V187.32C120.555 187.912 120.003 188.368 119.283 188.688C118.579 188.992 117.739 189.144 116.763 189.144C115.339 189.144 114.195 188.8 113.331 188.112C112.483 187.424 112.059 186.52 112.059 185.4C112.059 184.28 112.467 183.384 113.283 182.712C114.099 182.024 115.395 181.68 117.171 181.68H120.819V181.224C120.819 180.232 120.531 179.472 119.955 178.944C119.379 178.416 118.531 178.152 117.411 178.152C116.659 178.152 115.923 178.28 115.203 178.536C114.483 178.776 113.875 179.104 113.379 179.52L112.419 177.792C113.075 177.264 113.859 176.864 114.771 176.592C115.683 176.304 116.651 176.16 117.675 176.16ZM117.147 187.368C118.027 187.368 118.787 187.176 119.427 186.792C120.067 186.392 120.531 185.832 120.819 185.112V183.336H117.267C115.315 183.336 114.339 183.992 114.339 185.304C114.339 185.944 114.587 186.448 115.083 186.816C115.579 187.184 116.267 187.368 117.147 187.368ZM129.595 178.416C129.995 177.68 130.587 177.12 131.371 176.736C132.155 176.352 133.107 176.16 134.227 176.16V178.392C134.099 178.376 133.923 178.368 133.699 178.368C132.451 178.368 131.467 178.744 130.747 179.496C130.043 180.232 129.691 181.288 129.691 182.664V189H127.387V176.28H129.595V178.416ZM142.494 189.144C141.198 189.144 140.038 188.864 139.014 188.304C138.006 187.744 137.214 186.976 136.638 186C136.062 185.008 135.774 183.888 135.774 182.64C135.774 181.392 136.062 180.28 136.638 179.304C137.214 178.312 138.006 177.544 139.014 177C140.038 176.44 141.198 176.16 142.494 176.16C143.646 176.16 144.67 176.392 145.566 176.856C146.478 177.32 147.182 177.992 147.678 178.872L145.926 180C145.526 179.392 145.03 178.936 144.438 178.632C143.846 178.328 143.19 178.176 142.47 178.176C141.638 178.176 140.886 178.36 140.214 178.728C139.558 179.096 139.038 179.624 138.654 180.312C138.286 180.984 138.102 181.76 138.102 182.64C138.102 183.536 138.286 184.328 138.654 185.016C139.038 185.688 139.558 186.208 140.214 186.576C140.886 186.944 141.638 187.128 142.47 187.128C143.19 187.128 143.846 186.976 144.438 186.672C145.03 186.368 145.526 185.912 145.926 185.304L147.678 186.408C147.182 187.288 146.478 187.968 145.566 188.448C144.67 188.912 143.646 189.144 142.494 189.144ZM157.289 176.16C158.905 176.16 160.185 176.632 161.129 177.576C162.089 178.504 162.569 179.872 162.569 181.68V189H160.265V181.944C160.265 180.712 159.969 179.784 159.377 179.16C158.785 178.536 157.937 178.224 156.833 178.224C155.585 178.224 154.601 178.592 153.881 179.328C153.161 180.048 152.801 181.088 152.801 182.448V189H150.497V171.192H152.801V178.08C153.281 177.472 153.905 177 154.673 176.664C155.457 176.328 156.329 176.16 157.289 176.16ZM167.408 185.856C167.856 185.856 168.224 186.016 168.512 186.336C168.816 186.64 168.968 187.024 168.968 187.488C168.968 187.728 168.936 187.96 168.872 188.184C168.824 188.408 168.72 188.752 168.56 189.216L167.432 192.552H165.92L166.808 188.976C166.504 188.864 166.256 188.68 166.064 188.424C165.888 188.152 165.8 187.84 165.8 187.488C165.8 187.008 165.952 186.616 166.256 186.312C166.56 186.008 166.944 185.856 167.408 185.856ZM186.011 189.192C183.771 189.192 182.027 188.552 180.779 187.272C179.531 185.992 178.907 184.152 178.907 181.752V172.2H181.307V181.656C181.307 185.256 182.883 187.056 186.035 187.056C187.571 187.056 188.747 186.616 189.563 185.736C190.379 184.84 190.787 183.48 190.787 181.656V172.2H193.115V181.752C193.115 184.168 192.491 186.016 191.243 187.296C189.995 188.56 188.251 189.192 186.011 189.192ZM198.036 172.2H200.436V189H198.036V172.2ZM210.193 168.792H212.281L204.361 191.4H202.273L210.193 168.792ZM220.863 189.192C218.623 189.192 216.879 188.552 215.631 187.272C214.383 185.992 213.759 184.152 213.759 181.752V172.2H216.159V181.656C216.159 185.256 217.735 187.056 220.887 187.056C222.423 187.056 223.599 186.616 224.415 185.736C225.231 184.84 225.639 183.48 225.639 181.656V172.2H227.967V181.752C227.967 184.168 227.343 186.016 226.095 187.296C224.847 188.56 223.103 189.192 220.863 189.192ZM243.213 189L238.173 182.064L233.205 189H230.445L236.757 180.384L230.829 172.2H233.565L238.269 178.656L242.925 172.2H245.541L239.613 180.312L245.973 189H243.213ZM255.247 172.2H262.327C264.103 172.2 265.679 172.552 267.055 173.256C268.431 173.96 269.495 174.952 270.247 176.232C271.015 177.496 271.399 178.952 271.399 180.6C271.399 182.248 271.015 183.712 270.247 184.992C269.495 186.256 268.431 187.24 267.055 187.944C265.679 188.648 264.103 189 262.327 189H255.247V172.2ZM262.183 186.912C263.543 186.912 264.735 186.648 265.759 186.12C266.799 185.592 267.599 184.856 268.159 183.912C268.719 182.952 268.999 181.848 268.999 180.6C268.999 179.352 268.719 178.256 268.159 177.312C267.599 176.352 266.799 175.608 265.759 175.08C264.735 174.552 263.543 174.288 262.183 174.288H257.647V186.912H262.183ZM286.235 182.712C286.235 182.888 286.219 183.12 286.187 183.408H275.867C276.011 184.528 276.499 185.432 277.331 186.12C278.179 186.792 279.227 187.128 280.475 187.128C281.995 187.128 283.219 186.616 284.147 185.592L285.419 187.08C284.843 187.752 284.123 188.264 283.259 188.616C282.411 188.968 281.459 189.144 280.403 189.144C279.059 189.144 277.867 188.872 276.827 188.328C275.787 187.768 274.979 186.992 274.403 186C273.843 185.008 273.563 183.888 273.563 182.64C273.563 181.408 273.835 180.296 274.379 179.304C274.939 178.312 275.699 177.544 276.659 177C277.635 176.44 278.731 176.16 279.947 176.16C281.163 176.16 282.243 176.44 283.187 177C284.147 177.544 284.891 178.312 285.419 179.304C285.963 180.296 286.235 181.432 286.235 182.712ZM279.947 178.104C278.843 178.104 277.915 178.44 277.163 179.112C276.427 179.784 275.995 180.664 275.867 181.752H284.027C283.899 180.68 283.459 179.808 282.707 179.136C281.971 178.448 281.051 178.104 279.947 178.104ZM293.082 189.144C292.042 189.144 291.042 189.008 290.082 188.736C289.122 188.448 288.37 188.088 287.826 187.656L288.786 185.832C289.346 186.232 290.026 186.552 290.826 186.792C291.626 187.032 292.434 187.152 293.25 187.152C295.266 187.152 296.274 186.576 296.274 185.424C296.274 185.04 296.138 184.736 295.866 184.512C295.594 184.288 295.25 184.128 294.834 184.032C294.434 183.92 293.858 183.8 293.106 183.672C292.082 183.512 291.242 183.328 290.586 183.12C289.946 182.912 289.394 182.56 288.93 182.064C288.466 181.568 288.234 180.872 288.234 179.976C288.234 178.824 288.714 177.904 289.674 177.216C290.634 176.512 291.922 176.16 293.538 176.16C294.386 176.16 295.234 176.264 296.082 176.472C296.93 176.68 297.626 176.96 298.17 177.312L297.186 179.136C296.146 178.464 294.922 178.128 293.514 178.128C292.538 178.128 291.794 178.288 291.282 178.608C290.77 178.928 290.514 179.352 290.514 179.88C290.514 180.296 290.658 180.624 290.946 180.864C291.234 181.104 291.586 181.28 292.002 181.392C292.434 181.504 293.034 181.632 293.802 181.776C294.826 181.952 295.65 182.144 296.274 182.352C296.914 182.544 297.458 182.88 297.906 183.36C298.354 183.84 298.578 184.512 298.578 185.376C298.578 186.528 298.082 187.448 297.09 188.136C296.114 188.808 294.778 189.144 293.082 189.144ZM301.457 176.28H303.761V189H301.457V176.28ZM302.609 173.832C302.161 173.832 301.785 173.688 301.481 173.4C301.193 173.112 301.049 172.76 301.049 172.344C301.049 171.928 301.193 171.576 301.481 171.288C301.785 170.984 302.161 170.832 302.609 170.832C303.057 170.832 303.425 170.976 303.713 171.264C304.017 171.536 304.169 171.88 304.169 172.296C304.169 172.728 304.017 173.096 303.713 173.4C303.425 173.688 303.057 173.832 302.609 173.832ZM320.329 176.28V187.272C320.329 189.496 319.777 191.136 318.673 192.192C317.569 193.264 315.921 193.8 313.729 193.8C312.529 193.8 311.385 193.632 310.297 193.296C309.209 192.976 308.329 192.512 307.657 191.904L308.761 190.128C309.353 190.64 310.081 191.04 310.945 191.328C311.825 191.632 312.729 191.784 313.657 191.784C315.145 191.784 316.241 191.432 316.945 190.728C317.665 190.024 318.025 188.952 318.025 187.512V186.504C317.481 187.16 316.809 187.656 316.009 187.992C315.225 188.312 314.369 188.472 313.441 188.472C312.225 188.472 311.121 188.216 310.129 187.704C309.153 187.176 308.385 186.448 307.825 185.52C307.265 184.576 306.985 183.504 306.985 182.304C306.985 181.104 307.265 180.04 307.825 179.112C308.385 178.168 309.153 177.44 310.129 176.928C311.121 176.416 312.225 176.16 313.441 176.16C314.401 176.16 315.289 176.336 316.105 176.688C316.937 177.04 317.617 177.56 318.145 178.248V176.28H320.329ZM313.705 186.456C314.537 186.456 315.281 186.28 315.937 185.928C316.609 185.576 317.129 185.088 317.497 184.464C317.881 183.824 318.073 183.104 318.073 182.304C318.073 181.072 317.665 180.08 316.849 179.328C316.033 178.56 314.985 178.176 313.705 178.176C312.409 178.176 311.353 178.56 310.537 179.328C309.721 180.08 309.313 181.072 309.313 182.304C309.313 183.104 309.497 183.824 309.865 184.464C310.249 185.088 310.769 185.576 311.425 185.928C312.097 186.28 312.857 186.456 313.705 186.456ZM331.523 176.16C333.139 176.16 334.419 176.632 335.363 177.576C336.323 178.504 336.803 179.872 336.803 181.68V189H334.499V181.944C334.499 180.712 334.203 179.784 333.611 179.16C333.019 178.536 332.171 178.224 331.067 178.224C329.819 178.224 328.835 178.592 328.115 179.328C327.395 180.048 327.035 181.088 327.035 182.448V189H324.731V176.28H326.939V178.2C327.403 177.544 328.027 177.04 328.811 176.688C329.611 176.336 330.515 176.16 331.523 176.16ZM341.643 185.856C342.091 185.856 342.459 186.016 342.747 186.336C343.051 186.64 343.203 187.024 343.203 187.488C343.203 187.728 343.171 187.96 343.107 188.184C343.059 188.408 342.955 188.752 342.795 189.216L341.667 192.552H340.155L341.043 188.976C340.739 188.864 340.491 188.68 340.299 188.424C340.123 188.152 340.035 187.84 340.035 187.488C340.035 187.008 340.187 186.616 340.491 186.312C340.795 186.008 341.179 185.856 341.643 185.856ZM363.99 184.8H355.062L353.214 189H350.742L358.35 172.2H360.726L368.358 189H365.838L363.99 184.8ZM363.15 182.88L359.526 174.648L355.902 182.88H363.15ZM377.272 176.16C378.504 176.16 379.608 176.432 380.584 176.976C381.56 177.52 382.32 178.28 382.864 179.256C383.424 180.232 383.704 181.36 383.704 182.64C383.704 183.92 383.424 185.056 382.864 186.048C382.32 187.024 381.56 187.784 380.584 188.328C379.608 188.872 378.504 189.144 377.272 189.144C376.36 189.144 375.52 188.968 374.752 188.616C374 188.264 373.36 187.752 372.832 187.08V193.656H370.528V176.28H372.736V178.296C373.248 177.592 373.896 177.064 374.68 176.712C375.464 176.344 376.328 176.16 377.272 176.16ZM377.08 187.128C377.896 187.128 378.624 186.944 379.264 186.576C379.92 186.192 380.432 185.664 380.8 184.992C381.184 184.304 381.376 183.52 381.376 182.64C381.376 181.76 381.184 180.984 380.8 180.312C380.432 179.624 379.92 179.096 379.264 178.728C378.624 178.36 377.896 178.176 377.08 178.176C376.28 178.176 375.552 178.368 374.896 178.752C374.256 179.12 373.744 179.64 373.36 180.312C372.992 180.984 372.808 181.76 372.808 182.64C372.808 183.52 372.992 184.304 373.36 184.992C373.728 185.664 374.24 186.192 374.896 186.576C375.552 186.944 376.28 187.128 377.08 187.128ZM393.631 176.16C394.863 176.16 395.967 176.432 396.943 176.976C397.919 177.52 398.679 178.28 399.223 179.256C399.783 180.232 400.063 181.36 400.063 182.64C400.063 183.92 399.783 185.056 399.223 186.048C398.679 187.024 397.919 187.784 396.943 188.328C395.967 188.872 394.863 189.144 393.631 189.144C392.719 189.144 391.879 188.968 391.111 188.616C390.359 188.264 389.719 187.752 389.191 187.08V193.656H386.887V176.28H389.095V178.296C389.607 177.592 390.255 177.064 391.039 176.712C391.823 176.344 392.687 176.16 393.631 176.16ZM393.439 187.128C394.255 187.128 394.983 186.944 395.623 186.576C396.279 186.192 396.791 185.664 397.159 184.992C397.543 184.304 397.735 183.52 397.735 182.64C397.735 181.76 397.543 180.984 397.159 180.312C396.791 179.624 396.279 179.096 395.623 178.728C394.983 178.36 394.255 178.176 393.439 178.176C392.639 178.176 391.911 178.368 391.255 178.752C390.615 179.12 390.103 179.64 389.719 180.312C389.351 180.984 389.167 181.76 389.167 182.64C389.167 183.52 389.351 184.304 389.719 184.992C390.087 185.664 390.599 186.192 391.255 186.576C391.911 186.944 392.639 187.128 393.439 187.128ZM414.324 176.16C416.084 176.16 417.428 176.592 418.356 177.456C419.3 178.32 419.772 179.608 419.772 181.32V189H417.588V187.32C417.204 187.912 416.652 188.368 415.932 188.688C415.228 188.992 414.388 189.144 413.412 189.144C411.988 189.144 410.844 188.8 409.98 188.112C409.132 187.424 408.708 186.52 408.708 185.4C408.708 184.28 409.116 183.384 409.932 182.712C410.748 182.024 412.044 181.68 413.82 181.68H417.468V181.224C417.468 180.232 417.18 179.472 416.604 178.944C416.028 178.416 415.18 178.152 414.06 178.152C413.308 178.152 412.572 178.28 411.852 178.536C411.132 178.776 410.524 179.104 410.028 179.52L409.068 177.792C409.724 177.264 410.508 176.864 411.42 176.592C412.332 176.304 413.3 176.16 414.324 176.16ZM413.796 187.368C414.676 187.368 415.436 187.176 416.076 186.792C416.716 186.392 417.18 185.832 417.468 185.112V183.336H413.916C411.964 183.336 410.988 183.992 410.988 185.304C410.988 185.944 411.236 186.448 411.732 186.816C412.228 187.184 412.916 187.368 413.796 187.368ZM430.828 176.16C432.444 176.16 433.724 176.632 434.668 177.576C435.628 178.504 436.108 179.872 436.108 181.68V189H433.804V181.944C433.804 180.712 433.508 179.784 432.916 179.16C432.324 178.536 431.476 178.224 430.372 178.224C429.124 178.224 428.14 178.592 427.42 179.328C426.7 180.048 426.34 181.088 426.34 182.448V189H424.036V176.28H426.244V178.2C426.708 177.544 427.332 177.04 428.116 176.688C428.916 176.336 429.82 176.16 430.828 176.16ZM452.442 171.192V189H450.234V186.984C449.722 187.688 449.074 188.224 448.29 188.592C447.506 188.96 446.642 189.144 445.698 189.144C444.466 189.144 443.362 188.872 442.386 188.328C441.41 187.784 440.642 187.024 440.082 186.048C439.538 185.056 439.266 183.92 439.266 182.64C439.266 181.36 439.538 180.232 440.082 179.256C440.642 178.28 441.41 177.52 442.386 176.976C443.362 176.432 444.466 176.16 445.698 176.16C446.61 176.16 447.45 176.336 448.218 176.688C448.986 177.024 449.626 177.528 450.138 178.2V171.192H452.442ZM445.89 187.128C446.69 187.128 447.418 186.944 448.074 186.576C448.73 186.192 449.242 185.664 449.61 184.992C449.978 184.304 450.162 183.52 450.162 182.64C450.162 181.76 449.978 180.984 449.61 180.312C449.242 179.624 448.73 179.096 448.074 178.728C447.418 178.36 446.69 178.176 445.89 178.176C445.074 178.176 444.338 178.36 443.682 178.728C443.042 179.096 442.53 179.624 442.146 180.312C441.778 180.984 441.594 181.76 441.594 182.64C441.594 183.52 441.778 184.304 442.146 184.992C442.53 185.664 443.042 186.192 443.682 186.576C444.338 186.944 445.074 187.128 445.89 187.128ZM466.919 174.288H461.159V172.2H475.055V174.288H469.295V189H466.919V174.288ZM481.468 189.144C480.204 189.144 479.068 188.864 478.06 188.304C477.052 187.744 476.26 186.976 475.684 186C475.124 185.008 474.844 183.888 474.844 182.64C474.844 181.392 475.124 180.28 475.684 179.304C476.26 178.312 477.052 177.544 478.06 177C479.068 176.44 480.204 176.16 481.468 176.16C482.732 176.16 483.86 176.44 484.852 177C485.86 177.544 486.644 178.312 487.204 179.304C487.78 180.28 488.068 181.392 488.068 182.64C488.068 183.888 487.78 185.008 487.204 186C486.644 186.976 485.86 187.744 484.852 188.304C483.86 188.864 482.732 189.144 481.468 189.144ZM481.468 187.128C482.284 187.128 483.012 186.944 483.652 186.576C484.308 186.192 484.82 185.664 485.188 184.992C485.556 184.304 485.74 183.52 485.74 182.64C485.74 181.76 485.556 180.984 485.188 180.312C484.82 179.624 484.308 179.096 483.652 178.728C483.012 178.36 482.284 178.176 481.468 178.176C480.652 178.176 479.916 178.36 479.26 178.728C478.62 179.096 478.108 179.624 477.724 180.312C477.356 180.984 477.172 181.76 477.172 182.64C477.172 183.52 477.356 184.304 477.724 184.992C478.108 185.664 478.62 186.192 479.26 186.576C479.916 186.944 480.652 187.128 481.468 187.128ZM498.406 188.256C498.07 188.544 497.654 188.768 497.158 188.928C496.662 189.072 496.15 189.144 495.622 189.144C494.342 189.144 493.35 188.8 492.646 188.112C491.942 187.424 491.59 186.44 491.59 185.16V178.176H489.43V176.28H491.59V173.496H493.894V176.28H497.542V178.176H493.894V185.064C493.894 185.752 494.062 186.28 494.398 186.648C494.75 187.016 495.246 187.2 495.886 187.2C496.59 187.2 497.19 187 497.686 186.6L498.406 188.256ZM512.266 182.712C512.266 182.888 512.25 183.12 512.218 183.408H501.898C502.042 184.528 502.53 185.432 503.362 186.12C504.21 186.792 505.258 187.128 506.506 187.128C508.026 187.128 509.25 186.616 510.178 185.592L511.45 187.08C510.874 187.752 510.154 188.264 509.29 188.616C508.442 188.968 507.49 189.144 506.434 189.144C505.09 189.144 503.898 188.872 502.858 188.328C501.818 187.768 501.01 186.992 500.434 186C499.874 185.008 499.594 183.888 499.594 182.64C499.594 181.408 499.866 180.296 500.41 179.304C500.97 178.312 501.73 177.544 502.69 177C503.666 176.44 504.762 176.16 505.978 176.16C507.194 176.16 508.274 176.44 509.218 177C510.178 177.544 510.922 178.312 511.45 179.304C511.994 180.296 512.266 181.432 512.266 182.712ZM505.978 178.104C504.874 178.104 503.946 178.44 503.194 179.112C502.458 179.784 502.026 180.664 501.898 181.752H510.058C509.93 180.68 509.49 179.808 508.738 179.136C508.002 178.448 507.082 178.104 505.978 178.104ZM531.377 176.16C532.977 176.16 534.241 176.624 535.169 177.552C536.113 178.48 536.585 179.856 536.585 181.68V189H534.281V181.944C534.281 180.712 533.993 179.784 533.417 179.16C532.857 178.536 532.049 178.224 530.993 178.224C529.825 178.224 528.897 178.592 528.209 179.328C527.521 180.048 527.177 181.088 527.177 182.448V189H524.873V181.944C524.873 180.712 524.585 179.784 524.009 179.16C523.449 178.536 522.641 178.224 521.585 178.224C520.417 178.224 519.489 178.592 518.801 179.328C518.113 180.048 517.769 181.088 517.769 182.448V189H515.465V176.28H517.673V178.176C518.137 177.52 518.745 177.024 519.497 176.688C520.249 176.336 521.105 176.16 522.065 176.16C523.057 176.16 523.937 176.36 524.705 176.76C525.473 177.16 526.065 177.744 526.481 178.512C526.961 177.776 527.625 177.2 528.473 176.784C529.337 176.368 530.305 176.16 531.377 176.16Z" fill="white"/>
<path d="M241.736 124.2V141H238.544L230.168 130.8V141H226.328V124.2H229.544L237.896 134.4V124.2H241.736ZM258.095 134.592C258.095 134.64 258.071 134.976 258.023 135.6H248.255C248.431 136.4 248.847 137.032 249.503 137.496C250.159 137.96 250.975 138.192 251.951 138.192C252.623 138.192 253.215 138.096 253.727 137.904C254.255 137.696 254.743 137.376 255.191 136.944L257.183 139.104C255.967 140.496 254.191 141.192 251.855 141.192C250.399 141.192 249.111 140.912 247.991 140.352C246.871 139.776 246.007 138.984 245.399 137.976C244.791 136.968 244.487 135.824 244.487 134.544C244.487 133.28 244.783 132.144 245.375 131.136C245.983 130.112 246.807 129.32 247.847 128.76C248.903 128.184 250.079 127.896 251.375 127.896C252.639 127.896 253.783 128.168 254.807 128.712C255.831 129.256 256.631 130.04 257.207 131.064C257.799 132.072 258.095 133.248 258.095 134.592ZM251.399 130.728C250.551 130.728 249.839 130.968 249.263 131.448C248.687 131.928 248.335 132.584 248.207 133.416H254.567C254.439 132.6 254.087 131.952 253.511 131.472C252.935 130.976 252.231 130.728 251.399 130.728ZM266.731 141.192C265.371 141.192 264.147 140.912 263.059 140.352C261.987 139.776 261.147 138.984 260.539 137.976C259.931 136.968 259.627 135.824 259.627 134.544C259.627 133.264 259.931 132.12 260.539 131.112C261.147 130.104 261.987 129.32 263.059 128.76C264.147 128.184 265.371 127.896 266.731 127.896C268.091 127.896 269.307 128.184 270.379 128.76C271.451 129.32 272.291 130.104 272.899 131.112C273.507 132.12 273.811 133.264 273.811 134.544C273.811 135.824 273.507 136.968 272.899 137.976C272.291 138.984 271.451 139.776 270.379 140.352C269.307 140.912 268.091 141.192 266.731 141.192ZM266.731 138.12C267.691 138.12 268.475 137.8 269.083 137.16C269.707 136.504 270.019 135.632 270.019 134.544C270.019 133.456 269.707 132.592 269.083 131.952C268.475 131.296 267.691 130.968 266.731 130.968C265.771 130.968 264.979 131.296 264.355 131.952C263.731 132.592 263.419 133.456 263.419 134.544C263.419 135.632 263.731 136.504 264.355 137.16C264.979 137.8 265.771 138.12 266.731 138.12ZM292.85 127.896C294.466 127.896 295.746 128.376 296.69 129.336C297.65 130.28 298.13 131.704 298.13 133.608V141H294.386V134.184C294.386 133.16 294.17 132.4 293.738 131.904C293.322 131.392 292.722 131.136 291.938 131.136C291.058 131.136 290.362 131.424 289.85 132C289.338 132.56 289.082 133.4 289.082 134.52V141H285.338V134.184C285.338 132.152 284.522 131.136 282.89 131.136C282.026 131.136 281.338 131.424 280.826 132C280.314 132.56 280.058 133.4 280.058 134.52V141H276.314V128.088H279.89V129.576C280.37 129.032 280.954 128.616 281.642 128.328C282.346 128.04 283.114 127.896 283.946 127.896C284.858 127.896 285.682 128.08 286.418 128.448C287.154 128.8 287.746 129.32 288.194 130.008C288.722 129.336 289.386 128.816 290.186 128.448C291.002 128.08 291.89 127.896 292.85 127.896ZM306.694 127.896C308.694 127.896 310.23 128.376 311.302 129.336C312.374 130.28 312.91 131.712 312.91 133.632V141H309.406V139.392C308.702 140.592 307.39 141.192 305.47 141.192C304.478 141.192 303.614 141.024 302.878 140.688C302.158 140.352 301.606 139.888 301.222 139.296C300.838 138.704 300.646 138.032 300.646 137.28C300.646 136.08 301.094 135.136 301.99 134.448C302.902 133.76 304.302 133.416 306.19 133.416H309.166C309.166 132.6 308.918 131.976 308.422 131.544C307.926 131.096 307.182 130.872 306.19 130.872C305.502 130.872 304.822 130.984 304.15 131.208C303.494 131.416 302.934 131.704 302.47 132.072L301.126 129.456C301.83 128.96 302.67 128.576 303.646 128.304C304.638 128.032 305.654 127.896 306.694 127.896ZM306.406 138.672C307.046 138.672 307.614 138.528 308.11 138.24C308.606 137.936 308.958 137.496 309.166 136.92V135.6H306.598C305.062 135.6 304.294 136.104 304.294 137.112C304.294 137.592 304.478 137.976 304.846 138.264C305.23 138.536 305.75 138.672 306.406 138.672ZM319.874 129.792C320.322 129.168 320.922 128.696 321.674 128.376C322.442 128.056 323.322 127.896 324.314 127.896V131.352C323.898 131.32 323.618 131.304 323.474 131.304C322.402 131.304 321.562 131.608 320.954 132.216C320.346 132.808 320.042 133.704 320.042 134.904V141H316.298V128.088H319.874V129.792ZM332.085 135.936L330.285 137.712V141H326.541V123.192H330.285V133.272L335.757 128.088H340.221L334.845 133.56L340.701 141H336.165L332.085 135.936ZM354.47 134.592C354.47 134.64 354.446 134.976 354.398 135.6H344.63C344.806 136.4 345.222 137.032 345.878 137.496C346.534 137.96 347.35 138.192 348.326 138.192C348.998 138.192 349.59 138.096 350.102 137.904C350.63 137.696 351.118 137.376 351.566 136.944L353.558 139.104C352.342 140.496 350.566 141.192 348.23 141.192C346.774 141.192 345.486 140.912 344.366 140.352C343.246 139.776 342.382 138.984 341.774 137.976C341.166 136.968 340.862 135.824 340.862 134.544C340.862 133.28 341.158 132.144 341.75 131.136C342.358 130.112 343.182 129.32 344.222 128.76C345.278 128.184 346.454 127.896 347.75 127.896C349.014 127.896 350.158 128.168 351.182 128.712C352.206 129.256 353.006 130.04 353.582 131.064C354.174 132.072 354.47 133.248 354.47 134.592ZM347.774 130.728C346.926 130.728 346.214 130.968 345.638 131.448C345.062 131.928 344.71 132.584 344.582 133.416H350.942C350.814 132.6 350.462 131.952 349.886 131.472C349.31 130.976 348.606 130.728 347.774 130.728ZM365.29 140.376C364.922 140.648 364.466 140.856 363.922 141C363.394 141.128 362.834 141.192 362.242 141.192C360.706 141.192 359.514 140.8 358.666 140.016C357.834 139.232 357.418 138.08 357.418 136.56V131.256H355.426V128.376H357.418V125.232H361.162V128.376H364.378V131.256H361.162V136.512C361.162 137.056 361.298 137.48 361.57 137.784C361.858 138.072 362.258 138.216 362.77 138.216C363.362 138.216 363.866 138.056 364.282 137.736L365.29 140.376Z" fill="white"/>
<defs>
<linearGradient id="paint0_linear_397_163" x1="148" y1="361" x2="148" y2="722" gradientUnits="userSpaceOnUse">
<stop stop-color="#C4F9C9"/>
<stop offset="1" stop-color="#B7FBB6" stop-opacity="0"/>
</linearGradient>
<linearGradient id="paint1_linear_397_163" x1="112.5" y1="361" x2="112.5" y2="722" gradientUnits="userSpaceOnUse">
<stop stop-color="#C4F9C9"/>
<stop offset="1" stop-color="#B7FBB6" stop-opacity="0"/>
</linearGradient>
<linearGradient id="paint2_linear_397_163" x1="41.5" y1="361" x2="41.5" y2="722" gradientUnits="userSpaceOnUse">
<stop stop-color="#C4F9C9"/>
<stop offset="1" stop-color="#B7FBB6" stop-opacity="0"/>
</linearGradient>
<linearGradient id="paint3_linear_397_163" x1="236" y1="361" x2="236" y2="722" gradientUnits="userSpaceOnUse">
<stop stop-color="#C4F9C9"/>
<stop offset="1" stop-color="#B7FBB6" stop-opacity="0"/>
</linearGradient>
<linearGradient id="paint4_linear_397_163" x1="200.5" y1="361" x2="200.5" y2="722" gradientUnits="userSpaceOnUse">
<stop stop-color="#C4F9C9"/>
<stop offset="1" stop-color="#B7FBB6" stop-opacity="0"/>
</linearGradient>
<linearGradient id="paint5_linear_397_163" x1="129.5" y1="361" x2="129.5" y2="722" gradientUnits="userSpaceOnUse">
<stop stop-color="#C4F9C9"/>
<stop offset="1" stop-color="#B7FBB6" stop-opacity="0"/>
</linearGradient>
<linearGradient id="paint6_linear_397_163" x1="324" y1="361" x2="324" y2="722" gradientUnits="userSpaceOnUse">
<stop stop-color="#C4F9C9"/>
<stop offset="1" stop-color="#B7FBB6" stop-opacity="0"/>
</linearGradient>
<linearGradient id="paint7_linear_397_163" x1="288.5" y1="361" x2="288.5" y2="722" gradientUnits="userSpaceOnUse">
<stop stop-color="#C4F9C9"/>
<stop offset="1" stop-color="#B7FBB6" stop-opacity="0"/>
</linearGradient>
<linearGradient id="paint8_linear_397_163" x1="217.5" y1="361" x2="217.5" y2="722" gradientUnits="userSpaceOnUse">
<stop stop-color="#C4F9C9"/>
<stop offset="1" stop-color="#B7FBB6" stop-opacity="0"/>
</linearGradient>
<linearGradient id="paint9_linear_397_163" x1="412" y1="361" x2="412" y2="722" gradientUnits="userSpaceOnUse">
<stop stop-color="#C4F9C9"/>
<stop offset="1" stop-color="#B7FBB6" stop-opacity="0"/>
</linearGradient>
<linearGradient id="paint10_linear_397_163" x1="376.5" y1="361" x2="376.5" y2="722" gradientUnits="userSpaceOnUse">
<stop stop-color="#C4F9C9"/>
<stop offset="1" stop-color="#B7FBB6" stop-opacity="0"/>
</linearGradient>
<linearGradient id="paint11_linear_397_163" x1="305.5" y1="361" x2="305.5" y2="722" gradientUnits="userSpaceOnUse">
<stop stop-color="#C4F9C9"/>
<stop offset="1" stop-color="#B7FBB6" stop-opacity="0"/>
</linearGradient>
<linearGradient id="paint12_linear_397_163" x1="500" y1="361" x2="500" y2="722" gradientUnits="userSpaceOnUse">
<stop stop-color="#C4F9C9"/>
<stop offset="1" stop-color="#B7FBB6" stop-opacity="0"/>
</linearGradient>
<linearGradient id="paint13_linear_397_163" x1="464.5" y1="361" x2="464.5" y2="722" gradientUnits="userSpaceOnUse">
<stop stop-color="#C4F9C9"/>
<stop offset="1" stop-color="#B7FBB6" stop-opacity="0"/>
</linearGradient>
<linearGradient id="paint14_linear_397_163" x1="393.5" y1="361" x2="393.5" y2="722" gradientUnits="userSpaceOnUse">
<stop stop-color="#C4F9C9"/>
<stop offset="1" stop-color="#B7FBB6" stop-opacity="0"/>
</linearGradient>
<linearGradient id="paint15_linear_397_163" x1="588" y1="361" x2="588" y2="722" gradientUnits="userSpaceOnUse">
<stop stop-color="#C4F9C9"/>
<stop offset="1" stop-color="#B7FBB6" stop-opacity="0"/>
</linearGradient>
<linearGradient id="paint16_linear_397_163" x1="552.5" y1="361" x2="552.5" y2="722" gradientUnits="userSpaceOnUse">
<stop stop-color="#C4F9C9"/>
<stop offset="1" stop-color="#B7FBB6" stop-opacity="0"/>
</linearGradient>
<linearGradient id="paint17_linear_397_163" x1="481.5" y1="361" x2="481.5" y2="722" gradientUnits="userSpaceOnUse">
<stop stop-color="#C4F9C9"/>
<stop offset="1" stop-color="#B7FBB6" stop-opacity="0"/>
</linearGradient>
</defs>
</svg>
