<svg width="592" height="361" viewBox="0 0 592 361" fill="none" xmlns="http://www.w3.org/2000/svg">
<rect x="1" y="3" width="591" height="356.949" rx="6" fill="#F4F5F7"/>
<g clip-path="url(#clip0_397_262)">
<path d="M311.785 193.393C312.503 189.997 313.147 186.965 313.784 183.932C315.588 175.339 317.385 166.745 319.174 158.15C319.348 157.305 319.696 157.045 320.548 157.059C323.707 157.113 326.867 157.08 330.027 157.081C331.592 157.081 331.578 157.079 331.234 158.697C330.138 163.847 329.049 168.999 327.966 174.152C326.68 180.243 325.397 186.334 324.115 192.426C323.264 196.496 322.408 200.564 321.615 204.645C321.425 205.622 321.071 205.955 320.038 205.943C314.691 205.879 309.344 205.879 303.996 205.943C302.964 205.955 302.614 205.609 302.399 204.649C300.723 197.166 298.994 189.695 297.289 182.218C296.287 177.827 295.299 173.434 294.25 168.802C293.552 170.611 293.384 172.332 293.012 173.986C291.818 179.303 290.735 184.648 289.623 189.984C288.634 194.725 287.603 199.458 286.718 204.22C286.456 205.629 285.923 206.011 284.537 205.952C281.545 205.825 278.54 205.837 275.547 205.95C274.306 205.997 274.207 205.506 274.415 204.545C275.256 200.66 276.11 196.778 276.923 192.887C278.611 184.817 280.264 176.741 281.954 168.672C282.69 165.159 283.514 161.666 284.232 158.15C284.407 157.292 284.748 157.054 285.596 157.06C291.065 157.1 296.534 157.113 302.003 157.051C303.034 157.04 303.39 157.382 303.603 158.348C304.895 164.202 306.16 170.064 307.6 175.881C308.689 180.284 309.716 184.701 310.765 189.114C311.076 190.416 311.385 191.718 311.785 193.393Z" fill="#226CB4"/>
<path d="M221.495 171.409C219.551 171.409 217.607 171.388 215.663 171.42C215.024 171.431 214.867 171.291 214.96 170.597C215.282 168.178 214.214 166.551 211.873 165.906C208.902 165.088 206.149 165.537 203.857 167.731C201.619 169.873 202.005 172.629 204.726 174.081C207.221 175.413 209.997 175.887 212.698 176.574C214.893 177.133 217.099 177.649 219.191 178.553C224.766 180.962 226.839 185.031 225.7 191.079C224.556 197.15 220.938 201.234 215.597 203.757C207.847 207.419 199.718 207.887 191.539 205.623C183.718 203.457 182.25 197.554 183.302 191.039C183.38 190.562 183.582 190.348 184.098 190.35C188.067 190.368 192.036 190.36 196.005 190.358C196.396 190.358 196.642 190.369 196.669 190.932C196.907 195.782 198.902 197.647 203.655 197.433C205.663 197.343 207.564 196.807 209.237 195.611C210.857 194.453 211.704 192.899 211.456 190.875C211.237 189.096 209.914 188.272 208.445 187.659C205.479 186.421 202.297 185.937 199.243 185.002C197.384 184.433 195.551 183.808 193.779 182.998C189.674 181.123 187.651 177.856 188.046 173.307C188.646 166.396 192.248 161.468 198.437 158.745C205.777 155.516 213.441 155.211 221.122 157.43C224.849 158.508 227.731 160.738 228.592 164.869C228.999 166.823 228.785 168.775 228.358 170.719C228.209 171.395 227.845 171.417 227.329 171.413C225.384 171.401 223.439 171.409 221.495 171.409Z" fill="#226CB4"/>
<path d="M248.47 205.864C242.677 205.864 236.885 205.848 231.093 205.882C230.234 205.887 230.101 205.657 230.274 204.838C233.573 189.27 236.846 173.697 240.094 158.118C240.274 157.255 240.625 157.117 241.378 157.118C252.882 157.138 264.385 157.136 275.889 157.115C276.76 157.112 277.008 157.289 276.792 158.203C276.225 160.591 275.688 162.989 275.269 165.406C275.103 166.363 274.718 166.562 273.843 166.557C266.877 166.526 259.909 166.564 252.943 166.512C251.93 166.504 251.541 166.789 251.36 167.793C250.889 170.409 250.343 173.014 249.74 175.603C249.532 176.494 249.792 176.629 250.585 176.627C256.986 176.603 263.387 176.644 269.785 176.584C270.89 176.574 271.026 176.866 270.793 177.862C270.233 180.251 269.733 182.654 269.295 185.071C269.133 185.965 268.722 186.129 267.908 186.125C261.549 186.093 255.189 186.136 248.83 186.078C247.802 186.069 247.441 186.392 247.261 187.371C246.773 190.027 246.237 192.676 245.611 195.301C245.364 196.335 245.697 196.458 246.586 196.454C253.513 196.428 260.439 196.463 267.365 196.415C268.463 196.408 268.768 196.619 268.481 197.769C267.897 200.108 267.407 202.476 266.981 204.851C266.831 205.685 266.516 205.886 265.725 205.881C259.973 205.849 254.221 205.864 248.47 205.864Z" fill="#226CB4"/>
<path d="M392.264 205.864C390.36 205.864 388.452 205.789 386.553 205.892C385.436 205.953 385.651 205.39 385.789 204.736C387.187 198.088 388.583 191.44 389.978 184.791C391.821 176.021 393.681 167.254 395.488 158.475C395.691 157.486 395.979 157.073 397.083 157.099C400.768 157.186 404.457 157.154 408.144 157.115C408.975 157.106 409.109 157.281 408.93 158.126C405.638 173.701 402.373 189.282 399.136 204.869C398.971 205.661 398.654 205.913 397.854 205.885C395.993 205.819 394.127 205.864 392.264 205.864Z" fill="#226CB4"/>
<path d="M380.307 204.822C377.491 189.275 374.698 173.723 371.929 158.167C371.785 157.36 371.506 157.105 370.691 157.112C365.992 157.152 361.293 157.151 356.593 157.108C355.698 157.098 355.25 157.415 354.801 158.168C348.022 169.527 341.222 180.873 334.403 192.208C331.717 196.684 329.031 201.159 326.207 205.863C330.608 205.863 334.773 205.846 338.939 205.88C339.592 205.885 339.746 205.469 339.973 205.048C341.388 202.425 342.818 199.81 344.202 197.17C344.526 196.552 344.891 196.298 345.611 196.302C351.444 196.335 357.278 196.334 363.112 196.299C364.004 196.293 364.298 196.576 364.39 197.448C364.651 199.933 365.046 202.403 365.289 204.89C365.369 205.7 365.642 205.885 366.393 205.879C370.768 205.847 375.144 205.839 379.518 205.883C380.424 205.893 380.448 205.599 380.307 204.822ZM362.357 186.906C358.324 186.91 354.291 186.907 350.044 186.907C353.692 180.063 357.245 173.395 360.799 166.728L361.049 166.791C361.259 168.942 361.477 171.092 361.678 173.244C362.071 177.444 362.456 181.644 362.832 185.844C362.866 186.242 363.249 186.905 362.357 186.906Z" fill="#226CB4"/>
</g>
<rect width="592" height="361" rx="6" fill="#A8A8A8"/>
<path d="M62.4735 189L58.4895 183.36C60.8415 182.52 62.1855 180.648 62.1855 178.056C62.1855 174.408 59.5455 172.2 55.1775 172.2H48.6255V189H51.0255V183.888H55.1775C55.5375 183.888 55.8975 183.864 56.2335 183.84L59.8575 189H62.4735ZM55.1055 181.848H51.0255V174.288H55.1055C58.1775 174.288 59.7855 175.656 59.7855 178.056C59.7855 180.456 58.1775 181.848 55.1055 181.848ZM77.223 182.712C77.223 178.8 74.607 176.16 70.935 176.16C67.263 176.16 64.551 178.872 64.551 182.64C64.551 186.432 67.287 189.144 71.391 189.144C73.503 189.144 75.255 188.424 76.407 187.08L75.135 185.592C74.199 186.624 72.951 187.128 71.463 187.128C68.943 187.128 67.143 185.64 66.855 183.408H77.175C77.199 183.192 77.223 182.904 77.223 182.712ZM70.935 178.104C73.167 178.104 74.775 179.616 75.015 181.752H66.855C67.095 179.592 68.727 178.104 70.935 178.104ZM84.0703 189.144C87.4543 189.144 89.5663 187.68 89.5663 185.376C89.5663 180.432 81.5023 182.88 81.5023 179.88C81.5023 178.872 82.4863 178.128 84.5023 178.128C85.7503 178.128 87.0223 178.392 88.1743 179.136L89.1583 177.312C88.0543 176.592 86.1823 176.16 84.5263 176.16C81.2623 176.16 79.2223 177.696 79.2223 179.976C79.2223 185.04 87.2623 182.568 87.2623 185.424C87.2623 186.504 86.3743 187.152 84.2383 187.152C82.5823 187.152 80.8543 186.6 79.7743 185.832L78.8143 187.656C79.8703 188.496 81.9583 189.144 84.0703 189.144ZM103.942 182.712C103.942 178.8 101.326 176.16 97.6537 176.16C93.9817 176.16 91.2697 178.872 91.2697 182.64C91.2697 186.432 94.0057 189.144 98.1097 189.144C100.222 189.144 101.974 188.424 103.126 187.08L101.854 185.592C100.918 186.624 99.6697 187.128 98.1817 187.128C95.6617 187.128 93.8617 185.64 93.5737 183.408H103.894C103.918 183.192 103.942 182.904 103.942 182.712ZM97.6537 178.104C99.8857 178.104 101.494 179.616 101.734 181.752H93.5737C93.8137 179.592 95.4457 178.104 97.6537 178.104ZM111.421 176.16C109.381 176.16 107.485 176.736 106.165 177.792L107.125 179.52C108.109 178.68 109.645 178.152 111.157 178.152C113.437 178.152 114.565 179.28 114.565 181.224V181.68H110.917C107.125 181.68 105.805 183.36 105.805 185.4C105.805 187.608 107.629 189.144 110.509 189.144C112.501 189.144 113.917 188.472 114.685 187.32V189H116.869V181.32C116.869 177.84 114.901 176.16 111.421 176.16ZM110.893 187.368C109.141 187.368 108.085 186.576 108.085 185.304C108.085 184.224 108.733 183.336 111.013 183.336H114.565V185.112C113.989 186.576 112.621 187.368 110.893 187.368ZM123.341 178.416V176.28H121.133V189H123.437V182.664C123.437 179.88 124.973 178.368 127.445 178.368C127.613 178.368 127.781 178.368 127.973 178.392V176.16C125.741 176.16 124.157 176.928 123.341 178.416ZM136.24 189.144C138.52 189.144 140.416 188.184 141.424 186.408L139.672 185.304C138.856 186.552 137.608 187.128 136.216 187.128C133.72 187.128 131.848 185.4 131.848 182.64C131.848 179.928 133.72 178.176 136.216 178.176C137.608 178.176 138.856 178.752 139.672 180L141.424 178.872C140.416 177.096 138.52 176.16 136.24 176.16C132.328 176.16 129.52 178.848 129.52 182.64C129.52 186.432 132.328 189.144 136.24 189.144ZM151.035 176.16C149.091 176.16 147.507 176.856 146.547 178.08V171.192H144.243V189H146.547V182.448C146.547 179.688 148.131 178.224 150.579 178.224C152.763 178.224 154.011 179.448 154.011 181.944V189H156.315V181.68C156.315 177.936 154.131 176.16 151.035 176.16ZM161.155 185.856C160.243 185.856 159.547 186.528 159.547 187.488C159.547 188.208 159.955 188.76 160.555 188.976L159.667 192.552H161.179L162.307 189.216C162.619 188.328 162.715 187.968 162.715 187.488C162.715 186.552 162.067 185.856 161.155 185.856ZM179.757 189.192C184.197 189.192 186.861 186.624 186.861 181.752V172.2H184.533V181.656C184.533 185.376 182.805 187.056 179.781 187.056C176.757 187.056 175.053 185.376 175.053 181.656V172.2H172.653V181.752C172.653 186.624 175.341 189.192 179.757 189.192ZM191.782 189H194.182V172.2H191.782V189ZM196.019 191.4H198.107L206.027 168.792H203.939L196.019 191.4ZM214.609 189.192C219.049 189.192 221.713 186.624 221.713 181.752V172.2H219.385V181.656C219.385 185.376 217.657 187.056 214.633 187.056C211.609 187.056 209.905 185.376 209.905 181.656V172.2H207.505V181.752C207.505 186.624 210.193 189.192 214.609 189.192ZM239.719 189L233.359 180.312L239.287 172.2H236.671L232.015 178.656L227.311 172.2H224.575L230.503 180.384L224.191 189H226.951L231.919 182.064L236.959 189H239.719ZM248.993 189H256.073C261.473 189 265.145 185.592 265.145 180.6C265.145 175.608 261.473 172.2 256.073 172.2H248.993V189ZM251.393 186.912V174.288H255.929C260.081 174.288 262.745 176.832 262.745 180.6C262.745 184.368 260.081 186.912 255.929 186.912H251.393ZM279.981 182.712C279.981 178.8 277.365 176.16 273.693 176.16C270.021 176.16 267.309 178.872 267.309 182.64C267.309 186.432 270.045 189.144 274.149 189.144C276.261 189.144 278.013 188.424 279.165 187.08L277.893 185.592C276.957 186.624 275.709 187.128 274.221 187.128C271.701 187.128 269.901 185.64 269.613 183.408H279.933C279.957 183.192 279.981 182.904 279.981 182.712ZM273.693 178.104C275.925 178.104 277.533 179.616 277.773 181.752H269.613C269.853 179.592 271.485 178.104 273.693 178.104ZM286.828 189.144C290.212 189.144 292.324 187.68 292.324 185.376C292.324 180.432 284.26 182.88 284.26 179.88C284.26 178.872 285.244 178.128 287.26 178.128C288.508 178.128 289.78 178.392 290.932 179.136L291.916 177.312C290.812 176.592 288.94 176.16 287.284 176.16C284.02 176.16 281.98 177.696 281.98 179.976C281.98 185.04 290.02 182.568 290.02 185.424C290.02 186.504 289.132 187.152 286.996 187.152C285.34 187.152 283.612 186.6 282.532 185.832L281.572 187.656C282.628 188.496 284.716 189.144 286.828 189.144ZM296.356 173.832C297.268 173.832 297.916 173.16 297.916 172.296C297.916 171.48 297.244 170.832 296.356 170.832C295.468 170.832 294.796 171.504 294.796 172.344C294.796 173.184 295.468 173.832 296.356 173.832ZM295.204 189H297.508V176.28H295.204V189ZM311.891 176.28V178.248C310.811 176.856 309.083 176.16 307.187 176.16C303.515 176.16 300.731 178.632 300.731 182.304C300.731 185.976 303.515 188.472 307.187 188.472C309.011 188.472 310.667 187.824 311.771 186.504V187.512C311.771 190.392 310.403 191.784 307.403 191.784C305.531 191.784 303.683 191.136 302.507 190.128L301.403 191.904C302.795 193.152 305.147 193.8 307.475 193.8C311.795 193.8 314.075 191.76 314.075 187.272V176.28H311.891ZM307.451 186.456C304.883 186.456 303.059 184.752 303.059 182.304C303.059 179.832 304.883 178.176 307.451 178.176C309.995 178.176 311.819 179.832 311.819 182.304C311.819 184.752 309.995 186.456 307.451 186.456ZM325.269 176.16C323.253 176.16 321.621 176.904 320.685 178.2V176.28H318.477V189H320.781V182.448C320.781 179.688 322.365 178.224 324.813 178.224C326.997 178.224 328.245 179.448 328.245 181.944V189H330.549V181.68C330.549 177.936 328.365 176.16 325.269 176.16ZM335.389 185.856C334.477 185.856 333.781 186.528 333.781 187.488C333.781 188.208 334.189 188.76 334.789 188.976L333.901 192.552H335.413L336.541 189.216C336.853 188.328 336.949 187.968 336.949 187.488C336.949 186.552 336.301 185.856 335.389 185.856ZM368.488 172.2L363.856 185.928L359.224 172.2H357.016L352.288 185.856L347.752 172.2H345.28L350.896 189H353.464L358.048 175.584L362.632 189H365.152L370.768 172.2H368.488ZM383.903 182.712C383.903 178.8 381.287 176.16 377.615 176.16C373.943 176.16 371.231 178.872 371.231 182.64C371.231 186.432 373.967 189.144 378.071 189.144C380.183 189.144 381.935 188.424 383.087 187.08L381.815 185.592C380.879 186.624 379.631 187.128 378.143 187.128C375.623 187.128 373.823 185.64 373.535 183.408H383.855C383.879 183.192 383.903 182.904 383.903 182.712ZM377.615 178.104C379.847 178.104 381.455 179.616 381.695 181.752H373.535C373.775 179.592 375.407 178.104 377.615 178.104ZM393.846 176.16C392.046 176.16 390.462 176.832 389.406 178.2V171.192H387.102V189H389.31V186.984C390.342 188.424 391.974 189.144 393.846 189.144C397.566 189.144 400.278 186.528 400.278 182.64C400.278 178.752 397.566 176.16 393.846 176.16ZM393.654 187.128C391.23 187.128 389.382 185.352 389.382 182.64C389.382 179.928 391.23 178.176 393.654 178.176C396.102 178.176 397.95 179.928 397.95 182.64C397.95 185.352 396.102 187.128 393.654 187.128ZM414.539 176.16C412.499 176.16 410.603 176.736 409.283 177.792L410.243 179.52C411.227 178.68 412.763 178.152 414.275 178.152C416.555 178.152 417.683 179.28 417.683 181.224V181.68H414.035C410.243 181.68 408.923 183.36 408.923 185.4C408.923 187.608 410.747 189.144 413.627 189.144C415.619 189.144 417.035 188.472 417.803 187.32V189H419.987V181.32C419.987 177.84 418.019 176.16 414.539 176.16ZM414.011 187.368C412.259 187.368 411.203 186.576 411.203 185.304C411.203 184.224 411.851 183.336 414.131 183.336H417.683V185.112C417.107 186.576 415.739 187.368 414.011 187.368ZM431.042 176.16C429.026 176.16 427.394 176.904 426.458 178.2V176.28H424.25V189H426.554V182.448C426.554 179.688 428.138 178.224 430.586 178.224C432.77 178.224 434.018 179.448 434.018 181.944V189H436.322V181.68C436.322 177.936 434.138 176.16 431.042 176.16ZM450.353 171.192V178.2C449.297 176.832 447.713 176.16 445.913 176.16C442.193 176.16 439.481 178.752 439.481 182.64C439.481 186.528 442.193 189.144 445.913 189.144C447.785 189.144 449.417 188.424 450.449 186.984V189H452.657V171.192H450.353ZM446.105 187.128C443.657 187.128 441.809 185.352 441.809 182.64C441.809 179.928 443.657 178.176 446.105 178.176C448.529 178.176 450.377 179.928 450.377 182.64C450.377 185.352 448.529 187.128 446.105 187.128ZM481.677 189L481.653 172.2H479.685L472.773 184.008L465.765 172.2H463.797V189H466.101V176.832L472.173 186.96H473.277L479.349 176.76L479.373 189H481.677ZM491.831 189.144C495.647 189.144 498.431 186.432 498.431 182.64C498.431 178.848 495.647 176.16 491.831 176.16C488.015 176.16 485.207 178.848 485.207 182.64C485.207 186.432 488.015 189.144 491.831 189.144ZM491.831 187.128C489.383 187.128 487.535 185.352 487.535 182.64C487.535 179.928 489.383 178.176 491.831 178.176C494.279 178.176 496.103 179.928 496.103 182.64C496.103 185.352 494.279 187.128 491.831 187.128ZM508.362 176.16C506.562 176.16 504.978 176.832 503.922 178.2V171.192H501.618V189H503.826V186.984C504.858 188.424 506.49 189.144 508.362 189.144C512.082 189.144 514.794 186.528 514.794 182.64C514.794 178.752 512.082 176.16 508.362 176.16ZM508.17 187.128C505.746 187.128 503.898 185.352 503.898 182.64C503.898 179.928 505.746 178.176 508.17 178.176C510.618 178.176 512.466 179.928 512.466 182.64C512.466 185.352 510.618 187.128 508.17 187.128ZM519.129 173.832C520.041 173.832 520.689 173.16 520.689 172.296C520.689 171.48 520.017 170.832 519.129 170.832C518.241 170.832 517.569 171.504 517.569 172.344C517.569 173.184 518.241 173.832 519.129 173.832ZM517.977 189H520.281V176.28H517.977V189ZM524.68 189H526.984V171.192H524.68V189ZM542.879 182.712C542.879 178.8 540.263 176.16 536.591 176.16C532.919 176.16 530.207 178.872 530.207 182.64C530.207 186.432 532.943 189.144 537.047 189.144C539.159 189.144 540.911 188.424 542.063 187.08L540.791 185.592C539.855 186.624 538.607 187.128 537.119 187.128C534.599 187.128 532.799 185.64 532.511 183.408H542.831C542.855 183.192 542.879 182.904 542.879 182.712ZM536.591 178.104C538.823 178.104 540.431 179.616 540.671 181.752H532.511C532.751 179.592 534.383 178.104 536.591 178.104Z" fill="white"/>
<path d="M267.977 141.288C272.777 141.288 275.105 138.888 275.105 136.08C275.105 129.912 265.337 132.048 265.337 128.952C265.337 127.896 266.225 127.032 268.529 127.032C270.017 127.032 271.625 127.464 273.185 128.352L274.385 125.4C272.825 124.416 270.665 123.912 268.553 123.912C263.777 123.912 261.473 126.288 261.473 129.144C261.473 135.384 271.241 133.224 271.241 136.368C271.241 137.4 270.305 138.168 268.001 138.168C265.985 138.168 263.873 137.448 262.457 136.416L261.137 139.344C262.625 140.496 265.313 141.288 267.977 141.288ZM290.146 134.592C290.146 130.44 287.218 127.896 283.426 127.896C279.49 127.896 276.538 130.68 276.538 134.544C276.538 138.384 279.442 141.192 283.906 141.192C286.234 141.192 288.034 140.472 289.234 139.104L287.242 136.944C286.354 137.784 285.37 138.192 284.002 138.192C282.034 138.192 280.666 137.208 280.306 135.6H290.074C290.098 135.288 290.146 134.88 290.146 134.592ZM283.45 130.728C285.13 130.728 286.354 131.784 286.618 133.416H280.258C280.522 131.76 281.746 130.728 283.45 130.728ZM300.486 127.896C298.734 127.896 297.222 128.496 296.214 129.6V128.088H292.638V141H296.382V134.616C296.382 132.24 297.678 131.136 299.478 131.136C301.134 131.136 302.094 132.096 302.094 134.184V141H305.838V133.608C305.838 129.672 303.534 127.896 300.486 127.896ZM314.44 127.896C312.376 127.896 310.288 128.448 308.872 129.456L310.216 132.072C311.152 131.328 312.568 130.872 313.936 130.872C315.952 130.872 316.912 131.808 316.912 133.416H313.936C310 133.416 308.392 135 308.392 137.28C308.392 139.512 310.192 141.192 313.216 141.192C315.112 141.192 316.456 140.568 317.152 139.392V141H320.656V133.632C320.656 129.72 318.376 127.896 314.44 127.896ZM314.152 138.672C312.832 138.672 312.04 138.048 312.04 137.112C312.04 136.248 312.592 135.6 314.344 135.6H316.912V136.92C316.48 138.096 315.4 138.672 314.152 138.672ZM325.916 126.288C327.308 126.288 328.244 125.376 328.244 124.128C328.244 122.976 327.308 122.112 325.916 122.112C324.524 122.112 323.588 123.024 323.588 124.2C323.588 125.376 324.524 126.288 325.916 126.288ZM324.044 141H327.788V128.088H324.044V141Z" fill="white"/>
<defs>
<clipPath id="clip0_397_262">
<rect width="226" height="51" fill="white" transform="translate(183 156)"/>
</clipPath>
</defs>
</svg>
