<svg width="374" height="299" viewBox="0 0 374 299" fill="none" xmlns="http://www.w3.org/2000/svg">
<path opacity="0.2" fill-rule="evenodd" clip-rule="evenodd" d="M340.784 298.431L307.628 298.431L307.628 232L340.784 232C359.129 232 374 246.871 374 265.215C374 283.56 359.129 298.431 340.784 298.431ZM230.721 298.431L297.093 298.431L297.093 232L230.721 232L230.721 298.431ZM153.814 265.215C153.814 283.56 168.685 298.431 187.029 298.431L220.185 298.431L220.185 232L187.029 232C168.685 232 153.814 246.871 153.814 265.215ZM76.9067 265.215C76.9067 283.543 91.7645 298.431 110.093 298.431C128.421 298.431 143.278 283.543 143.278 265.215C143.278 246.887 128.421 232 110.093 232C91.7645 232 76.9067 246.887 76.9067 265.215ZM66.3715 298.431L-0.000244141 298.431L-0.000249943 232C36.6559 232 66.3715 261.775 66.3715 298.431ZM66.3715 221.405L-0.000244141 221.405L-0.000249943 154.974L66.3715 154.974L66.3715 221.405ZM-0.000249943 77.7727C-0.000246741 114.429 29.7154 144.204 66.3715 144.204L66.3715 77.7727L-0.000249943 77.7727ZM33.1856 67.1783C14.8576 67.1783 -0.000245441 52.2908 -0.000247042 33.9627C-0.000248643 15.6346 14.8576 0.74713 33.1856 0.747128C51.5137 0.747127 66.3715 15.6346 66.3715 33.9627C66.3715 52.2908 51.5137 67.1783 33.1856 67.1783ZM143.278 221.405C106.622 221.405 76.9067 191.63 76.9067 154.974L143.278 154.974L143.278 221.405ZM76.9067 144.204L143.278 144.204C143.278 107.548 113.563 77.7727 76.9067 77.7727L76.9067 144.204ZM143.278 67.1783L76.9067 67.1783L76.9067 0.747125C113.563 0.747121 143.278 30.5221 143.278 67.1783ZM187 221.405C168.672 221.405 153.814 206.518 153.814 188.19C153.814 169.862 168.672 154.974 187 154.974C205.328 154.974 220.186 169.862 220.186 188.19C220.186 206.518 205.328 221.405 187 221.405ZM220.186 144.204L220.186 77.7728L153.814 77.7728L153.814 144.204L220.186 144.204ZM186.97 67.1783L153.814 67.1783L153.814 0.747209L186.97 0.747207C205.314 0.747205 220.185 15.6183 220.185 33.9627C220.185 52.3072 205.314 67.1783 186.97 67.1783ZM297.093 221.405L230.721 221.405C230.721 184.749 260.437 154.974 297.093 154.974L297.093 221.405ZM230.721 144.38L297.093 144.38C297.093 107.724 267.377 77.9486 230.721 77.9486L230.721 144.38ZM307.628 188.19C307.628 206.518 322.486 221.405 340.814 221.405C359.142 221.405 374 206.518 374 188.19C374 169.862 359.142 154.974 340.814 154.974C322.486 154.974 307.628 169.862 307.628 188.19ZM340.814 144.204C322.486 144.204 307.628 129.316 307.628 110.988C307.628 92.6603 322.486 77.7728 340.814 77.7728C359.142 77.7728 374 92.6603 374 110.988C374 129.316 359.142 144.204 340.814 144.204Z" fill="url(#paint0_linear_353_3808)"/>
<defs>
<linearGradient id="paint0_linear_353_3808" x1="-238.679" y1="484.402" x2="194.99" y2="-6.0662" gradientUnits="userSpaceOnUse">
<stop stop-color="white"/>
<stop offset="1" stop-color="white" stop-opacity="0"/>
</linearGradient>
</defs>
</svg>
