<svg width="365" height="290" viewBox="0 0 365 290" fill="none" xmlns="http://www.w3.org/2000/svg">
<path opacity="0.2" fill-rule="evenodd" clip-rule="evenodd" d="M299.417 289.479L364.018 289.479L364.018 224.879C328.34 224.879 299.417 253.801 299.417 289.479ZM299.417 214.577L364.018 214.577L364.018 149.976L299.417 149.976L299.417 214.577ZM364.018 74.9027C364.018 110.58 335.095 139.503 299.417 139.503L299.417 74.9027L364.018 74.9027ZM331.718 64.6002C349.556 64.6002 364.018 50.139 364.018 32.3001C364.018 14.4613 349.556 5.97709e-05 331.718 5.82114e-05C313.879 5.66519e-05 299.417 14.4613 299.417 32.3001C299.417 50.139 313.879 64.6002 331.718 64.6002ZM289.163 257.179C289.163 275.018 274.702 289.479 256.863 289.479C239.024 289.479 224.563 275.018 224.563 257.179C224.563 239.34 239.024 224.879 256.863 224.879C274.702 224.879 289.163 239.34 289.163 257.179ZM224.563 214.577C260.241 214.577 289.163 185.654 289.163 149.976L224.563 149.976L224.563 214.577ZM224.563 139.503C224.563 103.825 253.486 74.9027 289.163 74.9027L289.163 139.503L224.563 139.503ZM289.163 2.39736e-05C253.486 2.08546e-05 224.563 28.9225 224.563 64.6002L289.163 64.6002L289.163 2.39736e-05ZM214.309 257.179C214.309 275.018 199.848 289.479 182.009 289.479L149.709 289.479L149.709 224.879L182.009 224.879C199.848 224.879 214.309 239.34 214.309 257.179ZM182.009 214.577C199.848 214.577 214.309 200.115 214.309 182.276C214.309 164.438 199.848 149.976 182.009 149.976C164.17 149.976 149.709 164.438 149.709 182.276C149.709 200.115 164.17 214.577 182.009 214.577ZM149.709 139.503L149.709 74.9027L214.309 74.9027L214.309 139.503L149.709 139.503ZM182.009 64.6002L214.309 64.6002L214.309 1.74296e-05L182.009 1.46059e-05C164.17 1.30464e-05 149.709 14.4613 149.709 32.3001C149.709 50.139 164.17 64.6002 182.009 64.6002ZM139.455 289.479L74.8545 289.479L74.8545 224.879L139.455 224.879L139.455 289.479ZM74.8544 214.577L139.455 214.577C139.455 178.899 110.532 149.976 74.8544 149.976L74.8544 214.577ZM139.455 139.674L74.8544 139.674C74.8544 103.996 103.777 75.0737 139.455 75.0737L139.455 139.674ZM32.3003 289.479L64.6004 289.479L64.6004 224.879L32.3003 224.879C14.4615 224.879 0.000218006 239.34 0.000216447 257.179C0.000214887 275.018 14.4615 289.479 32.3003 289.479ZM64.6004 182.276C64.6004 200.115 50.1392 214.577 32.3003 214.577C14.4615 214.577 0.000221435 200.115 0.000222995 182.276C0.000224555 164.438 14.4615 149.976 32.3003 149.976C50.1392 149.976 64.6004 164.438 64.6004 182.276ZM32.3003 139.503C50.1392 139.503 64.6004 125.042 64.6004 107.203C64.6004 89.3639 50.1392 74.9027 32.3003 74.9027C14.4615 74.9026 0.000231118 89.3639 0.000229558 107.203C0.000227999 125.042 14.4615 139.503 32.3003 139.503Z" fill="url(#paint0_linear_353_3763)"/>
<defs>
<linearGradient id="paint0_linear_353_3763" x1="596.326" y1="470.325" x2="174.655" y2="-6.99978" gradientUnits="userSpaceOnUse">
<stop stop-color="white"/>
<stop offset="1" stop-color="white" stop-opacity="0"/>
</linearGradient>
</defs>
</svg>
