<svg width="329" height="325" viewBox="0 0 329 325" fill="none" xmlns="http://www.w3.org/2000/svg">
<g opacity="0.5">
<ellipse opacity="0.6" cx="324.345" cy="4.98576" rx="4.3848" ry="4.38851" transform="rotate(-180 324.345 4.98576)" fill="#E7FDE8"/>
<ellipse opacity="0.6" cx="75.5193" cy="0.597328" rx="4.3848" ry="4.38851" transform="rotate(-180 75.5193 0.597328)" fill="#E7FDE8"/>
<ellipse opacity="0.6" cx="191.163" cy="32.9626" rx="2.7405" ry="2.74282" transform="rotate(-180 191.163 32.9626)" fill="#E7FDE8"/>
<ellipse opacity="0.6" cx="299.134" cy="122.379" rx="4.3848" ry="4.38851" transform="rotate(-180 299.134 122.379)" fill="#E7FDE8"/>
<ellipse opacity="0.6" cx="9.20233" cy="114.15" rx="8.2215" ry="8.22846" transform="rotate(-180 9.20233 114.15)" fill="#E7FDE8"/>
<ellipse opacity="0.6" cx="212.537" cy="274.879" rx="7.6734" ry="7.67989" transform="rotate(-180 212.537 274.879)" fill="#E7FDE8"/>
</g>
<path d="M108.364 33.4101C102.094 33.4101 100.134 43.2159 100.134 47.1354C100.134 53.7866 107.187 81.2563 113.847 81.2563C120.506 81.2563 127.564 54.1762 127.564 51.0596C127.564 47.9431 119.334 33.4101 108.364 33.4101Z" fill="#9DECB3"/>
<path d="M231.511 35.2679L137.255 16.7591C130.733 15.4785 124.41 19.7316 123.13 26.2586L87.1629 209.751C85.8835 216.278 90.1328 222.607 96.654 223.887L190.91 242.396C197.431 243.677 203.755 239.424 205.034 232.897L241.002 49.4048C242.281 42.8777 238.032 36.5485 231.511 35.2679Z" fill="white"/>
<path d="M139.488 132.664C140.31 128.884 144.039 126.486 147.816 127.309L179.199 134.146C182.976 134.969 185.372 138.701 184.55 142.482C183.727 146.263 179.999 148.661 176.221 147.838L144.839 141C141.061 140.177 138.665 136.445 139.488 132.664Z" fill="#3FC951"/>
<path d="M154.211 134.484L155.16 134.691C155.328 133.853 154.768 133.127 153.725 132.9C152.699 132.676 151.823 133.08 151.643 133.932C151.49 134.622 151.891 135.124 152.641 135.486L153.123 135.726C153.605 135.96 153.857 136.169 153.791 136.485C153.714 136.827 153.338 136.99 152.835 136.881C152.321 136.768 152.002 136.45 152.072 135.974L151.115 135.765C150.919 136.784 151.53 137.466 152.666 137.714C153.809 137.963 154.6 137.562 154.789 136.705C154.957 135.924 154.459 135.382 153.685 135.021L153.286 134.829C152.9 134.647 152.592 134.421 152.672 134.087C152.738 133.785 153.053 133.621 153.538 133.727C154.011 133.83 154.255 134.108 154.211 134.484Z" fill="white"/>
<path d="M155.827 134.28L157.26 134.593L156.419 138.462L157.397 138.675L158.239 134.806L159.672 135.118L159.85 134.301L156.005 133.463L155.827 134.28Z" fill="white"/>
<path d="M159.693 139.175L160.273 138.182L161.962 138.55L162.077 139.694L163.138 139.926L162.543 134.888L161.267 134.61L158.632 138.944L159.693 139.175ZM160.692 137.464L161.654 135.816L161.691 135.824L161.881 137.723L160.692 137.464Z" fill="white"/>
<path d="M163.701 140.048L164.691 140.264L165.053 138.603L165.775 138.76L166.301 140.615L167.394 140.853L166.795 138.815C167.378 138.702 167.774 138.302 167.913 137.661C168.115 136.73 167.631 135.996 166.568 135.765L164.721 135.362L163.701 140.048ZM165.226 137.807L165.534 136.388L166.202 136.533C166.773 136.658 166.995 136.972 166.893 137.439C166.792 137.903 166.465 138.077 165.898 137.953L165.226 137.807Z" fill="white"/>
<path d="M168.589 137.061L170.023 137.373L169.181 141.242L170.16 141.455L171.001 137.586L172.435 137.899L172.612 137.082L168.767 136.244L168.589 137.061Z" fill="white"/>
<path opacity="0.6" d="M209.914 31.0727L208.723 37.1491C208.428 38.6356 207.556 39.9447 206.299 40.7897C205.042 41.6347 203.502 41.9468 202.016 41.6576L161.375 33.6762C159.89 33.3799 158.583 32.5075 157.739 31.2497C156.895 29.9918 156.583 28.4508 156.87 26.9632L158.085 20.8868" fill="#9DECB3"/>
<path d="M79.8083 200.19L208.271 225.422" stroke="#B9FFBC" stroke-width="3" stroke-miterlimit="10"/>
<path d="M148.424 222.942C148.424 225.297 146.516 227.207 144.163 227.207C141.81 227.207 139.902 225.297 139.902 222.942C139.902 220.586 141.81 218.676 144.163 218.676C146.516 218.676 148.424 220.586 148.424 222.942Z" fill="#9DECB3" stroke="#B9FFBC"/>
<path d="M100.921 86.3776C92.6907 86.3776 87.2036 92.6488 87.2036 99.319C87.2036 121.278 99.7442 139.317 105.241 139.317C116.994 139.317 121.303 133.041 121.303 128.727C121.294 125.568 119.728 86.3776 100.921 86.3776Z" fill="#9DECB3"/>
<path d="M96.6116 144.001C98.9612 146.353 116.984 165.57 116.984 178.901C116.984 187.928 115.024 194.978 98.5672 194.978C90.7305 194.978 68.7915 163.997 68.7915 151.45C68.7915 144.391 73.1015 127.919 85.2481 127.919C88.7749 127.919 96.6116 134.195 97.784 135.763C98.9915 137.015 100.272 138.193 101.619 139.293C101.126 141.844 98.4011 155.265 98.4011 155.265" fill="#9DECB3"/>
<path d="M102.384 150.457C102.384 150.457 96.8067 143.411 93.2798 140.276" stroke="#5DCB7C" stroke-width="2" stroke-miterlimit="10" stroke-linecap="round"/>
<path d="M93.6832 222.894C92.5108 226.034 91.7133 256.354 95.2401 273.215C92.8668 285.373 83.4827 325 83.4827 325H168.528L177.148 290.49C177.148 290.49 229.627 244.582 234.72 236.353C239.813 228.125 251.765 180.079 251.594 175.57C251.457 172.435 194.388 124.194 192.822 122.232C191.255 120.27 163.696 147.887 209.539 179.67C209.145 183.59 209.169 200.902 209.169 200.902C209.169 200.902 177.281 211.872 174.044 214.238C170.807 216.604 164.612 233.275 163.492 237.014C159.158 236.168 93.6832 222.894 93.6832 222.894Z" fill="#9DECB3"/>
<path d="M156.809 256.664C157.877 252.578 163.055 237.902 164.342 234.401" stroke="#5DCB7C" stroke-width="2" stroke-miterlimit="10" stroke-linecap="round"/>
<path d="M115.576 286.746C112.17 286.746 110.435 285.157 108.905 283.755C107.523 282.488 106.431 281.488 104.099 281.488C101.766 281.488 100.674 282.488 99.2922 283.755C97.7619 285.157 96.0273 286.746 92.6215 286.746C89.2157 286.746 87.4813 285.157 85.9508 283.755C84.5689 282.488 83.4775 281.488 81.1447 281.488C78.8123 281.488 77.7208 282.488 76.3389 283.755C74.8086 285.157 73.074 286.746 69.6682 286.746C66.2629 286.746 64.5287 285.157 62.9985 283.755C61.6168 282.488 60.5254 281.488 58.1931 281.488C55.8606 281.488 54.7692 282.488 53.3873 283.755C51.857 285.157 50.1224 286.746 46.7168 286.746C43.3111 286.746 41.5764 285.157 40.0459 283.755C38.664 282.488 37.5726 281.488 35.2398 281.488C34.4775 281.488 33.8591 280.87 33.8591 280.106C33.8591 279.343 34.4775 278.724 35.2398 278.724C38.6454 278.724 40.38 280.314 41.9105 281.715C43.2924 282.982 44.3841 283.982 46.7168 283.982C49.0493 283.982 50.1408 282.982 51.5226 281.716C53.0529 280.314 54.7876 278.724 58.1931 278.724C61.5984 278.724 63.3328 280.314 64.8631 281.716C66.2447 282.982 67.336 283.982 69.6682 283.982C72.001 283.982 73.0924 282.982 74.4743 281.716C76.0046 280.314 77.7392 278.724 81.1447 278.724C84.5505 278.724 86.2849 280.314 87.8154 281.716C89.1973 282.982 90.289 283.982 92.6215 283.982C94.9544 283.982 96.0459 282.982 97.4278 281.716C98.9583 280.314 100.693 278.724 104.099 278.724C107.504 278.724 109.239 280.314 110.77 281.716C112.151 282.982 113.243 283.982 115.576 283.982C117.909 283.982 119.001 282.982 120.383 281.715C121.913 280.314 123.648 278.724 127.054 278.724C127.817 278.724 128.435 279.343 128.435 280.106C128.435 280.87 127.817 281.488 127.054 281.488C124.721 281.488 123.629 282.488 122.247 283.755C120.717 285.157 118.982 286.746 115.576 286.746Z" fill="#F9C270"/>
</svg>
