<svg width="184" height="311" viewBox="0 0 184 311" fill="none" xmlns="http://www.w3.org/2000/svg">
<path d="M40.3642 19.4101C34.0939 19.4101 32.1335 29.2159 32.1335 33.1354C32.1335 39.7866 39.1871 67.2563 45.8466 67.2563C52.5061 67.2563 59.5644 40.1762 59.5644 37.0596C59.5644 33.9431 51.3337 19.4101 40.3642 19.4101Z" fill="#9DECB3"/>
<path d="M163.511 21.2679L69.2547 2.75907C62.7335 1.47852 56.4099 5.73162 55.1305 12.2586L19.1629 195.751C17.8835 202.278 22.1328 208.607 28.654 209.887L122.91 228.396C129.431 229.677 135.755 225.424 137.034 218.897L173.002 35.4048C174.281 28.8777 170.032 22.5485 163.511 21.2679Z" fill="white"/>
<path d="M71.4877 118.664C72.31 114.884 76.0388 112.486 79.8163 113.309L111.199 120.146C114.976 120.969 117.372 124.701 116.55 128.482V128.482C115.727 132.263 111.999 134.661 108.221 133.838L76.8387 127C73.0612 126.177 70.6655 122.445 71.4877 118.664V118.664Z" fill="#3FC951"/>
<path d="M86.2114 120.484L87.1601 120.691C87.328 119.853 86.7676 119.127 85.7251 118.9C84.6986 118.676 83.8231 119.08 83.6426 119.932C83.49 120.622 83.8909 121.124 84.6406 121.486L85.1225 121.726C85.6054 121.96 85.8571 122.169 85.7907 122.485C85.7138 122.827 85.3384 122.99 84.8354 122.881C84.321 122.768 84.0024 122.45 84.0725 121.974L83.1146 121.765C82.9193 122.784 83.53 123.466 84.6662 123.714C85.8093 123.963 86.6003 123.562 86.7892 122.705C86.9566 121.924 86.4592 121.382 85.6851 121.021L85.2864 120.829C84.8998 120.647 84.592 120.421 84.672 120.087C84.7377 119.785 85.0535 119.621 85.5381 119.727C86.0114 119.83 86.2549 120.108 86.2114 120.484Z" fill="white"/>
<path d="M87.8271 120.28L89.2605 120.593L88.419 124.462L89.3975 124.675L90.2389 120.806L91.6723 121.118L91.85 120.301L88.0047 119.463L87.8271 120.28Z" fill="white"/>
<path d="M91.6928 125.175L92.2726 124.182L93.9621 124.55L94.0772 125.694L95.1379 125.926L94.543 120.888L93.2674 120.61L90.632 124.944L91.6928 125.175ZM92.6923 123.464L93.654 121.816L93.6906 121.824L93.8811 123.723L92.6923 123.464Z" fill="white"/>
<path d="M95.7015 126.048L96.6914 126.264L97.0526 124.603L97.775 124.76L98.3008 126.615L99.3936 126.853L98.7952 124.815C99.3776 124.702 99.7735 124.302 99.9129 123.661C100.115 122.73 99.6308 121.996 98.5678 121.765L96.7206 121.362L95.7015 126.048ZM97.2258 123.807L97.5343 122.388L98.2019 122.533C98.7734 122.658 98.9948 122.972 98.8933 123.439C98.7922 123.903 98.4649 124.077 97.8979 123.953L97.2258 123.807Z" fill="white"/>
<path d="M100.589 123.061L102.023 123.373L101.181 127.242L102.16 127.455L103.001 123.586L104.435 123.899L104.612 123.082L100.767 122.244L100.589 123.061Z" fill="white"/>
<path opacity="0.6" d="M141.914 17.0727L140.723 23.1491C140.428 24.6356 139.556 25.9447 138.299 26.7897C137.042 27.6347 135.502 27.9468 134.016 27.6577L93.3748 19.6762C91.8902 19.3799 90.5831 18.5075 89.739 17.2497C88.895 15.9918 88.5826 14.4508 88.8702 12.9632L90.0854 6.88678" fill="#9DECB3"/>
<path d="M11.8083 186.19L140.271 211.422" stroke="#B9FFBC" stroke-width="3" stroke-miterlimit="10"/>
<path d="M80.4243 208.942C80.4243 211.297 78.5162 213.207 76.1632 213.207C73.8103 213.207 71.9021 211.297 71.9021 208.942C71.9021 206.586 73.8103 204.676 76.1632 204.676C78.5162 204.676 80.4243 206.586 80.4243 208.942Z" fill="#9DECB3" stroke="#B9FFBC"/>
<path d="M32.9214 72.3776C24.6907 72.3776 19.2036 78.6488 19.2036 85.319C19.2036 107.278 31.7442 125.317 37.2409 125.317C48.9935 125.317 53.3035 119.041 53.3035 114.727C53.294 111.568 51.7276 72.3776 32.9214 72.3776Z" fill="#9DECB3"/>
<path d="M28.6116 130.001C30.9612 132.353 48.9842 151.57 48.9842 164.901C48.9842 173.928 47.0238 180.978 30.5672 180.978C22.7305 180.978 0.791504 149.997 0.791504 137.45C0.791504 130.391 5.10145 113.919 17.2481 113.919C20.7749 113.919 28.6116 120.195 29.784 121.763C30.9915 123.015 32.2721 124.193 33.6193 125.293C33.1256 127.844 30.4011 141.265 30.4011 141.265" fill="#9DECB3"/>
<path d="M34.3843 136.457C34.3843 136.457 28.8067 129.411 25.2798 126.276" stroke="#5DCB7C" stroke-width="2" stroke-miterlimit="10" stroke-linecap="round"/>
<path d="M25.6832 208.894C24.5108 212.034 23.7133 242.354 27.2401 259.215C24.8668 271.373 15.4827 311 15.4827 311H100.528L109.148 276.49C109.148 276.49 161.627 230.582 166.72 222.353C171.813 214.125 183.765 166.079 183.594 161.57C183.457 158.435 126.388 110.194 124.822 108.232C123.255 106.27 95.6962 133.887 141.539 165.67C141.145 169.59 141.169 186.902 141.169 186.902C141.169 186.902 109.281 197.872 106.044 200.238C102.807 202.604 96.6123 219.275 95.4921 223.014C91.1584 222.168 25.6832 208.894 25.6832 208.894Z" fill="#9DECB3"/>
<path d="M88.8086 242.664C89.8766 238.578 95.0555 223.902 96.3419 220.401" stroke="#5DCB7C" stroke-width="2" stroke-miterlimit="10" stroke-linecap="round"/>
</svg>
