<svg width="339" height="49" viewBox="0 0 339 49" fill="none" xmlns="http://www.w3.org/2000/svg">
<path d="M0.0816068 16.3445L23.9918 0L47.9184 16.3445L19.5199 35.7306L14.6236 32.3881L37.473 16.7456L23.5185 7.21965L16.9901 11.6317L21.9844 14.9741L10.0048 23.1463L0.0816068 16.3445ZM47.9184 32.6722L23.9918 49L0.0816068 32.6722L28.4801 13.2694L33.4743 16.6119L10.625 32.2544L24.5794 41.7804L31.1078 37.3684L26.1299 34.0259L37.9952 25.8704L47.9184 32.6722ZM47.9184 6.80184L43.0221 10.1443L38.0442 6.80184L48 0L47.9184 6.80184ZM0.0816068 42.1982L5.0595 38.8557L9.9558 42.1982L0 49L0.0816068 42.1982Z" fill="#465EFF"/>
<path d="M70.8212 41.1703C73.9215 41.1703 81.6078 40.7978 81.6078 32.4163C81.6078 27.8785 80.2514 24.7122 75.1487 23.9502C76.8486 23.7497 78.411 22.8752 79.5158 21.5057C80.6206 20.1363 81.1842 18.3757 81.091 16.5847C81.091 9.5239 76.5051 8.01692 70.9342 8.01692H58V41.1703H70.8212ZM303.185 41.1703C307.512 41.1703 311.888 40.5608 311.888 33.5508C311.888 25.4572 300.714 26.253 300.714 21.1225C300.684 20.7194 300.741 20.3144 300.879 19.9372C301.018 19.56 301.235 19.2201 301.516 18.9424C301.796 18.6648 302.132 18.4564 302.499 18.3326C302.866 18.2089 303.255 18.1728 303.637 18.2271H309.628V14.0617H301.215C294.304 14.0617 292.592 17.3466 292.592 21.5797C292.592 29.6394 304.977 29.4532 304.977 33.9741C305.025 34.3834 304.984 34.7987 304.859 35.1894C304.733 35.5802 304.525 35.9365 304.251 36.2321C303.977 36.5277 303.643 36.7551 303.274 36.8976C302.905 37.0402 302.51 37.0942 302.119 37.0558H293.254L286.682 14.0787H278.802L271.535 38.7321L266.966 28.1325C270.308 27.4721 271.648 25.254 271.648 21.1733C271.746 20.2239 271.641 19.2637 271.341 18.3622C271.04 17.4607 270.553 16.6406 269.913 15.9614C269.273 15.2821 268.496 14.7608 267.64 14.4351C266.784 14.1095 265.87 13.9877 264.963 14.0787H252.659V41.1703H259.392V18.1594H261.621C262.12 18.1591 262.613 18.2685 263.069 18.4805C263.525 18.6924 263.933 19.0022 264.268 19.3899C264.603 19.7776 264.856 20.2346 265.012 20.7313C265.168 21.228 265.223 21.7535 265.173 22.2739C265.173 24.5259 264.091 26.3884 262.364 26.2699H260.491L266.61 41.0349H277.381L278.996 35.0408H285.971L287.586 41.0349L303.185 41.1703ZM284.938 31.011H279.964L282.338 19.9372L284.938 31.011ZM209.949 41.9661C219.992 41.9661 219.992 34.9562 219.992 27.76C219.992 20.5637 219.992 13.5368 209.949 13.5368C199.905 13.5368 199.889 20.4791 199.889 27.76C199.889 35.0408 199.889 41.8815 209.949 41.8815V41.9661ZM209.949 37.8516C207.01 37.8516 206.622 34.8038 206.622 27.6922C206.622 20.5807 207.01 17.5329 209.949 17.5329C212.887 17.5329 213.259 20.5807 213.259 27.6922C213.259 34.8038 212.887 37.7839 209.949 37.7839V37.8516ZM178.025 41.2381H187.826C198.129 41.2381 197.515 31.6713 197.515 27.506C197.515 19.0398 196.029 14.0617 188.133 14.0617H178.089L178.025 41.2381ZM184.484 18.2948H187.181C190.781 18.2948 190.781 22.6972 190.781 27.6922C190.781 34.4651 190.152 37.1066 187.003 37.1066H184.516L184.484 18.2948ZM236.673 26.761H238.288C241.436 26.761 242.421 28.5558 242.421 31.4851C242.421 36.1245 239.45 36.1584 238.126 36.1584H234.654V26.8287L236.673 26.761ZM234.671 21.6813V13.2151H238.514C239.019 13.2294 239.516 13.3516 239.974 13.5743C240.433 13.7969 240.843 14.1153 241.18 14.51C241.517 14.9047 241.774 15.3673 241.935 15.8696C242.095 16.3719 242.157 16.9033 242.115 17.4313C242.115 20.6484 240.209 21.6474 238.885 21.6474H236.754L234.671 21.6813ZM239.692 41.1703C242.793 41.1703 250.479 40.7978 250.479 32.4163C250.479 27.8785 249.123 24.7122 244.02 23.9502C245.721 23.7457 247.284 22.8676 248.388 21.4955C249.493 20.1233 250.056 18.3606 249.962 16.5677C249.962 9.50697 245.376 8 239.805 8H226.887V41.1703H239.692ZM339 41.1703V37.0727H331.33V14.0787H324.758V41.1703H339ZM320.899 14.0787H314.343V41.1703H320.899V14.0787ZM160.828 41.9492C170.888 41.9492 170.888 34.9054 170.888 27.6753C170.888 20.4452 170.888 13.4014 160.828 13.4014C150.768 13.4014 150.784 20.3606 150.784 27.6753C150.784 34.99 150.784 41.8815 160.828 41.8815V41.9492ZM160.828 37.8177C157.889 37.8177 157.501 34.753 157.501 27.6584C157.501 20.5637 157.889 17.499 160.828 17.499C163.767 17.499 164.154 20.5637 164.154 27.6584C164.154 34.753 163.767 37.7839 160.828 37.7839V37.8177ZM95.8338 31.0448H90.8442L93.2178 19.9711L95.8338 31.0448ZM88.2767 41.2042L89.8914 35.1932H96.851L98.3689 41.1703H105.264L97.5131 14.0787H89.6977L81.7854 41.1703L88.2767 41.2042ZM139.82 42C145.52 42 148.846 39.6126 148.846 32.2301H142.387C142.387 34.4143 142.274 37.8685 139.852 37.8685C137.091 37.8685 136.623 36.1753 136.623 27.7092C136.623 19.0229 137.252 17.5498 139.658 17.5498C141.386 17.5498 142.161 18.9382 142.161 22.6295H148.62C148.862 16.7032 145.714 13.4522 139.497 13.4522C130.244 13.4522 129.97 19.6325 129.97 27.7261C129.97 35.8197 129.76 41.8815 139.82 41.8815V42ZM112.369 41.2042V23.0189L119.603 41.1703H127.435V14.0787H121.783V31.5697L114.791 14.0787H106.846V41.1703L112.369 41.2042ZM67.4463 26.6086H68.4636C72.3229 26.6086 73.534 28.3018 73.534 31.3157C73.534 35.9552 69.8846 35.989 68.2537 35.989H65.8639V26.6594L67.4463 26.6086ZM65.8316 21.5289V13.0627H68.6897C69.2465 13.0139 69.8069 13.0858 70.336 13.2739C70.8652 13.4621 71.3517 13.7625 71.7652 14.1565C72.1788 14.5504 72.5106 15.0295 72.7399 15.5638C72.9691 16.098 73.0911 16.6761 73.098 17.2619C73.1308 17.8231 73.0498 18.3852 72.8604 18.9112C72.671 19.4372 72.3774 19.9151 71.9991 20.3135C71.6207 20.7118 71.1661 21.0216 70.6652 21.2223C70.1644 21.4231 69.6287 21.5102 69.0934 21.4781H66.4452L65.8316 21.5289Z" fill="#465EFF"/>
</svg>
