<svg width="226" height="51" viewBox="0 0 226 51" fill="none" xmlns="http://www.w3.org/2000/svg">
<g clip-path="url(#clip0_302_172)">
<path d="M128.785 37.3926C129.503 33.9967 130.147 30.9654 130.784 27.9322C132.588 19.3393 134.385 10.7454 136.174 2.15023C136.348 1.30504 136.696 1.04461 137.548 1.05914C140.707 1.11328 143.867 1.08 147.027 1.0808C148.592 1.0808 148.578 1.07947 148.234 2.69723C147.138 7.84748 146.049 12.999 144.966 18.1517C143.68 24.2429 142.397 30.3345 141.115 36.4264C140.264 40.4955 139.408 44.5638 138.615 48.6448C138.425 49.622 138.071 49.9551 137.038 49.943C131.691 49.8794 126.344 49.8794 120.996 49.943C119.964 49.9551 119.614 49.6091 119.399 48.6488C117.723 41.1659 115.994 33.6946 114.289 26.2183C113.287 21.8275 112.299 17.4335 111.25 12.8024C110.552 14.6111 110.384 16.3321 110.012 17.9861C108.818 23.3034 107.735 28.6482 106.623 33.9835C105.634 38.7245 104.603 43.4584 103.718 48.2198C103.456 49.6294 102.923 50.0111 101.537 49.9522C98.5451 49.8252 95.5401 49.8365 92.5466 49.9498C91.306 49.9968 91.2073 49.5061 91.4152 48.5455C92.2557 44.6602 93.1096 40.7778 93.9233 36.8868C95.6106 28.8173 97.2637 20.7406 98.9544 12.6719C99.6905 9.15903 100.514 5.66625 101.232 2.15023C101.407 1.29157 101.748 1.05385 102.596 1.05993C108.065 1.10008 113.534 1.11275 119.003 1.05148C120.034 1.03959 120.39 1.3819 120.603 2.3478C121.895 8.20184 123.16 14.0638 124.6 19.8811C125.689 24.2838 126.716 28.701 127.765 33.1138C128.076 34.4156 128.385 35.718 128.785 37.3926Z" fill="#226CB4"/>
<path d="M38.4952 15.4087C36.5511 15.4087 34.6066 15.3883 32.663 15.4203C32.0244 15.4309 31.867 15.2911 31.9604 14.5968C32.282 12.1782 31.2137 10.5512 28.8735 9.90645C25.9023 9.08766 23.1492 9.53668 20.8571 11.7313C18.6194 13.8733 19.005 16.6295 21.7259 18.0814C24.2214 19.4131 26.9975 19.8866 29.698 20.5744C31.8933 21.1333 34.0995 21.6491 36.1915 22.5532C41.7662 24.9623 43.8389 29.0306 42.6997 35.0793C41.5564 41.1499 37.9382 45.2344 32.5969 47.7573C24.8472 51.4191 16.7182 51.8874 8.53893 49.623C0.717708 47.4572 -0.750057 41.5543 0.301654 35.0394C0.379712 34.5619 0.581887 34.3477 1.09759 34.3501C5.06688 34.3675 9.03616 34.3604 13.0054 34.358C13.3957 34.358 13.6416 34.3688 13.6692 34.9325C13.9068 39.7815 15.9022 41.6473 20.6555 41.4331C22.6629 41.3428 24.5639 40.8071 26.2374 39.6106C27.8571 38.4527 28.7043 36.8989 28.4556 34.8754C28.2368 33.0963 26.9145 32.2717 25.4454 31.6587C22.4792 30.4212 19.2972 29.9366 16.2431 29.0018C14.384 28.4326 12.5511 27.808 10.779 26.9982C6.67411 25.1229 4.65135 21.856 5.04632 17.3067C5.64607 10.3956 9.24822 5.46784 15.4372 2.74499C22.7766 -0.483927 30.4414 -0.788991 38.1219 1.43044C41.8492 2.50754 44.7308 4.73833 45.5918 8.86897C45.999 10.8235 45.7846 12.7746 45.3576 14.7185C45.2091 15.3949 44.8451 15.4166 44.3286 15.4134C42.3836 15.4013 40.4389 15.4089 38.4952 15.4087Z" fill="#226CB4"/>
<path d="M65.4696 49.864C59.6773 49.864 53.8849 49.8476 48.0926 49.882C47.234 49.8873 47.1008 49.6575 47.2743 48.8382C50.5726 33.27 53.8459 17.6966 57.0944 2.11802C57.2739 1.25486 57.6247 1.11699 58.3779 1.11831C69.8817 1.1375 81.3854 1.13627 92.889 1.11461C93.7596 1.1125 94.0078 1.28893 93.7919 2.20333C93.2254 4.59075 92.6884 6.98926 92.2692 9.40626C92.1032 10.3627 91.7181 10.5615 90.8433 10.5573C83.8766 10.5256 76.9093 10.5644 69.9426 10.5122C68.9296 10.5045 68.5412 10.7887 68.3601 11.7926C67.8886 14.4093 67.3435 17.0144 66.7404 19.6033C66.5322 20.4942 66.7924 20.6294 67.5855 20.6265C73.9863 20.6027 80.3871 20.6437 86.785 20.5843C87.8898 20.5742 88.0264 20.8661 87.7928 21.8621C87.2328 24.251 86.7334 26.6541 86.2946 29.0714C86.1327 29.9646 85.7221 30.1292 84.9085 30.1252C78.5491 30.093 72.1894 30.1363 65.8304 30.0785C64.8019 30.069 64.4413 30.3917 64.2612 31.3714C63.7731 34.0266 63.2366 36.6758 62.6108 39.3009C62.3641 40.3355 62.6972 40.458 63.5863 40.4543C70.5127 40.4279 77.4393 40.4625 84.3655 40.4155C85.463 40.4078 85.7679 40.6191 85.4809 41.7686C84.8968 44.1082 84.4066 46.4758 83.9807 48.8506C83.831 49.6847 83.5157 49.8859 82.7252 49.8806C76.9731 49.8492 71.2212 49.864 65.4696 49.864Z" fill="#226CB4"/>
<path d="M209.264 49.864C207.36 49.864 205.452 49.7895 203.553 49.8922C202.436 49.9527 202.651 49.3904 202.789 48.7362C204.187 42.0882 205.583 35.4399 206.978 28.7914C208.821 20.0206 210.681 11.2535 212.488 2.47537C212.691 1.48649 212.979 1.07287 214.083 1.09875C217.768 1.18565 221.457 1.15395 225.144 1.1146C225.975 1.10588 226.109 1.28126 225.93 2.1262C222.637 17.7011 219.373 33.282 216.136 48.869C215.971 49.6614 215.654 49.9134 214.854 49.8851C212.993 49.8193 211.127 49.8643 209.264 49.864Z" fill="#226CB4"/>
<path d="M197.307 48.8223C194.491 33.2751 191.698 17.7235 188.929 2.16741C188.785 1.35971 188.506 1.10536 187.691 1.11223C182.992 1.15203 178.293 1.15062 173.593 1.10801C172.698 1.09823 172.25 1.41518 171.801 2.16767C165.022 13.5266 158.223 24.8732 151.403 36.2075C148.717 40.6839 146.031 45.1595 143.207 49.8627C147.608 49.8627 151.774 49.8461 155.939 49.8802C156.592 49.8854 156.746 49.4687 156.973 49.0479C158.388 46.4249 159.818 43.8095 161.202 41.1696C161.526 40.5516 161.891 40.298 162.611 40.3025C168.444 40.3352 174.278 40.3342 180.112 40.2993C181.004 40.2927 181.298 40.5759 181.39 41.4477C181.651 43.9326 182.046 46.4035 182.289 48.8897C182.369 49.7003 182.642 49.8847 183.393 49.8791C187.768 49.8469 192.144 49.839 196.519 49.8833C197.424 49.8934 197.448 49.5994 197.307 48.8223ZM179.357 30.9057C175.324 30.9097 171.291 30.9073 167.044 30.9073C170.692 24.0628 174.246 17.3952 177.799 10.7282L178.049 10.7905C178.259 12.9416 178.477 15.0921 178.678 17.2442C179.071 21.4436 179.456 25.6436 179.832 29.8442C179.866 30.2423 180.249 30.9049 179.357 30.9057Z" fill="#226CB4"/>
</g>
<defs>
<clipPath id="clip0_302_172">
<rect width="226" height="51" fill="white"/>
</clipPath>
</defs>
</svg>
