<svg width="307" height="49" viewBox="0 0 307 49" fill="none" xmlns="http://www.w3.org/2000/svg">
<path d="M10.4785 18.2675C13.0052 15.4481 15.8514 14.0133 19.3841 13.9166C26.2898 13.7078 30.1139 16.8442 30.7526 23.5658C31.4152 30.5 30.9202 37.4575 31.02 44.4033C31.0799 48.3248 31.02 48.3248 26.9844 48.3248C25.2559 48.3248 23.5235 48.2475 21.7951 48.3519C20.5097 48.4293 20.2503 47.9342 20.2583 46.805C20.3062 40.6171 20.2822 34.4293 20.2822 28.2685C20.2822 27.6923 20.3062 27.1083 20.2822 26.5321C19.9988 22.5487 16.4022 20.6614 12.7218 22.5757C11.4165 23.2564 10.698 24.1884 10.7259 25.8011C10.8178 32.7624 10.7259 39.7005 10.7978 46.6503C10.7978 48.0232 10.3986 48.4177 9.0055 48.3597C6.55057 48.2552 4.08766 48.2823 1.62874 48.3597C0.491087 48.3906 -0.00788929 48.1972 9.4228e-05 46.9133C0.0559788 36.5538 0.0559788 26.193 9.4228e-05 15.831C9.4228e-05 14.721 0.351374 14.3884 1.47705 14.431C3.53336 14.5586 5.59598 14.5586 7.65229 14.431C9.49249 14.2763 10.3866 14.7791 10.2709 16.6431C10.2955 17.1891 10.3649 17.7322 10.4785 18.2675Z" fill="white"/>
<path d="M116.352 17.8767C119.401 14.7828 123.118 13.6806 127.373 13.9165C130.77 14.1099 133.572 15.2894 135.412 18.1513C135.955 18.9905 136.211 19.064 136.917 18.2634C140.458 14.1679 145.152 13.2861 150.278 14.1601C155.156 14.9916 158.197 18.306 158.385 23.5463C158.668 31.4512 158.505 39.3717 158.529 47.2844C158.529 47.4777 158.573 47.7717 158.469 47.8451C156.924 48.9048 155.184 48.1429 153.539 48.2899C152.341 48.3982 152.685 47.3579 152.681 46.743C152.649 42.6899 152.681 38.6214 152.681 34.5839C152.681 31.7529 152.705 28.922 152.681 26.0756C152.625 20.9435 150.545 18.7971 145.623 18.7275C140.905 18.6618 137.448 21.7828 137.404 26.3347C137.332 32.9634 137.339 39.5908 137.424 46.217C137.448 47.8567 137.109 48.433 135.277 48.3595C131.461 48.2048 131.457 48.317 131.457 44.5695C131.457 38.3816 131.457 32.217 131.457 26.0408C131.437 22.0806 130.044 19.9341 127.066 19.0795C123.21 17.9772 119.082 19.2458 117.086 22.1115C116.498 22.9694 116.2 23.9828 116.232 25.012C116.268 32.2209 116.232 39.4258 116.284 46.6308C116.284 47.9882 115.885 48.3595 114.508 48.344C110.384 48.2976 110.38 48.344 110.38 44.2794C110.38 34.9976 110.432 25.7469 110.336 16.4806C110.316 14.7325 110.851 14.3148 112.572 14.3883C115.677 14.5353 115.685 14.4347 116.352 17.8767Z" fill="white"/>
<path d="M234.587 32.7972C231.961 34.7309 230.232 36.8772 230.727 40.296C231.047 42.5043 230.727 44.7938 230.807 47.0446C230.835 48.0695 230.448 48.3209 229.426 48.3518C224.963 48.4872 224.967 48.522 224.967 44.233C224.967 30.3375 224.991 16.4381 224.931 2.53864C224.931 0.871789 225.227 0.171804 227.167 0.256887C230.783 0.411583 230.787 0.291677 230.787 3.84195V28.6706C231.306 28.9027 231.474 28.5469 231.658 28.3226C235.194 24.0452 239.294 20.2629 243.026 16.1596C244.16 14.9104 245.341 14.2259 247.122 14.4115C248.508 14.4974 249.898 14.5077 251.285 14.4425C251.441 15.332 250.722 15.6298 250.319 16.0591C246.834 19.7756 243.369 23.5115 239.785 27.1392C238.703 28.2298 238.627 28.9298 239.585 30.1557C243.788 35.543 247.88 41.0154 252.004 46.4568C252.403 46.9595 252.726 47.4894 253.301 48.317C251.018 48.317 249.062 48.317 247.106 48.317C246.271 48.317 246.028 47.6479 245.649 47.1568C242.391 42.931 239.145 38.6975 235.909 34.4563C235.478 33.8994 235.027 33.3541 234.587 32.7972Z" fill="white"/>
<path d="M293.845 30.4768C293.845 27.1354 293.786 23.7901 293.869 20.4486C293.901 19.2497 293.53 18.8166 292.305 18.9597C291.582 19.0409 290.828 18.8824 290.117 18.9906C288.145 19.2884 287.634 18.6039 287.546 16.6431C287.443 14.3227 288.616 14.3962 290.273 14.4233C293.841 14.4851 293.841 14.4426 293.841 11.0741V9.14038C293.841 6.2669 293.841 6.26691 296.735 6.26691C299.745 6.26691 299.733 6.2669 299.753 9.18679C299.753 10.8498 299.214 12.9227 300.037 14.0558C300.859 15.189 303.122 14.3884 304.747 14.4039C305.909 14.4039 306.176 14.7907 306.188 15.8503C306.22 18.9713 306.268 18.9713 303.13 18.9713C302.4 18.9713 301.661 19.0216 300.939 18.9713C299.941 18.8824 299.741 19.3194 299.741 20.2011C299.773 26.8879 299.717 33.5707 299.785 40.2575C299.813 43.1077 301.414 44.4729 304.304 43.9122C306.3 43.5254 306.479 44.2602 306.419 45.8458C306.316 48.6149 306.392 48.6188 303.426 48.8044C297.039 49.1911 294.041 46.5923 293.873 40.3271C293.786 37.0359 293.845 33.7564 293.845 30.4768Z" fill="white"/>
<path d="M208.821 18.0779C211.188 15.0071 214.01 13.6845 217.603 13.9011C218.992 13.9862 219.698 14.3304 219.531 15.8348C219.403 16.995 219.894 18.4221 219.335 19.2226C218.704 20.1276 217.148 19.3851 215.994 19.4508C211.376 19.7138 208.749 22.3436 208.749 26.7989C208.749 33.4198 208.709 40.037 208.781 46.6579C208.781 48.0154 208.41 48.3789 207.017 48.3596C202.825 48.3093 202.825 48.3596 202.825 44.38C202.825 34.9977 202.857 25.6116 202.789 16.2293C202.789 14.7867 203.188 14.1873 204.669 14.4387C204.802 14.4503 204.936 14.4503 205.069 14.4387C208.521 14.4348 208.521 14.4348 208.821 18.0779Z" fill="white"/>
<path d="M66.2595 34.7695C67.7923 34.7927 68.2554 34.3286 68.1237 32.9093C67.96 31.0529 68.0518 29.1772 67.8642 27.3248C67.1537 20.3325 62.7228 15.4557 55.9368 14.1331C48.5561 12.6905 41.331 15.6568 38.1615 21.5043C35.7665 25.948 35.3673 30.7358 36.1657 35.5816C37.6147 44.4767 45.9455 50.5059 57.5016 48.522C60.8725 47.9868 63.9712 46.4009 66.3274 44.0048C66.998 43.3203 67.1257 42.8446 66.4072 42.0711C65.3129 40.9487 64.293 39.7603 63.3535 38.5131C62.5552 37.438 61.9724 37.4496 61.1102 38.4319C60.3829 39.1942 59.4601 39.756 58.4357 40.0601C53.5138 41.7347 47.8256 40.5667 46.9354 34.727H49.1069C54.8271 34.7347 60.5433 34.6805 66.2595 34.7695ZM46.9194 27.1507C47.4144 23.6701 49.8175 21.7364 53.3621 22.0767C53.9911 22.1344 54.6017 22.3143 55.1573 22.6056C55.713 22.897 56.2023 23.2938 56.5961 23.7725C56.9899 24.2511 57.2801 24.8018 57.4494 25.3915C57.6187 25.9812 57.6636 26.598 57.5814 27.2049C57.4936 28.0132 57.1104 28.1408 56.4278 28.133C54.9708 28.133 53.5098 28.133 52.0369 28.133H47.8695C47.1949 28.1292 46.7917 28.0673 46.9194 27.1507Z" fill="white"/>
<path d="M102.054 21.6669C98.6487 15.5061 91.5234 12.6365 83.7914 14.1912C78.0393 15.3514 74.2112 18.6039 72.2432 23.9602C70.7623 28.0133 70.7064 32.1553 71.5048 36.3166C72.7741 42.9375 77.3806 47.4005 84.0748 48.642C91.3757 49.9994 98.0779 47.4431 101.639 41.8856C103.662 38.726 104.269 35.2066 104.237 31.0569C104.357 27.7969 103.605 24.5622 102.054 21.6669ZM92.5693 37.5696C91.6192 39.7585 90.0185 40.7254 87.6115 40.7331C85.2045 40.7409 83.4561 39.6773 82.7056 37.5155C81.3014 33.5286 81.3197 29.2004 82.7575 25.2249C83.512 23.0939 85.2324 21.9956 87.6714 22.0188C90.1103 22.042 91.6631 23.179 92.5772 25.2713C93.4395 27.2746 93.5273 29.39 93.4794 31.5171C93.5432 33.59 93.4075 35.6398 92.5693 37.5735V37.5696Z" fill="white"/>
<path d="M194.602 47.0833C193.748 44.6855 193.608 42.1872 193.616 39.6695C193.616 34.5878 193.672 29.506 193.616 24.4281C193.549 19.5514 190.527 15.7613 185.761 14.4619C183.124 13.7445 180.35 13.6345 177.661 14.1409C173.147 14.9762 169.422 17.0221 167.634 21.427C166.752 23.6044 166.971 23.8712 169.295 23.879C170.161 23.879 171.023 23.879 171.889 23.879C172.532 23.879 173.035 23.8171 173.207 23.0475C173.746 20.5955 175.638 19.4701 177.909 18.8397C182.966 17.4398 187.266 19.795 187.693 24.1458C188.052 27.8237 188.052 27.816 184.256 27.8276C182.659 27.8276 181.062 27.8276 179.466 27.9088C176.871 28.0107 174.331 28.6629 172.025 29.8193C167.782 32.0276 165.638 36.3939 166.628 40.8452C167.618 45.2966 171.454 48.3635 176.208 48.7966C180.627 49.1834 184.471 48.0889 187.832 44.7977C188.431 48.3248 188.431 48.3248 191.708 48.3248C192.375 48.3248 193.042 48.29 193.704 48.3248C194.734 48.4021 194.938 48.0347 194.602 47.0833ZM176.336 43.4944C173.837 42.6745 172.484 40.969 172.38 38.5132C172.269 35.8602 173.39 33.9999 175.881 33.0215C179.426 31.6292 183.174 31.8613 186.89 31.8613C187.633 31.8613 187.729 32.337 187.725 32.8977C187.725 33.8607 187.725 34.8314 187.725 35.7906C187.729 41.4679 181.98 45.3546 176.336 43.4944Z" fill="white"/>
<path d="M263.412 32.9751C266.734 33.0795 270.059 33.006 273.392 33.006C276.781 33.006 280.178 32.9673 283.559 33.0292C284.672 33.0524 285.016 32.743 285.024 31.6408C285.048 28.5972 284.836 25.5883 283.802 22.7033C282.297 18.511 279.551 15.479 274.945 14.3497C267.624 12.5591 260.598 15.8657 257.62 22.6104C255.186 27.9769 255.002 34.0507 257.109 39.5458C259.001 44.6353 262.941 47.8491 268.51 48.6535C274.31 49.4927 279.655 48.464 283.579 43.6993C283.902 43.3126 284.433 42.5391 284.349 42.4424C283.432 41.5182 282.412 40.6958 281.307 39.9905C280.545 39.538 280.242 40.5436 279.83 40.9458C276.597 44.0784 272.725 45.0259 268.494 43.6104C264.263 42.1949 262.446 38.8612 261.812 34.7657C261.6 33.4585 261.911 32.9287 263.412 32.9751ZM264.758 21.2646C265.91 20.0061 267.444 19.1337 269.14 18.7724C270.836 18.4111 272.607 18.5795 274.198 19.2536C277.06 20.5027 279.387 24.5248 279.064 27.5027C278.996 28.0828 278.813 28.2762 278.238 28.2762C272.813 28.2762 267.384 28.2762 261.872 28.2762C262.235 25.5729 262.993 23.2138 264.758 21.2801V21.2646Z" fill="white"/>
</svg>
