<svg width="91" height="113" viewBox="0 0 91 113" fill="none" xmlns="http://www.w3.org/2000/svg">
<path d="M49.14 108.9C53.978 106.949 56.3225 101.435 54.3766 96.5842C52.4308 91.7335 46.9315 89.3827 42.0936 91.3337C37.2557 93.2847 34.9111 98.7985 36.857 103.649C38.8028 108.5 44.3021 110.851 49.14 108.9Z" fill="#FF6900"/>
<path d="M29.6559 67.0563C26.2903 64.5868 23.5566 61.3535 21.679 57.6214C19.8013 53.8893 18.8331 49.7646 18.8537 45.5852C18.8563 41.0244 20.0259 36.5404 22.2509 32.5614C24.4758 28.5824 27.6818 25.2412 31.5626 22.857C35.4435 20.4727 39.8696 19.1249 44.4185 18.9423C48.9673 18.7596 53.4869 19.7483 57.5457 21.8139C61.6046 23.8794 65.0671 26.9529 67.6027 30.7408C70.1383 34.5287 71.6623 38.9046 72.0291 43.4506C72.396 47.9965 71.5935 52.5608 69.6982 56.7076C67.803 60.8544 64.8783 64.4452 61.2034 67.1372C59.3287 68.6763 58.1164 70.8786 57.8175 73.2883C57.5187 75.6979 58.1561 78.1305 59.5978 80.0824C61.0395 82.0344 63.1751 83.3562 65.5627 83.7745C67.9502 84.1927 70.4069 83.6752 72.4242 82.3291C80.1335 76.6598 85.8637 68.701 88.8009 59.5832C91.7381 50.4654 91.7329 40.6522 88.7861 31.5375C85.8393 22.4229 80.1008 14.4701 72.3855 8.80887C64.6702 3.14764 55.3706 0.0657751 45.8074 0.00104106C36.2443 -0.063693 26.9039 2.89199 19.113 8.44826C11.3221 14.0045 5.47673 21.8789 2.40728 30.9528C-0.662179 40.0268 -0.799701 49.839 2.01424 58.9957C4.82819 68.1524 10.4505 76.1881 18.0827 81.9613L18.2038 82.0533C19.187 82.8076 20.3088 83.3605 21.5053 83.6804C22.7017 84.0004 23.9493 84.0811 25.1769 83.918C26.4045 83.7549 27.5881 83.3512 28.6599 82.7298C29.7317 82.1085 30.6709 81.2818 31.4239 80.2968C32.1768 79.3119 32.7287 78.188 33.048 76.9893C33.3674 75.7907 33.448 74.5408 33.2852 73.3109C33.1224 72.0811 32.7194 70.8954 32.0992 69.8216C31.479 68.7478 30.6538 67.8069 29.6706 67.0526" fill="#FF6900"/>
</svg>
